<?xml version="1.0" encoding="utf-8"?>
<!-- Generator: Adobe Illustrator 30.1.0, SVG Export Plug-In . SVG Version: 9.03 Build 0)  -->
<svg version="1.0" xmlns="http://www.w3.org/2000/svg" xmlns:xlink="http://www.w3.org/1999/xlink" x="0px" y="0px"
	 viewBox="0 0 1482.667 289.333" style="enable-background:new 0 0 1482.667 289.333;" xml:space="preserve">
<style type="text/css">
	.st0{clip-path:url(#SVGID_00000016792138988226860030000014470509185503945136_);}
	.st1{clip-path:url(#SVGID_00000176761387525539638350000006418448874577048215_);}
	.st2{clip-path:url(#SVGID_00000062904696004905213490000004159860502702470026_);}
	.st3{fill:#FFFFFF;}
	.st4{clip-path:url(#SVGID_00000084488552446413217370000009555934015398140606_);}
	.st5{fill:none;stroke:#04763F;stroke-width:8.2506;stroke-miterlimit:3.667;}
	.st6{clip-path:url(#SVGID_00000105412841849667397930000010900211852847407768_);}
</style>
<g id="Layer_1">
</g>
<g id="Layer_2">
	<g transform="matrix(1, 0, 0, 1, 150, 641)">
		<g>
			<defs>
				<rect id="SVGID_1_" x="-150" y="-641" width="1482.667" height="289.333"/>
			</defs>
			<clipPath id="SVGID_00000136411828588796591340000007686388719510541737_">
				<use xlink:href="#SVGID_1_"  style="overflow:visible;"/>
			</clipPath>
			<g style="clip-path:url(#SVGID_00000136411828588796591340000007686388719510541737_);">
				<g>
					<defs>
						<rect id="SVGID_00000052062200683639227790000011468285691074664355_" x="170" y="-640.625" width="1152" height="179.625"/>
					</defs>
					<clipPath id="SVGID_00000131361095185151626500000013307660432511006084_">
						<use xlink:href="#SVGID_00000052062200683639227790000011468285691074664355_"  style="overflow:visible;"/>
					</clipPath>
					<g style="clip-path:url(#SVGID_00000131361095185151626500000013307660432511006084_);">
						<g transform="matrix(1, 0, 0, 1, 240, 0.000000000000113687)">
							<g>
								<defs>
									<rect id="SVGID_00000044895958086910370920000003292365641203979683_" x="-70" y="-641" width="1152" height="180"/>
								</defs>
								<clipPath id="SVGID_00000136384936652462607300000001930806941476054435_">
									<use xlink:href="#SVGID_00000044895958086910370920000003292365641203979683_"  style="overflow:visible;"/>
								</clipPath>
								<g style="clip-path:url(#SVGID_00000136384936652462607300000001930806941476054435_);">
									<g>
										<g transform="translate(1.02791, 107.745013)">
											<g>
												<path class="st3" d="M-60.387-605.085V-712.21h42.646c7.802,0,14.344,1.177,19.625,3.521
													c5.276,2.349,9.24,5.599,11.896,9.75c2.667,4.141,4,8.896,4,14.271c0,4.167-0.833,7.833-2.5,11
													c-1.656,3.156-3.932,5.74-6.833,7.75c-2.891,2.016-6.203,3.453-9.938,4.312v0.938c4.125,0.198,7.958,1.365,11.5,3.5
													c3.542,2.125,6.401,5.083,8.583,8.875c2.177,3.781,3.271,8.286,3.271,13.521c0,5.698-1.391,10.786-4.167,15.271
													c-2.781,4.49-6.911,8.016-12.396,10.583c-5.49,2.557-12.286,3.833-20.396,3.833H-60.387z M-38.449-622.981h19.333
													c6.276,0,10.917-1.234,13.917-3.708c3-2.469,4.5-5.792,4.5-9.958c0-3.01-0.724-5.672-2.167-7.979
													c-1.432-2.302-3.495-4.104-6.188-5.396c-2.682-1.292-5.87-1.938-9.563-1.938h-19.833V-622.981z M-38.449-667.356h17.833
													c3.151,0,5.948-0.547,8.396-1.646c2.443-1.094,4.359-2.688,5.75-4.771c1.401-2.094,2.104-4.552,2.104-7.375
													c0-3.984-1.396-7.198-4.188-9.646c-2.781-2.443-6.703-3.667-11.771-3.667h-18.125V-667.356z"/>
											</g>
										</g>
									</g>
									<g>
										<g transform="translate(71.565704, 107.745013)">
											<g>
												<path class="st3" d="M-15.874-712.21v107.125h-21.438V-712.21H-15.874z"/>
											</g>
										</g>
									</g>
									<g>
										<g transform="translate(98.802079, 107.745013)">
											<g>
												<path class="st3" d="M-0.837-603.939c-5.5,0-10.312-1.193-14.438-3.583c-4.125-2.401-7.323-5.865-9.583-10.396
													c-2.25-4.526-3.375-9.927-3.375-16.208v-50.333h21.438v46.521c0,5.031,1.276,8.938,3.833,11.729
													c2.568,2.781,6.109,4.167,10.625,4.167c3.01,0,5.677-0.646,8-1.938c2.333-1.302,4.156-3.214,5.479-5.729
													c1.318-2.51,1.979-5.568,1.979-9.167v-45.583h21.5v79.375h-20.5l-0.292-19.979h1.792
													c-2.198,6.708-5.469,11.911-9.812,15.604C11.476-605.778,5.924-603.939-0.837-603.939z"/>
											</g>
										</g>
									</g>
									<g>
										<g transform="translate(164.540587, 107.745013)">
											<g>
												<path class="st3" d="M29.639-603.502c-8.099,0-15.083-1.672-20.958-5.021c-5.875-3.359-10.411-8.109-13.604-14.25
													c-3.182-6.135-4.771-13.354-4.771-21.646c0-8.193,1.583-15.365,4.75-21.521c3.167-6.167,7.625-10.984,13.375-14.458
													c5.75-3.469,12.484-5.208,20.208-5.208c5.318,0,10.255,0.865,14.812,2.583c4.552,1.724,8.542,4.281,11.958,7.667
													c3.427,3.375,6.089,7.594,7.979,12.646c1.901,5.057,2.854,10.891,2.854,17.5v5.979H-1.132v-13.521h56.938l-9.979,3.521
													c0-4.125-0.656-7.693-1.958-10.708c-1.292-3.026-3.198-5.365-5.708-7.021c-2.516-1.651-5.62-2.479-9.313-2.479
													c-3.698,0-6.833,0.844-9.417,2.521c-2.583,1.682-4.562,3.99-5.937,6.917c-1.365,2.917-2.042,6.266-2.042,10.042v9.5
													c0,4.458,0.76,8.25,2.292,11.375c1.542,3.115,3.714,5.474,6.521,7.083c2.802,1.599,6.073,2.396,9.812,2.396
													c2.542,0,4.854-0.365,6.938-1.104c2.083-0.75,3.854-1.833,5.312-3.25c1.458-1.417,2.573-3.151,3.354-5.208l19.479,2.792
													c-1.25,4.615-3.495,8.635-6.729,12.062c-3.24,3.417-7.286,6.078-12.146,7.979
													C41.42-604.45,35.873-603.502,29.639-603.502z"/>
											</g>
										</g>
									</g>
									<g>
										<g transform="translate(227.36717, 107.745013)">
											<g>
												<path class="st3" d="M62.581-603.585c-10.016,0-18.823-2.234-26.417-6.708c-7.599-4.484-13.521-10.839-17.771-19.062
													c-4.24-8.219-6.354-17.938-6.354-29.146c0-11.552,2.198-21.448,6.604-29.688c4.417-8.25,10.396-14.568,17.938-18.958
													c7.552-4.385,16.083-6.583,25.583-6.583c6.042,0,11.677,0.875,16.917,2.625c5.25,1.75,9.906,4.26,13.979,7.521
													c4.083,3.266,7.427,7.115,10.042,11.542c2.609,4.432,4.276,9.333,5,14.708H85.747c-0.724-2.635-1.771-4.984-3.146-7.042
													c-1.365-2.068-3.031-3.844-5-5.333c-1.958-1.484-4.198-2.609-6.708-3.375c-2.516-0.76-5.307-1.146-8.375-1.146
													c-5.615,0-10.542,1.391-14.792,4.167c-4.24,2.781-7.531,6.823-9.875,12.125c-2.349,5.292-3.521,11.698-3.521,19.208
													c0,7.531,1.156,13.953,3.479,19.271c2.333,5.323,5.63,9.385,9.896,12.188c4.26,2.807,9.297,4.208,15.104,4.208
													c5.125,0,9.552-0.943,13.292-2.833c3.734-1.885,6.594-4.552,8.583-8c2-3.458,3-7.51,3-12.167l4.75,0.646H64.456v-16.688
													h44.646v13.458c0,9.25-2,17.245-6,23.979c-4,6.724-9.5,11.917-16.5,15.583
													C79.602-605.418,71.591-603.585,62.581-603.585z"/>
											</g>
										</g>
									</g>
									<g>
										<g transform="translate(307.773169, 107.745013)">
											<g>
												<path class="st3" d="M41.424-605.085v-79.375h20.792v13.729h0.708c1.443-4.833,3.839-8.484,7.188-10.958
													c3.359-2.469,7.339-3.708,11.938-3.708c1.151,0,2.354,0.052,3.604,0.146c1.25,0.099,2.323,0.245,3.229,0.438v18.979
													c-0.906-0.292-2.26-0.521-4.062-0.688c-1.792-0.167-3.531-0.25-5.208-0.25c-3.167,0-6.036,0.698-8.604,2.083
													c-2.557,1.391-4.557,3.354-6,5.896c-1.432,2.542-2.146,5.536-2.146,8.979v44.729H41.424z"/>
											</g>
										</g>
									</g>
									<g>
										<g transform="translate(347.627718, 107.745013)">
											<g>
												<path class="st3" d="M90.668-603.502c-8.099,0-15.083-1.672-20.958-5.021c-5.875-3.359-10.411-8.109-13.604-14.25
													c-3.182-6.135-4.771-13.354-4.771-21.646c0-8.193,1.583-15.365,4.75-21.521c3.167-6.167,7.625-10.984,13.375-14.458
													c5.75-3.469,12.484-5.208,20.208-5.208c5.318,0,10.255,0.865,14.812,2.583c4.552,1.724,8.542,4.281,11.958,7.667
													c3.427,3.375,6.089,7.594,7.979,12.646c1.901,5.057,2.854,10.891,2.854,17.5v5.979H59.897v-13.521h56.938l-9.979,3.521
													c0-4.125-0.656-7.693-1.958-10.708c-1.292-3.026-3.198-5.365-5.708-7.021c-2.516-1.651-5.62-2.479-9.312-2.479
													c-3.698,0-6.833,0.844-9.417,2.521c-2.583,1.682-4.562,3.99-5.938,6.917c-1.365,2.917-2.042,6.266-2.042,10.042v9.5
													c0,4.458,0.76,8.25,2.292,11.375c1.542,3.115,3.714,5.474,6.521,7.083c2.802,1.599,6.073,2.396,9.813,2.396
													c2.542,0,4.854-0.365,6.938-1.104c2.083-0.75,3.854-1.833,5.312-3.25c1.458-1.417,2.573-3.151,3.354-5.208l19.479,2.792
													c-1.25,4.615-3.495,8.635-6.729,12.062c-3.24,3.417-7.286,6.078-12.146,7.979
													C102.449-604.45,96.902-603.502,90.668-603.502z"/>
											</g>
										</g>
									</g>
									<g>
										<g transform="translate(410.454312, 107.745013)">
											<g>
												<path class="st3" d="M111.61-603.502c-8.099,0-15.083-1.672-20.958-5.021c-5.875-3.359-10.411-8.109-13.604-14.25
													c-3.182-6.135-4.771-13.354-4.771-21.646c0-8.193,1.583-15.365,4.75-21.521c3.167-6.167,7.625-10.984,13.375-14.458
													c5.75-3.469,12.484-5.208,20.208-5.208c5.318,0,10.255,0.865,14.812,2.583c4.552,1.724,8.542,4.281,11.958,7.667
													c3.427,3.375,6.089,7.594,7.979,12.646c1.901,5.057,2.854,10.891,2.854,17.5v5.979H80.839v-13.521h56.937l-9.979,3.521
													c0-4.125-0.656-7.693-1.958-10.708c-1.292-3.026-3.198-5.365-5.708-7.021c-2.516-1.651-5.62-2.479-9.312-2.479
													c-3.698,0-6.833,0.844-9.417,2.521c-2.583,1.682-4.562,3.99-5.938,6.917c-1.365,2.917-2.042,6.266-2.042,10.042v9.5
													c0,4.458,0.76,8.25,2.292,11.375c1.542,3.115,3.714,5.474,6.521,7.083c2.802,1.599,6.073,2.396,9.813,2.396
													c2.542,0,4.854-0.365,6.938-1.104c2.083-0.75,3.854-1.833,5.312-3.25c1.458-1.417,2.573-3.151,3.354-5.208l19.479,2.792
													c-1.25,4.615-3.495,8.635-6.729,12.062c-3.24,3.417-7.286,6.078-12.146,7.979
													C123.391-604.45,117.844-603.502,111.61-603.502z"/>
											</g>
										</g>
									</g>
									<g>
										<g transform="translate(473.280906, 107.745013)">
											<g>
												<path class="st3" d="M118.031-650.668v45.583H96.594v-79.375h20.438l0.271,19.979h-1.792
													c2.151-6.708,5.396-11.901,9.729-15.583c4.344-3.693,9.922-5.542,16.729-5.542c5.51,0,10.333,1.203,14.458,3.604
													c4.125,2.391,7.312,5.844,9.562,10.354c2.25,4.5,3.375,9.911,3.375,16.229v50.333h-21.417v-46.521
													c0-5.026-1.271-8.943-3.812-11.75c-2.542-2.802-6.094-4.208-10.646-4.208c-3.016,0-5.688,0.661-8.021,1.979
													c-2.323,1.323-4.141,3.229-5.458,5.729C118.687-657.366,118.031-654.304,118.031-650.668z"/>
											</g>
										</g>
									</g>
									<g>
										<g transform="translate(539.01938, 107.745013)">
										</g>
									</g>
									<g>
										<g transform="translate(562.534972, 107.745013)">
											<g>
												<path class="st3" d="M166.407-603.502c-8.724,0-16.271-1.344-22.646-4.021c-6.375-2.693-11.328-6.656-14.854-11.896
													c-3.531-5.25-5.365-11.688-5.5-19.312h21.354c0.193,3.641,1.219,6.724,3.083,9.25c1.875,2.516,4.396,4.406,7.562,5.667
													c3.167,1.266,6.781,1.896,10.854,1.896c3.927,0,7.365-0.568,10.312-1.708c2.943-1.151,5.229-2.755,6.854-4.812
													c1.635-2.068,2.458-4.443,2.458-7.125c0-2.443-0.708-4.505-2.125-6.188c-1.417-1.677-3.5-3.115-6.25-4.312
													c-2.75-1.193-6.167-2.25-10.25-3.167l-11.646-2.875c-9.391-2.208-16.661-5.693-21.812-10.458
													c-5.156-4.776-7.729-11.047-7.729-18.812c0-6.469,1.734-12.125,5.208-16.958c3.469-4.844,8.234-8.625,14.292-11.333
													c6.068-2.708,13.031-4.062,20.896-4.062c7.958,0,14.896,1.37,20.812,4.104c5.927,2.74,10.547,6.552,13.854,11.438
													c3.302,4.891,5.026,10.573,5.167,17.042h-21.125c-0.391-4.458-2.25-7.927-5.583-10.417
													c-3.333-2.5-7.76-3.75-13.271-3.75c-3.682,0-6.87,0.542-9.562,1.625c-2.682,1.073-4.729,2.557-6.146,4.458
													c-1.417,1.891-2.125,4.057-2.125,6.5c0,2.542,0.755,4.667,2.271,6.375c1.51,1.698,3.594,3.104,6.25,4.229
													c2.667,1.125,5.651,2.073,8.958,2.833l9.771,2.375c4.75,1.057,9.104,2.458,13.062,4.208
													c3.958,1.75,7.375,3.875,10.25,6.375c2.875,2.49,5.073,5.432,6.604,8.833c1.542,3.406,2.312,7.286,2.312,11.646
													c0,6.573-1.661,12.286-4.979,17.146c-3.307,4.865-8.052,8.615-14.229,11.25
													C182.579-604.825,175.126-603.502,166.407-603.502z"/>
											</g>
										</g>
									</g>
									<g>
										<g transform="translate(632.695306, 107.745013)">
											<g>
												<path class="st3" d="M171.169-650.668v45.583h-21.438V-712.21h21.146v47.729h-2.229
													c2.151-6.708,5.396-11.901,9.729-15.583c4.344-3.693,9.922-5.542,16.729-5.542c5.51,0,10.333,1.203,14.458,3.604
													c4.125,2.391,7.323,5.844,9.604,10.354c2.276,4.5,3.417,9.911,3.417,16.229v50.333h-21.5v-46.521
													c0-5.026-1.271-8.943-3.812-11.75c-2.542-2.802-6.094-4.208-10.646-4.208c-3.016,0-5.688,0.661-8.021,1.979
													c-2.323,1.323-4.141,3.229-5.458,5.729C171.826-657.366,171.169-654.304,171.169-650.668z"/>
											</g>
										</g>
									</g>
									<g>
										<g transform="translate(698.433825, 107.745013)">
											<g>
												<path class="st3" d="M207.603-603.502c-8.099,0-15.083-1.672-20.958-5.021c-5.875-3.359-10.411-8.109-13.604-14.25
													c-3.182-6.135-4.771-13.354-4.771-21.646c0-8.193,1.583-15.365,4.75-21.521c3.167-6.167,7.625-10.984,13.375-14.458
													c5.75-3.469,12.484-5.208,20.208-5.208c5.318,0,10.255,0.865,14.812,2.583c4.552,1.724,8.542,4.281,11.958,7.667
													c3.427,3.375,6.089,7.594,7.979,12.646c1.901,5.057,2.854,10.891,2.854,17.5v5.979h-67.375v-13.521h56.938l-9.979,3.521
													c0-4.125-0.656-7.693-1.958-10.708c-1.292-3.026-3.198-5.365-5.708-7.021c-2.516-1.651-5.62-2.479-9.312-2.479
													c-3.698,0-6.833,0.844-9.417,2.521c-2.583,1.682-4.562,3.99-5.938,6.917c-1.365,2.917-2.042,6.266-2.042,10.042v9.5
													c0,4.458,0.76,8.25,2.292,11.375c1.542,3.115,3.714,5.474,6.521,7.083c2.802,1.599,6.073,2.396,9.812,2.396
													c2.542,0,4.854-0.365,6.938-1.104c2.083-0.75,3.854-1.833,5.312-3.25c1.458-1.417,2.573-3.151,3.354-5.208l19.479,2.792
													c-1.25,4.615-3.495,8.635-6.729,12.062c-3.24,3.417-7.286,6.078-12.146,7.979
													C219.384-604.45,213.837-603.502,207.603-603.502z"/>
											</g>
										</g>
									</g>
									<g>
										<g transform="translate(761.260419, 107.745013)">
											<g>
												<path class="st3" d="M228.545-603.502c-8.099,0-15.083-1.672-20.958-5.021c-5.875-3.359-10.411-8.109-13.604-14.25
													c-3.182-6.135-4.771-13.354-4.771-21.646c0-8.193,1.583-15.365,4.75-21.521c3.167-6.167,7.625-10.984,13.375-14.458
													c5.75-3.469,12.484-5.208,20.208-5.208c5.318,0,10.255,0.865,14.812,2.583c4.552,1.724,8.542,4.281,11.958,7.667
													c3.427,3.375,6.089,7.594,7.979,12.646c1.901,5.057,2.854,10.891,2.854,17.5v5.979h-67.375v-13.521h56.938l-9.979,3.521
													c0-4.125-0.656-7.693-1.958-10.708c-1.292-3.026-3.198-5.365-5.708-7.021c-2.516-1.651-5.62-2.479-9.312-2.479
													c-3.698,0-6.833,0.844-9.417,2.521c-2.583,1.682-4.562,3.99-5.938,6.917c-1.365,2.917-2.042,6.266-2.042,10.042v9.5
													c0,4.458,0.76,8.25,2.292,11.375c1.542,3.115,3.714,5.474,6.521,7.083c2.802,1.599,6.073,2.396,9.812,2.396
													c2.542,0,4.854-0.365,6.938-1.104c2.083-0.75,3.854-1.833,5.312-3.25c1.458-1.417,2.573-3.151,3.354-5.208l19.479,2.792
													c-1.25,4.615-3.495,8.635-6.729,12.062c-3.24,3.417-7.286,6.078-12.146,7.979
													C240.326-604.45,234.78-603.502,228.545-603.502z"/>
											</g>
										</g>
									</g>
									<g>
										<g transform="translate(824.087013, 107.745013)">
											<g>
												<path class="st3" d="M254.237-684.46v16.458h-48.167v-16.458H254.237z M217.633-703.939h21.438v75.333
													c0,2.542,0.562,4.406,1.688,5.583c1.125,1.167,3.005,1.75,5.646,1.75c0.958,0,2.188-0.083,3.688-0.25
													c1.51-0.167,2.677-0.318,3.5-0.458l2.375,16.312c-2.167,0.531-4.427,0.896-6.771,1.104
													c-2.349,0.219-4.625,0.333-6.833,0.333c-8.141,0-14.302-1.875-18.479-5.625c-4.167-3.76-6.25-9.271-6.25-16.521
													V-703.939z"/>
											</g>
										</g>
									</g>
								</g>
							</g>
						</g>
					</g>
				</g>
				<g>
					<defs>
						
							<rect id="SVGID_00000103953313739246741320000010348461469434373291_" x="124.667" y="-513" width="1207.573" height="98.667"/>
					</defs>
					<clipPath id="SVGID_00000107550616917196481380000011970640392383314572_">
						<use xlink:href="#SVGID_00000103953313739246741320000010348461469434373291_"  style="overflow:visible;"/>
					</clipPath>
					<g style="clip-path:url(#SVGID_00000107550616917196481380000011970640392383314572_);">
						<path class="st5" d="M171.406-465.474l1156.172,3.406"/>
					</g>
				</g>
				<g>
					<g transform="translate(255.06041, 187.217852)">
						<g>
							<path class="st3" d="M-61.667-578.594v-34.292h6.146v29.083h15.312v5.208H-61.667z"/>
						</g>
					</g>
				</g>
				<g>
					<g transform="translate(274.924475, 187.217852)">
						<g>
							<path class="st3" d="M-44.088-578.073c-2.542,0-4.745-0.542-6.604-1.625c-1.849-1.083-3.271-2.604-4.271-4.562
								c-0.99-1.969-1.479-4.276-1.479-6.917c0-2.594,0.49-4.885,1.479-6.875c0.984-1.984,2.38-3.531,4.188-4.646
								c1.802-1.125,3.906-1.688,6.312-1.688c1.609,0,3.125,0.271,4.542,0.812c1.427,0.531,2.688,1.328,3.771,2.396
								c1.083,1.057,1.927,2.396,2.542,4.021c0.609,1.615,0.917,3.51,0.917,5.688v1.812h-21.042v-4.062h18.083l-2.771,1.167
								c0-1.427-0.229-2.677-0.688-3.75c-0.458-1.083-1.135-1.917-2.021-2.5c-0.875-0.594-1.969-0.896-3.271-0.896
								c-1.292,0-2.406,0.302-3.333,0.896c-0.917,0.599-1.62,1.417-2.104,2.458c-0.474,1.031-0.708,2.188-0.708,3.479v2.729
								c0,1.583,0.26,2.932,0.792,4.042c0.542,1.099,1.302,1.932,2.292,2.5c0.984,0.573,2.146,0.854,3.479,0.854
								c0.885,0,1.688-0.125,2.396-0.375c0.719-0.26,1.339-0.646,1.854-1.146c0.51-0.5,0.901-1.109,1.167-1.833l5.479,0.875
								c-0.375,1.432-1.073,2.682-2.083,3.75c-1,1.073-2.266,1.906-3.792,2.5C-40.478-578.375-42.187-578.073-44.088-578.073z"/>
						</g>
					</g>
				</g>
				<g>
					<g transform="translate(295.858625, 187.217852)">
						<g>
							<path class="st3" d="M-41.089-578.094c-1.625,0-3.094-0.292-4.396-0.875c-1.292-0.583-2.312-1.438-3.062-2.562
								c-0.75-1.135-1.125-2.547-1.125-4.229c0-1.443,0.26-2.63,0.792-3.562c0.542-0.927,1.276-1.672,2.208-2.229
								c0.927-0.568,1.979-1,3.146-1.292c1.167-0.292,2.365-0.5,3.604-0.625c1.51-0.167,2.729-0.312,3.646-0.438
								c0.917-0.125,1.583-0.318,2-0.583c0.427-0.276,0.646-0.698,0.646-1.271v-0.146c0-0.818-0.177-1.51-0.521-2.083
								c-0.349-0.568-0.854-1.005-1.521-1.312c-0.656-0.318-1.474-0.479-2.458-0.479c-0.958,0-1.807,0.156-2.542,0.458
								c-0.724,0.307-1.312,0.708-1.771,1.208c-0.448,0.49-0.766,1.031-0.958,1.625l-5.542-0.875
								c0.417-1.542,1.13-2.823,2.146-3.854c1.026-1.042,2.276-1.823,3.75-2.354c1.484-0.542,3.135-0.812,4.958-0.812
								c1.276,0,2.531,0.161,3.771,0.479c1.234,0.307,2.354,0.802,3.354,1.479c1,0.682,1.792,1.578,2.375,2.688
								c0.594,1.115,0.896,2.474,0.896,4.083v17.062h-5.729v-3.521h-0.208c-0.375,0.724-0.896,1.391-1.562,2
								c-0.656,0.615-1.469,1.104-2.438,1.479C-38.604-578.276-39.755-578.094-41.089-578.094z M-39.568-582.511
								c1.219,0,2.281-0.234,3.188-0.708c0.901-0.484,1.589-1.125,2.062-1.917c0.484-0.802,0.729-1.688,0.729-2.646v-2.938
								c-0.198,0.156-0.516,0.302-0.958,0.438c-0.432,0.125-0.932,0.24-1.5,0.333c-0.557,0.099-1.12,0.188-1.688,0.271
								c-0.557,0.083-1.042,0.146-1.458,0.188c-0.875,0.125-1.677,0.333-2.396,0.625c-0.708,0.281-1.271,0.661-1.688,1.146
								c-0.417,0.49-0.625,1.12-0.625,1.896c0,0.724,0.177,1.333,0.542,1.833c0.375,0.49,0.88,0.854,1.521,1.104
								C-41.188-582.636-40.433-582.511-39.568-582.511z"/>
						</g>
					</g>
				</g>
				<g>
					<g transform="translate(315.89527, 187.217852)">
						<g>
							<path class="st3" d="M-32.202-578.115c-2.042,0-3.865-0.521-5.458-1.562c-1.599-1.052-2.854-2.562-3.771-4.521
								c-0.906-1.958-1.354-4.312-1.354-7.062c0-2.792,0.458-5.156,1.375-7.104c0.927-1.958,2.193-3.448,3.792-4.479
								c1.594-1.026,3.396-1.542,5.396-1.542c1.427,0,2.625,0.24,3.583,0.708c0.958,0.458,1.74,1.031,2.354,1.708
								c0.609,0.682,1.083,1.365,1.417,2.042h0.208v-12.958h5.958v34.292h-5.833v-4h-0.292c-0.365,0.708-0.854,1.406-1.479,2.083
								c-0.615,0.682-1.396,1.25-2.354,1.708C-29.618-578.344-30.8-578.115-32.202-578.115z M-30.639-583.032
								c1.302,0,2.417-0.344,3.333-1.042c0.917-0.693,1.609-1.656,2.083-2.896c0.484-1.234,0.729-2.672,0.729-4.312
								c0-1.651-0.24-3.089-0.708-4.312c-0.474-1.234-1.177-2.188-2.104-2.854c-0.917-0.677-2.031-1.021-3.333-1.021
								c-1.307,0-2.411,0.349-3.312,1.042c-0.906,0.682-1.594,1.641-2.062,2.875c-0.474,1.224-0.708,2.646-0.708,4.271
								c0,1.615,0.234,3.042,0.708,4.292c0.469,1.24,1.156,2.208,2.062,2.917C-33.035-583.375-31.931-583.032-30.639-583.032z"/>
						</g>
					</g>
				</g>
				<g>
					<g transform="translate(337.657724, 187.217852)">
						<g>
							<path class="st3" d="M-23.177-578.073c-2.542,0-4.745-0.542-6.604-1.625c-1.849-1.083-3.271-2.604-4.271-4.562
								c-0.99-1.969-1.479-4.276-1.479-6.917c0-2.594,0.49-4.885,1.479-6.875c0.984-1.984,2.38-3.531,4.188-4.646
								c1.802-1.125,3.906-1.688,6.312-1.688c1.609,0,3.125,0.271,4.542,0.812c1.427,0.531,2.688,1.328,3.771,2.396
								c1.083,1.057,1.927,2.396,2.542,4.021c0.609,1.615,0.917,3.51,0.917,5.688v1.812h-21.042v-4.062h18.083l-2.771,1.167
								c0-1.427-0.229-2.677-0.688-3.75c-0.458-1.083-1.135-1.917-2.021-2.5c-0.875-0.594-1.969-0.896-3.271-0.896
								c-1.292,0-2.406,0.302-3.333,0.896c-0.917,0.599-1.62,1.417-2.104,2.458c-0.474,1.031-0.708,2.188-0.708,3.479v2.729
								c0,1.583,0.26,2.932,0.792,4.042c0.542,1.099,1.302,1.932,2.292,2.5c0.984,0.573,2.146,0.854,3.479,0.854
								c0.885,0,1.688-0.125,2.396-0.375c0.719-0.26,1.339-0.646,1.854-1.146c0.51-0.5,0.901-1.109,1.167-1.833l5.479,0.875
								c-0.375,1.432-1.073,2.682-2.083,3.75c-1,1.073-2.266,1.906-3.792,2.5C-19.567-578.375-21.276-578.073-23.177-578.073z"/>
						</g>
					</g>
				</g>
				<g>
					<g transform="translate(358.263886, 187.217852)">
						<g>
							<path class="st3" d="M-27.537-578.594v-25.417h5.75v4.229h0.229c0.458-1.469,1.234-2.594,2.333-3.375
								c1.109-0.776,2.422-1.167,3.938-1.167c0.344,0,0.714,0.016,1.104,0.042c0.385,0.016,0.719,0.042,1,0.083v5.438
								c-0.24-0.052-0.635-0.109-1.188-0.167c-0.542-0.068-1.078-0.104-1.604-0.104c-1.073,0-2.031,0.229-2.875,0.688
								c-0.849,0.458-1.521,1.115-2.021,1.958c-0.49,0.833-0.729,1.823-0.729,2.958v14.833H-27.537z"/>
						</g>
					</g>
				</g>
				<g>
					<g transform="translate(371.966811, 187.217852)">
						<g>
							<path class="st3" d="M-13.282-578.073c-1.958,0-3.708-0.286-5.25-0.854c-1.531-0.568-2.781-1.406-3.75-2.521
								c-0.974-1.125-1.583-2.484-1.833-4.083l5.625-0.812c0.292,1.25,0.88,2.188,1.771,2.812c0.901,0.625,2.068,0.938,3.5,0.938
								c1.458,0,2.609-0.292,3.458-0.875c0.859-0.583,1.292-1.302,1.292-2.167c0-0.734-0.292-1.339-0.875-1.812
								c-0.573-0.484-1.427-0.844-2.562-1.083l-4.313-0.938c-2.417-0.51-4.224-1.365-5.417-2.562
								c-1.198-1.193-1.792-2.729-1.792-4.604c0-1.568,0.427-2.927,1.292-4.083c0.859-1.167,2.052-2.068,3.583-2.708
								c1.542-0.635,3.323-0.958,5.354-0.958c1.958,0,3.646,0.292,5.062,0.875c1.417,0.573,2.552,1.375,3.417,2.417
								c0.875,1.031,1.448,2.25,1.729,3.667l-5.354,0.812c-0.24-0.917-0.75-1.693-1.542-2.333c-0.781-0.651-1.849-0.979-3.208-0.979
								c-1.281,0-2.333,0.281-3.167,0.833c-0.823,0.557-1.229,1.266-1.229,2.125c0,0.75,0.281,1.37,0.854,1.854
								c0.568,0.474,1.469,0.849,2.708,1.125l4.375,0.917c2.427,0.531,4.229,1.365,5.396,2.5c1.177,1.125,1.771,2.583,1.771,4.375
								c0,1.625-0.469,3.052-1.396,4.271c-0.932,1.208-2.219,2.156-3.854,2.833C-9.261-578.417-11.146-578.073-13.282-578.073z"/>
						</g>
					</g>
				</g>
				<g>
					<g transform="translate(391.037003, 187.217852)">
						<g>
							<path class="st3" d="M-10.675-593.365v14.771h-5.938v-34.292h5.896v15.188h-0.771c0.719-2.208,1.781-3.875,3.188-5
								c1.401-1.125,3.156-1.688,5.271-1.688c1.75,0,3.281,0.385,4.604,1.146c1.318,0.75,2.344,1.849,3.083,3.292
								c0.734,1.432,1.104,3.188,1.104,5.271v16.083h-5.958v-15.167c0-1.75-0.448-3.104-1.333-4.062
								c-0.875-0.969-2.104-1.458-3.688-1.458c-1.042,0-1.979,0.229-2.813,0.688c-0.823,0.448-1.469,1.104-1.938,1.979
								C-10.441-595.74-10.675-594.657-10.675-593.365z"/>
						</g>
					</g>
				</g>
				<g>
					<g transform="translate(412.368005, 187.217852)">
						<g>
							<path class="st3" d="M-9.502-578.594v-25.417h5.938v25.417H-9.502z M-6.523-607.636c-0.974,0-1.802-0.318-2.479-0.958
								c-0.667-0.651-1-1.427-1-2.333c0-0.927,0.333-1.708,1-2.333c0.677-0.625,1.505-0.938,2.479-0.938
								c0.958,0,1.776,0.312,2.458,0.938c0.693,0.625,1.042,1.406,1.042,2.333c0,0.906-0.349,1.682-1.042,2.333
								C-4.747-607.953-5.565-607.636-6.523-607.636z"/>
						</g>
					</g>
				</g>
				<g>
					<g transform="translate(421.376729, 187.217852)">
						<g>
							<path class="st3" d="M-6.499-568.969v-35.042h5.813v4.083h0.333c0.344-0.677,0.823-1.359,1.438-2.042
								c0.609-0.677,1.396-1.25,2.354-1.708c0.958-0.469,2.146-0.708,3.562-0.708c2.01,0,3.813,0.516,5.396,1.542
								c1.594,1.031,2.859,2.521,3.792,4.479c0.927,1.948,1.396,4.312,1.396,7.104c0,2.75-0.458,5.104-1.375,7.062
								c-0.906,1.958-2.156,3.469-3.75,4.521c-1.599,1.042-3.427,1.562-5.479,1.562c-1.375,0-2.542-0.229-3.5-0.688
								s-1.75-1.026-2.375-1.708c-0.615-0.677-1.094-1.365-1.438-2.062h-0.229v13.604H-6.499z M5.417-583.032
								c1.302,0,2.406-0.344,3.312-1.042c0.917-0.708,1.609-1.677,2.083-2.917c0.469-1.25,0.708-2.677,0.708-4.292
								c0-1.625-0.24-3.047-0.708-4.271c-0.458-1.234-1.146-2.193-2.062-2.875c-0.906-0.693-2.016-1.042-3.333-1.042
								c-1.307,0-2.417,0.344-3.333,1.021c-0.906,0.667-1.599,1.62-2.083,2.854c-0.49,1.224-0.729,2.661-0.729,4.312
								c0,1.641,0.24,3.078,0.729,4.312c0.484,1.24,1.188,2.203,2.104,2.896C3.021-583.375,4.126-583.032,5.417-583.032z"/>
						</g>
					</g>
				</g>
				<g>
					<g transform="translate(443.139184, 187.217852)">
					</g>
				</g>
				<g>
					<g transform="translate(451.837262, 187.217852)">
						<g>
							<path class="st3" d="M18.633-578.115c-3,0-5.698-0.698-8.083-2.104c-2.391-1.417-4.281-3.438-5.667-6.062
								c-1.375-2.635-2.062-5.781-2.062-9.438c0-3.677,0.688-6.833,2.062-9.458c1.385-2.635,3.276-4.667,5.667-6.083
								c2.385-1.417,5.083-2.125,8.083-2.125c3.01,0,5.708,0.708,8.083,2.125c2.375,1.417,4.25,3.448,5.625,6.083
								c1.375,2.625,2.062,5.781,2.062,9.458c0,3.656-0.688,6.802-2.062,9.438c-1.375,2.625-3.25,4.646-5.625,6.062
								C24.342-578.813,21.644-578.115,18.633-578.115z M18.633-583.615c1.859,0,3.51-0.464,4.958-1.396
								c1.458-0.927,2.594-2.292,3.417-4.083c0.818-1.802,1.229-4.01,1.229-6.625c0-2.625-0.411-4.839-1.229-6.646
								c-0.823-1.818-1.958-3.193-3.417-4.125c-1.448-0.927-3.099-1.396-4.958-1.396c-1.875,0-3.536,0.474-4.979,1.417
								c-1.448,0.932-2.583,2.302-3.417,4.104c-0.833,1.807-1.25,4.021-1.25,6.646c0,2.615,0.417,4.812,1.25,6.604
								s1.969,3.161,3.417,4.104C15.097-584.078,16.758-583.615,18.633-583.615z"/>
						</g>
					</g>
				</g>
				<g>
					<g transform="translate(478.846187, 187.217852)">
						<g>
							<path class="st3" d="M12.657-568.969v-35.042h5.813v4.083h0.333c0.344-0.677,0.823-1.359,1.438-2.042
								c0.609-0.677,1.396-1.25,2.354-1.708c0.958-0.469,2.146-0.708,3.562-0.708c2.01,0,3.812,0.516,5.396,1.542
								c1.594,1.031,2.859,2.521,3.792,4.479c0.927,1.948,1.396,4.312,1.396,7.104c0,2.75-0.458,5.104-1.375,7.062
								c-0.906,1.958-2.156,3.469-3.75,4.521c-1.599,1.042-3.427,1.562-5.479,1.562c-1.375,0-2.542-0.229-3.5-0.688
								s-1.75-1.026-2.375-1.708c-0.615-0.677-1.094-1.365-1.438-2.062h-0.229v13.604H12.657z M24.574-583.032
								c1.302,0,2.406-0.344,3.312-1.042c0.917-0.708,1.609-1.677,2.083-2.917c0.469-1.25,0.708-2.677,0.708-4.292
								c0-1.625-0.24-3.047-0.708-4.271c-0.458-1.234-1.146-2.193-2.062-2.875c-0.906-0.693-2.016-1.042-3.333-1.042
								c-1.307,0-2.417,0.344-3.333,1.021c-0.906,0.667-1.599,1.62-2.083,2.854c-0.49,1.224-0.729,2.661-0.729,4.312
								c0,1.641,0.24,3.078,0.729,4.312c0.484,1.24,1.188,2.203,2.104,2.896C22.178-583.375,23.282-583.032,24.574-583.032z"/>
						</g>
					</g>
				</g>
				<g>
					<g transform="translate(500.608631, 187.217852)">
						<g>
							<path class="st3" d="M19.911-568.969v-35.042h5.812v4.083h0.333c0.344-0.677,0.823-1.359,1.438-2.042
								c0.609-0.677,1.396-1.25,2.354-1.708c0.958-0.469,2.146-0.708,3.563-0.708c2.01,0,3.812,0.516,5.396,1.542
								c1.594,1.031,2.859,2.521,3.792,4.479c0.927,1.948,1.396,4.312,1.396,7.104c0,2.75-0.458,5.104-1.375,7.062
								c-0.906,1.958-2.156,3.469-3.75,4.521c-1.599,1.042-3.427,1.562-5.479,1.562c-1.375,0-2.542-0.229-3.5-0.688
								c-0.958-0.458-1.75-1.026-2.375-1.708c-0.615-0.677-1.094-1.365-1.438-2.062h-0.229v13.604H19.911z M31.828-583.032
								c1.302,0,2.406-0.344,3.312-1.042c0.917-0.708,1.609-1.677,2.083-2.917c0.469-1.25,0.708-2.677,0.708-4.292
								c0-1.625-0.24-3.047-0.708-4.271c-0.458-1.234-1.146-2.193-2.062-2.875c-0.906-0.693-2.016-1.042-3.333-1.042
								c-1.307,0-2.417,0.344-3.333,1.021c-0.906,0.667-1.599,1.62-2.083,2.854c-0.49,1.224-0.729,2.661-0.729,4.312
								c0,1.641,0.24,3.078,0.729,4.312c0.484,1.24,1.188,2.203,2.104,2.896C29.432-583.375,30.536-583.032,31.828-583.032z"/>
						</g>
					</g>
				</g>
				<g>
					<g transform="translate(522.371076, 187.217852)">
						<g>
							<path class="st3" d="M38.249-578.073c-2.458,0-4.615-0.547-6.458-1.646c-1.833-1.094-3.25-2.63-4.25-4.604
								c-1-1.969-1.5-4.271-1.5-6.896c0-2.609,0.5-4.906,1.5-6.896c1-1.984,2.417-3.526,4.25-4.625c1.844-1.094,4-1.646,6.458-1.646
								c2.484,0,4.646,0.552,6.479,1.646c1.844,1.099,3.271,2.641,4.271,4.625c1,1.99,1.5,4.286,1.5,6.896
								c0,2.625-0.5,4.927-1.5,6.896c-1,1.974-2.427,3.51-4.271,4.604C42.895-578.62,40.733-578.073,38.249-578.073z
								 M38.249-582.927c1.375,0,2.521-0.359,3.438-1.083c0.917-0.734,1.609-1.729,2.083-2.979c0.469-1.25,0.708-2.656,0.708-4.229
								c0-1.583-0.24-3-0.708-4.25c-0.474-1.26-1.167-2.25-2.083-2.958c-0.917-0.719-2.062-1.083-3.438-1.083
								c-1.349,0-2.479,0.365-3.396,1.083c-0.917,0.708-1.615,1.698-2.083,2.958c-0.458,1.25-0.688,2.667-0.688,4.25
								c0,1.573,0.229,2.979,0.688,4.229c0.469,1.25,1.167,2.245,2.083,2.979C35.77-583.287,36.9-582.927,38.249-582.927z"/>
						</g>
					</g>
				</g>
				<g>
					<g transform="translate(543.581281, 187.217852)">
						<g>
							<path class="st3" d="M34.235-578.594v-25.417h5.75v4.229h0.229c0.458-1.469,1.234-2.594,2.333-3.375
								c1.109-0.776,2.422-1.167,3.938-1.167c0.344,0,0.714,0.016,1.104,0.042c0.385,0.016,0.719,0.042,1,0.083v5.438
								c-0.24-0.052-0.635-0.109-1.188-0.167c-0.542-0.068-1.078-0.104-1.604-0.104c-1.073,0-2.031,0.229-2.875,0.688
								c-0.849,0.458-1.521,1.115-2.021,1.958c-0.49,0.833-0.729,1.823-0.729,2.958v14.833H34.235z"/>
						</g>
					</g>
				</g>
				<g>
					<g transform="translate(557.922913, 187.217852)">
						<g>
							<path class="st3" d="M51.12-604.011v4.667H36.412v-4.667H51.12z M40.203-610.24h5.938v24.458
								c0,0.906,0.193,1.562,0.583,1.979c0.401,0.417,1.062,0.625,1.979,0.625c0.292,0,0.667-0.021,1.125-0.062
								c0.458-0.052,0.823-0.104,1.104-0.146l0.75,4.625c-0.599,0.156-1.24,0.26-1.917,0.333c-0.682,0.068-1.344,0.104-1.979,0.104
								c-2.474,0-4.354-0.589-5.646-1.771c-1.292-1.177-1.938-2.88-1.938-5.104V-610.24z"/>
						</g>
					</g>
				</g>
				<g>
					<g transform="translate(570.383277, 187.217852)">
						<g>
							<path class="st3" d="M51.961-578.219c-1.75,0-3.286-0.375-4.604-1.125c-1.323-0.76-2.349-1.859-3.083-3.292
								c-0.74-1.443-1.104-3.208-1.104-5.292v-16.083h5.938v15.167c0,1.75,0.443,3.115,1.333,4.083
								c0.885,0.958,2.115,1.438,3.688,1.438c1.052,0,1.99-0.219,2.812-0.667c0.818-0.458,1.464-1.13,1.938-2.021
								c0.469-0.885,0.708-1.964,0.708-3.229v-14.771h5.958v25.417h-5.708l-0.042-6.333h0.583c-0.724,2.224-1.792,3.896-3.208,5.021
								C55.763-578.782,54.029-578.219,51.961-578.219z"/>
						</g>
					</g>
				</g>
				<g>
					<g transform="translate(591.714279, 187.217852)">
						<g>
							<path class="st3" d="M56.217-593.365v14.771H50.28v-25.417h5.688l0.062,6.312h-0.625c0.719-2.208,1.781-3.875,3.188-5
								c1.401-1.125,3.156-1.688,5.271-1.688c1.75,0,3.281,0.385,4.604,1.146c1.318,0.75,2.339,1.849,3.062,3.292
								c0.734,1.432,1.104,3.188,1.104,5.271v16.083h-5.938v-15.167c0-1.75-0.448-3.104-1.333-4.062
								c-0.875-0.969-2.104-1.458-3.688-1.458c-1.042,0-1.979,0.229-2.812,0.688c-0.823,0.448-1.469,1.104-1.938,1.979
								C56.452-595.74,56.217-594.657,56.217-593.365z"/>
						</g>
					</g>
				</g>
				<g>
					<g transform="translate(613.028034, 187.217852)">
						<g>
							<path class="st3" d="M57.384-578.594v-25.417h5.938v25.417H57.384z M60.364-607.636c-0.974,0-1.802-0.318-2.479-0.958
								c-0.667-0.651-1-1.427-1-2.333c0-0.927,0.333-1.708,1-2.333c0.677-0.625,1.505-0.938,2.479-0.938
								c0.958,0,1.776,0.312,2.458,0.938c0.693,0.625,1.042,1.406,1.042,2.333c0,0.906-0.349,1.682-1.042,2.333
								C62.14-607.953,61.322-607.636,60.364-607.636z"/>
						</g>
					</g>
				</g>
				<g>
					<g transform="translate(622.105811, 187.217852)">
						<g>
							<path class="st3" d="M72.514-604.011v4.667H57.806v-4.667H72.514z M61.598-610.24h5.937v24.458
								c0,0.906,0.193,1.562,0.583,1.979c0.401,0.417,1.062,0.625,1.979,0.625c0.292,0,0.667-0.021,1.125-0.062
								c0.458-0.052,0.823-0.104,1.104-0.146l0.75,4.625c-0.599,0.156-1.24,0.26-1.917,0.333c-0.682,0.068-1.344,0.104-1.979,0.104
								c-2.474,0-4.354-0.589-5.646-1.771c-1.292-1.177-1.938-2.88-1.938-5.104V-610.24z"/>
						</g>
					</g>
				</g>
				<g>
					<g transform="translate(634.566133, 187.217852)">
						<g>
							<path class="st3" d="M64.564-578.594v-25.417h5.938v25.417H64.564z M67.543-607.636c-0.974,0-1.802-0.318-2.479-0.958
								c-0.667-0.651-1-1.427-1-2.333c0-0.927,0.333-1.708,1-2.333c0.677-0.625,1.505-0.938,2.479-0.938
								c0.958,0,1.776,0.312,2.458,0.938c0.693,0.625,1.042,1.406,1.042,2.333c0,0.906-0.349,1.682-1.042,2.333
								C69.319-607.953,68.501-607.636,67.543-607.636z"/>
						</g>
					</g>
				</g>
				<g>
					<g transform="translate(643.574837, 187.217852)">
						<g>
							<path class="st3" d="M78.796-578.073c-2.542,0-4.745-0.542-6.604-1.625c-1.849-1.083-3.271-2.604-4.271-4.562
								c-0.99-1.969-1.479-4.276-1.479-6.917c0-2.594,0.49-4.885,1.479-6.875c0.984-1.984,2.38-3.531,4.188-4.646
								c1.802-1.125,3.906-1.688,6.312-1.688c1.609,0,3.125,0.271,4.542,0.812c1.427,0.531,2.688,1.328,3.771,2.396
								c1.083,1.057,1.927,2.396,2.542,4.021c0.609,1.615,0.917,3.51,0.917,5.688v1.812H69.15v-4.062h18.083l-2.771,1.167
								c0-1.427-0.229-2.677-0.688-3.75c-0.458-1.083-1.135-1.917-2.021-2.5c-0.875-0.594-1.969-0.896-3.271-0.896
								c-1.292,0-2.406,0.302-3.333,0.896c-0.917,0.599-1.62,1.417-2.104,2.458c-0.474,1.031-0.708,2.188-0.708,3.479v2.729
								c0,1.583,0.26,2.932,0.792,4.042c0.542,1.099,1.302,1.932,2.292,2.5c0.984,0.573,2.146,0.854,3.479,0.854
								c0.885,0,1.688-0.125,2.396-0.375c0.719-0.26,1.339-0.646,1.854-1.146c0.51-0.5,0.901-1.109,1.167-1.833l5.479,0.875
								c-0.375,1.432-1.073,2.682-2.083,3.75c-1,1.073-2.266,1.906-3.792,2.5C82.405-578.375,80.697-578.073,78.796-578.073z"/>
						</g>
					</g>
				</g>
				<g>
					<g transform="translate(664.18102, 187.217852)">
						<g>
							<path class="st3" d="M84.123-578.073c-1.958,0-3.708-0.286-5.25-0.854c-1.531-0.568-2.781-1.406-3.75-2.521
								c-0.974-1.125-1.583-2.484-1.833-4.083l5.625-0.812c0.292,1.25,0.88,2.188,1.771,2.812c0.901,0.625,2.068,0.938,3.5,0.938
								c1.458,0,2.609-0.292,3.458-0.875c0.859-0.583,1.292-1.302,1.292-2.167c0-0.734-0.292-1.339-0.875-1.812
								c-0.573-0.484-1.427-0.844-2.562-1.083l-4.312-0.938c-2.417-0.51-4.224-1.365-5.417-2.562
								c-1.198-1.193-1.792-2.729-1.792-4.604c0-1.568,0.427-2.927,1.292-4.083c0.859-1.167,2.052-2.068,3.583-2.708
								c1.542-0.635,3.323-0.958,5.354-0.958c1.958,0,3.646,0.292,5.062,0.875c1.417,0.573,2.552,1.375,3.417,2.417
								c0.875,1.031,1.448,2.25,1.729,3.667l-5.354,0.812c-0.24-0.917-0.75-1.693-1.542-2.333c-0.781-0.651-1.849-0.979-3.208-0.979
								c-1.281,0-2.333,0.281-3.167,0.833c-0.823,0.557-1.229,1.266-1.229,2.125c0,0.75,0.281,1.37,0.854,1.854
								c0.568,0.474,1.469,0.849,2.708,1.125l4.375,0.917c2.427,0.531,4.229,1.365,5.396,2.5c1.177,1.125,1.771,2.583,1.771,4.375
								c0,1.625-0.469,3.052-1.396,4.271c-0.932,1.208-2.219,2.156-3.854,2.833C88.144-578.417,86.258-578.073,84.123-578.073z"/>
						</g>
					</g>
				</g>
				<g>
					<g transform="translate(683.251201, 187.217852)">
					</g>
				</g>
				<g>
					<g transform="translate(691.94928, 187.217852)">
						<g>
							<path class="st3" d="M90.942-578.094c-1.625,0-3.094-0.292-4.396-0.875c-1.292-0.583-2.312-1.438-3.062-2.562
								c-0.75-1.135-1.125-2.547-1.125-4.229c0-1.443,0.26-2.63,0.792-3.562c0.542-0.927,1.276-1.672,2.208-2.229
								c0.927-0.568,1.979-1,3.146-1.292c1.167-0.292,2.365-0.5,3.604-0.625c1.51-0.167,2.729-0.312,3.646-0.438
								c0.917-0.125,1.583-0.318,2-0.583c0.427-0.276,0.646-0.698,0.646-1.271v-0.146c0-0.818-0.177-1.51-0.521-2.083
								c-0.349-0.568-0.854-1.005-1.521-1.312c-0.656-0.318-1.474-0.479-2.458-0.479c-0.958,0-1.807,0.156-2.542,0.458
								c-0.724,0.307-1.312,0.708-1.771,1.208c-0.448,0.49-0.766,1.031-0.958,1.625l-5.542-0.875
								c0.417-1.542,1.13-2.823,2.146-3.854c1.026-1.042,2.276-1.823,3.75-2.354c1.484-0.542,3.135-0.812,4.958-0.812
								c1.276,0,2.531,0.161,3.771,0.479c1.234,0.307,2.354,0.802,3.354,1.479c1,0.682,1.792,1.578,2.375,2.688
								c0.594,1.115,0.896,2.474,0.896,4.083v17.062h-5.729v-3.521H98.4c-0.375,0.724-0.896,1.391-1.562,2
								c-0.656,0.615-1.469,1.104-2.438,1.479C93.426-578.276,92.275-578.094,90.942-578.094z M92.462-582.511
								c1.219,0,2.281-0.234,3.188-0.708c0.901-0.484,1.589-1.125,2.062-1.917c0.484-0.802,0.729-1.688,0.729-2.646v-2.938
								c-0.198,0.156-0.516,0.302-0.958,0.438c-0.432,0.125-0.932,0.24-1.5,0.333c-0.557,0.099-1.12,0.188-1.688,0.271
								c-0.557,0.083-1.042,0.146-1.458,0.188c-0.875,0.125-1.677,0.333-2.396,0.625c-0.708,0.281-1.271,0.661-1.688,1.146
								c-0.417,0.49-0.625,1.12-0.625,1.896c0,0.724,0.177,1.333,0.542,1.833c0.375,0.49,0.88,0.854,1.521,1.104
								C90.843-582.636,91.598-582.511,92.462-582.511z"/>
						</g>
					</g>
				</g>
				<g>
					<g transform="translate(711.985957, 187.217852)">
						<g>
							<path class="st3" d="M102.475-604.011v4.667H87.766v-4.667H102.475z M91.558-610.24h5.938v24.458
								c0,0.906,0.193,1.562,0.583,1.979c0.401,0.417,1.062,0.625,1.979,0.625c0.292,0,0.667-0.021,1.125-0.062
								c0.458-0.052,0.823-0.104,1.104-0.146l0.75,4.625c-0.599,0.156-1.24,0.26-1.917,0.333c-0.682,0.068-1.344,0.104-1.979,0.104
								c-2.474,0-4.354-0.589-5.646-1.771c-1.292-1.177-1.938-2.88-1.938-5.104V-610.24z"/>
						</g>
					</g>
				</g>
				<g>
					<g transform="translate(724.446279, 187.217852)">
					</g>
				</g>
				<g>
					<g transform="translate(733.144357, 187.217852)">
						<g>
							<path class="st3" d="M103.84-612.886v34.292h-6.146v-34.292H103.84z"/>
						</g>
					</g>
				</g>
				<g>
					<g transform="translate(742.705319, 187.217852)">
						<g>
							<path class="st3" d="M106.548-593.365v14.771h-5.938v-25.417h5.688l0.062,6.312h-0.625c0.719-2.208,1.781-3.875,3.188-5
								c1.401-1.125,3.156-1.688,5.271-1.688c1.75,0,3.281,0.385,4.604,1.146c1.318,0.75,2.339,1.849,3.062,3.292
								c0.734,1.432,1.104,3.188,1.104,5.271v16.083h-5.938v-15.167c0-1.75-0.448-3.104-1.333-4.062
								c-0.875-0.969-2.104-1.458-3.688-1.458c-1.042,0-1.979,0.229-2.812,0.688c-0.823,0.448-1.469,1.104-1.938,1.979
								C106.782-595.74,106.548-594.657,106.548-593.365z"/>
						</g>
					</g>
				</g>
				<g>
					<g transform="translate(764.019074, 187.217852)">
						<g>
							<path class="st3" d="M117.173-578.115c-2.042,0-3.865-0.521-5.458-1.562c-1.599-1.052-2.854-2.562-3.771-4.521
								c-0.906-1.958-1.354-4.312-1.354-7.062c0-2.792,0.458-5.156,1.375-7.104c0.927-1.958,2.193-3.448,3.792-4.479
								c1.594-1.026,3.396-1.542,5.396-1.542c1.427,0,2.625,0.24,3.583,0.708c0.958,0.458,1.74,1.031,2.354,1.708
								c0.609,0.682,1.083,1.365,1.417,2.042h0.208v-12.958h5.958v34.292h-5.833v-4h-0.292c-0.365,0.708-0.854,1.406-1.479,2.083
								c-0.615,0.682-1.396,1.25-2.354,1.708C119.756-578.344,118.574-578.115,117.173-578.115z M118.736-583.032
								c1.302,0,2.417-0.344,3.333-1.042c0.917-0.693,1.609-1.656,2.083-2.896c0.484-1.234,0.729-2.672,0.729-4.312
								c0-1.651-0.24-3.089-0.708-4.312c-0.474-1.234-1.177-2.188-2.104-2.854c-0.917-0.677-2.031-1.021-3.333-1.021
								c-1.307,0-2.411,0.349-3.312,1.042c-0.906,0.682-1.594,1.641-2.062,2.875c-0.474,1.224-0.708,2.646-0.708,4.271
								c0,1.615,0.234,3.042,0.708,4.292c0.469,1.24,1.156,2.208,2.062,2.917C116.34-583.375,117.444-583.032,118.736-583.032z"/>
						</g>
					</g>
				</g>
				<g>
					<g transform="translate(785.781518, 187.217852)">
						<g>
							<path class="st3" d="M126.198-578.073c-2.542,0-4.745-0.542-6.604-1.625c-1.849-1.083-3.271-2.604-4.271-4.562
								c-0.99-1.969-1.479-4.276-1.479-6.917c0-2.594,0.49-4.885,1.479-6.875c0.984-1.984,2.38-3.531,4.188-4.646
								c1.802-1.125,3.906-1.688,6.312-1.688c1.609,0,3.125,0.271,4.542,0.812c1.427,0.531,2.688,1.328,3.771,2.396
								c1.083,1.057,1.927,2.396,2.542,4.021c0.609,1.615,0.917,3.51,0.917,5.688v1.812h-21.042v-4.062h18.083l-2.771,1.167
								c0-1.427-0.229-2.677-0.688-3.75c-0.458-1.083-1.135-1.917-2.021-2.5c-0.875-0.594-1.969-0.896-3.271-0.896
								c-1.292,0-2.406,0.302-3.333,0.896c-0.917,0.599-1.62,1.417-2.104,2.458c-0.474,1.031-0.708,2.188-0.708,3.479v2.729
								c0,1.583,0.26,2.932,0.792,4.042c0.542,1.099,1.302,1.932,2.292,2.5c0.984,0.573,2.146,0.854,3.479,0.854
								c0.885,0,1.688-0.125,2.396-0.375c0.719-0.26,1.339-0.646,1.854-1.146c0.51-0.5,0.901-1.109,1.167-1.833l5.479,0.875
								c-0.375,1.432-1.073,2.682-2.083,3.75c-1,1.073-2.266,1.906-3.792,2.5C129.807-578.375,128.099-578.073,126.198-578.073z"/>
						</g>
					</g>
				</g>
				<g>
					<g transform="translate(806.387701, 187.217852)">
						<g>
							<path class="st3" d="M121.838-568.969v-35.042h5.812v4.083h0.333c0.344-0.677,0.823-1.359,1.438-2.042
								c0.609-0.677,1.396-1.25,2.354-1.708c0.958-0.469,2.146-0.708,3.562-0.708c2.01,0,3.812,0.516,5.396,1.542
								c1.594,1.031,2.859,2.521,3.792,4.479c0.927,1.948,1.396,4.312,1.396,7.104c0,2.75-0.458,5.104-1.375,7.062
								c-0.906,1.958-2.156,3.469-3.75,4.521c-1.599,1.042-3.427,1.562-5.479,1.562c-1.375,0-2.542-0.229-3.5-0.688
								c-0.958-0.458-1.75-1.026-2.375-1.708c-0.615-0.677-1.094-1.365-1.438-2.062h-0.229v13.604H121.838z M133.754-583.032
								c1.302,0,2.406-0.344,3.312-1.042c0.917-0.708,1.609-1.677,2.083-2.917c0.469-1.25,0.708-2.677,0.708-4.292
								c0-1.625-0.24-3.047-0.708-4.271c-0.458-1.234-1.146-2.193-2.062-2.875c-0.906-0.693-2.016-1.042-3.333-1.042
								c-1.307,0-2.417,0.344-3.333,1.021c-0.906,0.667-1.599,1.62-2.083,2.854c-0.49,1.224-0.729,2.661-0.729,4.312
								c0,1.641,0.24,3.078,0.729,4.312c0.484,1.24,1.188,2.203,2.104,2.896C131.358-583.375,132.463-583.032,133.754-583.032z"/>
						</g>
					</g>
				</g>
				<g>
					<g transform="translate(828.150146, 187.217852)">
						<g>
							<path class="st3" d="M140.321-578.073c-2.542,0-4.745-0.542-6.604-1.625c-1.849-1.083-3.271-2.604-4.271-4.562
								c-0.99-1.969-1.479-4.276-1.479-6.917c0-2.594,0.49-4.885,1.479-6.875c0.984-1.984,2.38-3.531,4.188-4.646
								c1.802-1.125,3.906-1.688,6.312-1.688c1.609,0,3.125,0.271,4.542,0.812c1.427,0.531,2.688,1.328,3.771,2.396
								c1.083,1.057,1.927,2.396,2.542,4.021c0.609,1.615,0.917,3.51,0.917,5.688v1.812h-21.042v-4.062h18.083l-2.771,1.167
								c0-1.427-0.229-2.677-0.688-3.75c-0.458-1.083-1.135-1.917-2.021-2.5c-0.875-0.594-1.969-0.896-3.271-0.896
								c-1.292,0-2.406,0.302-3.333,0.896c-0.917,0.599-1.62,1.417-2.104,2.458c-0.474,1.031-0.708,2.188-0.708,3.479v2.729
								c0,1.583,0.26,2.932,0.792,4.042c0.542,1.099,1.302,1.932,2.292,2.5c0.984,0.573,2.146,0.854,3.479,0.854
								c0.885,0,1.688-0.125,2.396-0.375c0.719-0.26,1.339-0.646,1.854-1.146c0.51-0.5,0.901-1.109,1.167-1.833l5.479,0.875
								c-0.375,1.432-1.073,2.682-2.083,3.75c-1,1.073-2.266,1.906-3.792,2.5C143.93-578.375,142.222-578.073,140.321-578.073z"/>
						</g>
					</g>
				</g>
				<g>
					<g transform="translate(848.756329, 187.217852)">
						<g>
							<path class="st3" d="M141.898-593.365v14.771h-5.938v-25.417h5.688l0.062,6.312h-0.625c0.719-2.208,1.781-3.875,3.188-5
								c1.401-1.125,3.156-1.688,5.271-1.688c1.75,0,3.281,0.385,4.604,1.146c1.318,0.75,2.339,1.849,3.062,3.292
								c0.734,1.432,1.104,3.188,1.104,5.271v16.083h-5.938v-15.167c0-1.75-0.448-3.104-1.333-4.062
								c-0.875-0.969-2.104-1.458-3.688-1.458c-1.042,0-1.979,0.229-2.812,0.688c-0.823,0.448-1.469,1.104-1.938,1.979
								C142.132-595.74,141.898-594.657,141.898-593.365z"/>
						</g>
					</g>
				</g>
				<g>
					<g transform="translate(870.070084, 187.217852)">
						<g>
							<path class="st3" d="M152.523-578.115c-2.042,0-3.865-0.521-5.458-1.562c-1.599-1.052-2.854-2.562-3.771-4.521
								c-0.906-1.958-1.354-4.312-1.354-7.062c0-2.792,0.458-5.156,1.375-7.104c0.927-1.958,2.193-3.448,3.792-4.479
								c1.594-1.026,3.396-1.542,5.396-1.542c1.427,0,2.625,0.24,3.583,0.708c0.958,0.458,1.74,1.031,2.354,1.708
								c0.609,0.682,1.083,1.365,1.417,2.042h0.208v-12.958h5.958v34.292h-5.833v-4h-0.292c-0.365,0.708-0.854,1.406-1.479,2.083
								c-0.615,0.682-1.396,1.25-2.354,1.708C155.107-578.344,153.924-578.115,152.523-578.115z M154.086-583.032
								c1.302,0,2.417-0.344,3.333-1.042c0.917-0.693,1.609-1.656,2.083-2.896c0.484-1.234,0.729-2.672,0.729-4.312
								c0-1.651-0.24-3.089-0.708-4.312c-0.474-1.234-1.177-2.188-2.104-2.854c-0.917-0.677-2.031-1.021-3.333-1.021
								c-1.307,0-2.411,0.349-3.312,1.042c-0.906,0.682-1.594,1.641-2.062,2.875c-0.474,1.224-0.708,2.646-0.708,4.271
								c0,1.615,0.234,3.042,0.708,4.292c0.469,1.24,1.156,2.208,2.062,2.917C151.69-583.375,152.794-583.032,154.086-583.032z"/>
						</g>
					</g>
				</g>
				<g>
					<g transform="translate(891.832528, 187.217852)">
						<g>
							<path class="st3" d="M161.548-578.073c-2.542,0-4.745-0.542-6.604-1.625c-1.849-1.083-3.271-2.604-4.271-4.562
								c-0.99-1.969-1.479-4.276-1.479-6.917c0-2.594,0.49-4.885,1.479-6.875c0.984-1.984,2.38-3.531,4.188-4.646
								c1.802-1.125,3.906-1.688,6.312-1.688c1.609,0,3.125,0.271,4.542,0.812c1.427,0.531,2.688,1.328,3.771,2.396
								c1.083,1.057,1.927,2.396,2.542,4.021c0.609,1.615,0.917,3.51,0.917,5.688v1.812h-21.042v-4.062h18.083l-2.771,1.167
								c0-1.427-0.229-2.677-0.688-3.75c-0.458-1.083-1.135-1.917-2.021-2.5c-0.875-0.594-1.969-0.896-3.271-0.896
								c-1.292,0-2.406,0.302-3.333,0.896c-0.917,0.599-1.62,1.417-2.104,2.458c-0.474,1.031-0.708,2.188-0.708,3.479v2.729
								c0,1.583,0.26,2.932,0.792,4.042c0.542,1.099,1.302,1.932,2.292,2.5c0.984,0.573,2.146,0.854,3.479,0.854
								c0.885,0,1.688-0.125,2.396-0.375c0.719-0.26,1.339-0.646,1.854-1.146c0.51-0.5,0.901-1.109,1.167-1.833l5.479,0.875
								c-0.375,1.432-1.073,2.682-2.083,3.75c-1,1.073-2.266,1.906-3.792,2.5C165.158-578.375,163.449-578.073,161.548-578.073z"/>
						</g>
					</g>
				</g>
				<g>
					<g transform="translate(912.438669, 187.217852)">
						<g>
							<path class="st3" d="M163.125-593.365v14.771h-5.938v-25.417h5.688l0.062,6.312h-0.625c0.719-2.208,1.781-3.875,3.188-5
								c1.401-1.125,3.156-1.688,5.271-1.688c1.75,0,3.281,0.385,4.604,1.146c1.318,0.75,2.339,1.849,3.062,3.292
								c0.734,1.432,1.104,3.188,1.104,5.271v16.083h-5.938v-15.167c0-1.75-0.448-3.104-1.333-4.062
								c-0.875-0.969-2.104-1.458-3.688-1.458c-1.042,0-1.979,0.229-2.812,0.688c-0.823,0.448-1.469,1.104-1.938,1.979
								C163.36-595.74,163.125-594.657,163.125-593.365z"/>
						</g>
					</g>
				</g>
				<g>
					<g transform="translate(933.752424, 187.217852)">
						<g>
							<path class="st3" d="M176.397-604.011v4.667h-14.708v-4.667H176.397z M165.48-610.24h5.938v24.458
								c0,0.906,0.193,1.562,0.583,1.979c0.401,0.417,1.062,0.625,1.979,0.625c0.292,0,0.667-0.021,1.125-0.062
								c0.458-0.052,0.823-0.104,1.104-0.146l0.75,4.625c-0.599,0.156-1.24,0.26-1.917,0.333c-0.682,0.068-1.344,0.104-1.979,0.104
								c-2.474,0-4.354-0.589-5.646-1.771c-1.292-1.177-1.938-2.88-1.938-5.104V-610.24z"/>
						</g>
					</g>
				</g>
				<g>
					<g transform="translate(946.212746, 187.217852)">
					</g>
				</g>
				<g>
					<g transform="translate(954.910824, 187.217852)">
						<g>
							<path class="st3" d="M183.741-578.073c-2.682,0-5.016-0.427-7-1.271c-1.974-0.844-3.51-2.073-4.604-3.688
								c-1.099-1.625-1.688-3.589-1.771-5.896h6.042c0.094,1.24,0.458,2.281,1.083,3.125c0.635,0.833,1.5,1.469,2.583,1.896
								c1.083,0.417,2.297,0.625,3.646,0.625c1.375,0,2.573-0.198,3.604-0.604c1.042-0.417,1.854-1,2.438-1.75
								c0.594-0.75,0.896-1.615,0.896-2.604c0-0.875-0.25-1.604-0.75-2.188s-1.219-1.083-2.146-1.5
								c-0.932-0.417-2.052-0.781-3.354-1.104l-3.833-0.958c-3-0.734-5.307-1.854-6.917-3.354c-1.615-1.51-2.417-3.479-2.417-5.896
								c0-2.026,0.542-3.797,1.625-5.312c1.083-1.526,2.568-2.714,4.458-3.562c1.901-0.844,4.062-1.271,6.479-1.271
								c2.469,0,4.625,0.432,6.458,1.292c1.844,0.849,3.292,2.036,4.333,3.562c1.042,1.516,1.583,3.266,1.625,5.25h-5.917
								c-0.156-1.542-0.823-2.74-2-3.604c-1.167-0.859-2.698-1.292-4.583-1.292c-1.266,0-2.37,0.203-3.312,0.604
								c-0.948,0.406-1.677,0.948-2.188,1.625c-0.516,0.682-0.771,1.469-0.771,2.354c0,0.917,0.271,1.677,0.812,2.271
								c0.552,0.599,1.281,1.094,2.188,1.479c0.917,0.391,1.896,0.703,2.938,0.938l3.271,0.833c1.375,0.323,2.672,0.745,3.896,1.271
								c1.219,0.531,2.297,1.182,3.229,1.958c0.943,0.781,1.677,1.708,2.208,2.792c0.526,1.073,0.792,2.328,0.792,3.771
								c0,2.042-0.521,3.833-1.562,5.375c-1.031,1.531-2.516,2.719-4.458,3.562C188.814-578.5,186.476-578.073,183.741-578.073z"/>
						</g>
					</g>
				</g>
				<g>
					<g transform="translate(977.812365, 187.217852)">
						<g>
							<path class="st3" d="M190.042-578.073c-2.474,0-4.625-0.547-6.458-1.646c-1.823-1.094-3.229-2.63-4.229-4.604
								c-1-1.984-1.5-4.281-1.5-6.896c0-2.609,0.5-4.906,1.5-6.896c1-1.984,2.406-3.526,4.229-4.625
								c1.833-1.094,3.984-1.646,6.458-1.646c1.458,0,2.802,0.198,4.042,0.583c1.25,0.391,2.359,0.953,3.333,1.688
								c0.969,0.724,1.771,1.599,2.396,2.625c0.635,1.031,1.083,2.177,1.333,3.438l-5.646,0.917c-0.141-0.667-0.37-1.26-0.688-1.792
								c-0.307-0.542-0.688-1.005-1.146-1.396c-0.448-0.385-0.969-0.688-1.562-0.896c-0.599-0.219-1.266-0.333-2-0.333
								c-1.375,0-2.521,0.365-3.438,1.083c-0.906,0.724-1.594,1.708-2.062,2.958c-0.474,1.25-0.708,2.682-0.708,4.292
								c0,1.583,0.234,3,0.708,4.25c0.469,1.25,1.156,2.24,2.062,2.958c0.917,0.724,2.062,1.083,3.438,1.083
								c0.734,0,1.401-0.104,2-0.312c0.609-0.219,1.146-0.526,1.604-0.917c0.458-0.385,0.839-0.865,1.146-1.438
								c0.318-0.568,0.547-1.198,0.688-1.896l5.646,0.938c-0.224,1.307-0.661,2.479-1.312,3.521
								c-0.641,1.031-1.448,1.917-2.417,2.667c-0.958,0.74-2.073,1.307-3.333,1.708C192.875-578.271,191.51-578.073,190.042-578.073
								z"/>
						</g>
					</g>
				</g>
				<g>
					<g transform="translate(998.107882, 187.217852)">
						<g>
							<path class="st3" d="M191.682-593.365v14.771h-5.938v-34.292h5.896v15.188h-0.771c0.719-2.208,1.781-3.875,3.188-5
								c1.401-1.125,3.156-1.688,5.271-1.688c1.75,0,3.281,0.385,4.604,1.146c1.318,0.75,2.344,1.849,3.083,3.292
								c0.734,1.432,1.104,3.188,1.104,5.271v16.083h-5.958v-15.167c0-1.75-0.448-3.104-1.333-4.062
								c-0.875-0.969-2.104-1.458-3.688-1.458c-1.042,0-1.979,0.229-2.812,0.688c-0.823,0.448-1.469,1.104-1.938,1.979
								C191.916-595.74,191.682-594.657,191.682-593.365z"/>
						</g>
					</g>
				</g>
				<g>
					<g transform="translate(1019.438842, 187.217852)">
						<g>
							<path class="st3" d="M203.938-578.073c-2.458,0-4.615-0.547-6.458-1.646c-1.833-1.094-3.25-2.63-4.25-4.604
								c-1-1.969-1.5-4.271-1.5-6.896c0-2.609,0.5-4.906,1.5-6.896c1-1.984,2.417-3.526,4.25-4.625c1.844-1.094,4-1.646,6.458-1.646
								c2.484,0,4.646,0.552,6.479,1.646c1.844,1.099,3.271,2.641,4.271,4.625c1,1.99,1.5,4.286,1.5,6.896
								c0,2.625-0.5,4.927-1.5,6.896c-1,1.974-2.427,3.51-4.271,4.604C208.584-578.62,206.422-578.073,203.938-578.073z
								 M203.938-582.927c1.375,0,2.521-0.359,3.438-1.083c0.917-0.734,1.609-1.729,2.083-2.979c0.469-1.25,0.708-2.656,0.708-4.229
								c0-1.583-0.24-3-0.708-4.25c-0.474-1.26-1.167-2.25-2.083-2.958c-0.917-0.719-2.062-1.083-3.438-1.083
								c-1.349,0-2.479,0.365-3.396,1.083c-0.917,0.708-1.615,1.698-2.083,2.958c-0.458,1.25-0.688,2.667-0.688,4.25
								c0,1.573,0.229,2.979,0.688,4.229c0.469,1.25,1.167,2.245,2.083,2.979C201.459-583.287,202.589-582.927,203.938-582.927z"/>
						</g>
					</g>
				</g>
				<g>
					<g transform="translate(1040.649027, 187.217852)">
						<g>
							<path class="st3" d="M211.008-578.073c-2.458,0-4.615-0.547-6.458-1.646c-1.833-1.094-3.25-2.63-4.25-4.604
								c-1-1.969-1.5-4.271-1.5-6.896c0-2.609,0.5-4.906,1.5-6.896c1-1.984,2.417-3.526,4.25-4.625c1.844-1.094,4-1.646,6.458-1.646
								c2.484,0,4.646,0.552,6.479,1.646c1.844,1.099,3.271,2.641,4.271,4.625c1,1.99,1.5,4.286,1.5,6.896
								c0,2.625-0.5,4.927-1.5,6.896c-1,1.974-2.427,3.51-4.271,4.604C215.654-578.62,213.492-578.073,211.008-578.073z
								 M211.008-582.927c1.375,0,2.521-0.359,3.438-1.083c0.917-0.734,1.609-1.729,2.083-2.979c0.469-1.25,0.708-2.656,0.708-4.229
								c0-1.583-0.24-3-0.708-4.25c-0.474-1.26-1.167-2.25-2.083-2.958c-0.917-0.719-2.062-1.083-3.438-1.083
								c-1.349,0-2.479,0.365-3.396,1.083c-0.917,0.708-1.615,1.698-2.083,2.958c-0.458,1.25-0.688,2.667-0.688,4.25
								c0,1.573,0.229,2.979,0.688,4.229c0.469,1.25,1.167,2.245,2.083,2.979C208.529-583.287,209.659-582.927,211.008-582.927z"/>
						</g>
					</g>
				</g>
				<g>
					<g transform="translate(1061.859212, 187.217852)">
						<g>
							<path class="st3" d="M212.932-612.886v34.292h-5.938v-34.292H212.932z"/>
						</g>
					</g>
				</g>
				<g>
					<g transform="translate(1070.868, 187.217852)">
						<g>
							<path class="st3" d="M219.685-578.073c-1.958,0-3.708-0.286-5.25-0.854c-1.531-0.568-2.781-1.406-3.75-2.521
								c-0.974-1.125-1.583-2.484-1.833-4.083l5.625-0.812c0.292,1.25,0.88,2.188,1.771,2.812c0.901,0.625,2.068,0.938,3.5,0.938
								c1.458,0,2.609-0.292,3.458-0.875c0.859-0.583,1.292-1.302,1.292-2.167c0-0.734-0.292-1.339-0.875-1.812
								c-0.573-0.484-1.427-0.844-2.562-1.083l-4.312-0.938c-2.417-0.51-4.224-1.365-5.417-2.562
								c-1.198-1.193-1.792-2.729-1.792-4.604c0-1.568,0.427-2.927,1.292-4.083c0.859-1.167,2.052-2.068,3.583-2.708
								c1.542-0.635,3.323-0.958,5.354-0.958c1.958,0,3.646,0.292,5.062,0.875c1.417,0.573,2.552,1.375,3.417,2.417
								c0.875,1.031,1.448,2.25,1.729,3.667l-5.354,0.812c-0.24-0.917-0.75-1.693-1.542-2.333c-0.781-0.651-1.849-0.979-3.208-0.979
								c-1.281,0-2.333,0.281-3.167,0.833c-0.823,0.557-1.229,1.266-1.229,2.125c0,0.75,0.281,1.37,0.854,1.854
								c0.568,0.474,1.469,0.849,2.708,1.125l4.375,0.917c2.427,0.531,4.229,1.365,5.396,2.5c1.177,1.125,1.771,2.583,1.771,4.375
								c0,1.625-0.469,3.052-1.396,4.271c-0.932,1.208-2.219,2.156-3.854,2.833C223.706-578.417,221.821-578.073,219.685-578.073z"
								/>
						</g>
					</g>
				</g>
				<g>
					<defs>
						
							<rect id="SVGID_00000152961268216622396780000012173226943133973386_" x="-150" y="-638.333" width="286.021" height="285.333"/>
					</defs>
					<clipPath id="SVGID_00000112623131132431295230000009820314128076637593_">
						<use xlink:href="#SVGID_00000152961268216622396780000012173226943133973386_"  style="overflow:visible;"/>
					</clipPath>
					<g style="clip-path:url(#SVGID_00000112623131132431295230000009820314128076637593_);">
						<g transform="matrix(0.429034, 0, 0, 0.429034, 0.00002043, 1.79018)">
							
								<image style="overflow:visible;enable-background:new    ;" width="500" height="500" xlink:href="82D0BB729CA85AF0.jpg"  transform="matrix(1.3333 0 0 1.3333 -349.6226 -1492.6632)">
							</image>
						</g>
					</g>
				</g>
			</g>
		</g>
	</g>
</g>
</svg>
