<?xml version="1.0" encoding="UTF-8"?>
<svg preserveAspectRatio="xMidYMid slice" width="120px" height="19px" xmlns="http://www.w3.org/2000/svg" viewBox="0 0 723.17 117.36">
  <defs>
    <style>.cls-1{fill:#646569;}.cls-2{fill:#cf0a2c;}</style>
  </defs>
  <title>ACDS-top-logo</title>
  <g id="Layer_2" data-name="Layer 2">
    <g id="Layer_1-2" data-name="Layer 1">
      <path class="cls-1" d="M16.77,69.2c.39,1,1.18,3.28,1.75,4.89,2.4,6.77,5.37,14.67,6.24,16.86,1.44,3.54,2.4,4,3.89,4.41.74.22,1.14.48,1.14.79s-.44.66-1.44.66-4.37-.17-5.72-.17-3.14.09-4.28.09c-.87,0-1.4-.26-1.4-.65,0-.22.31-.57,1.14-.74,1.79-.44,1.83-1.13,1.75-1.83a38,38,0,0,0-2-6.38,1.3,1.3,0,0,0-1-.65c-4.63,0-6.73.09-7.34.13-.13,0-.39.31-.48.44-1.4,3.49-1.88,5.46-1.88,6.33s.44,1.49,2.05,1.92c.87.22,1.27.48,1.27.87s-.61.57-1.31.57-1.88-.09-3.49-.09-3.67.17-4.32.17c-1,0-1.27-.26-1.27-.52s.17-.61,1.09-.87c2.23-.61,2.71-1.31,4-3.89,1-2.1,5.76-14.54,7.6-18.87a3.37,3.37,0,0,0,.22-.79c0-.13,0-.26.09-.35a27.64,27.64,0,0,0,2.27-2.71,1.09,1.09,0,0,1,.79-.57C16.25,68.24,16.42,68.32,16.77,69.2ZM16.86,84c-.66-2.05-2.58-7.34-3.19-8.78-.09-.31-.35-.22-.48.13C12.4,77.45,10.31,83,10,84a.37.37,0,0,0,.31.44c1.7,0,4.93-.09,6.33-.09A.34.34,0,0,0,16.86,84Z"></path>
      <path class="cls-1" d="M34.19,68.89c1.18,0,3.1.09,4.37.09,1.7,0,4.72-.17,5.76-.17s1.35.22,1.35.52-.52.7-1,.83c-2.36.57-2.71,1.22-2.75,1.75-.31,2.18-.31,6.59-.31,13.06,0,3,0,6.59.22,8.08.09,1,1.4,1.66,1.57,1.7a28.35,28.35,0,0,0,3.62.22,17.76,17.76,0,0,0,3.14-.22,2.62,2.62,0,0,0,1.35-.61,17.16,17.16,0,0,0,2.75-3.41,1.78,1.78,0,0,1,1.18-.87c.31,0,.35.48.17,1.18-.48,1.53-1.14,3.93-1.4,5.15a2,2,0,0,1-1,.74c-.65,0-4.54-.31-13.41-.31-2.1,0-5.11.26-6.46.26-.79,0-1.31-.17-1.31-.57s.39-.7,1.09-.83c2.4-.44,2.79-1.22,3-3.14.09-1.09.22-5.68.22-12,0-4.24,0-5.94,0-7.38s-.26-2.18-2.27-2.66c-.83-.22-1.22-.52-1.22-.83S33.4,68.89,34.19,68.89Z"></path>
      <path class="cls-1" d="M60.16,68.81c2.71,0,3.62.17,7.07.17a1.2,1.2,0,0,1,.48.61,27,27,0,0,0,1.66,3.93c2.18,4.5,6.29,13.1,7.12,14.19.09.09.35.17.39.13,1-1.84,5.9-11.44,7.29-14.85a30.77,30.77,0,0,0,1.27-3.36A1.65,1.65,0,0,1,86,69c3.06,0,6.55-.17,6.94-.17s1.18.13,1.18.52-.48.66-1.27.83a9,9,0,0,0-2,.74c-.74.35-1,1.27-1,3.49,0,7.34.26,15.94.52,18.12.22,1.44.61,2.18,2.79,2.75.74.17,1.18.61,1.18.92,0,.48-.66.66-1.31.66-.48,0-4.59-.22-6.16-.22-.79,0-3.14.13-4.15.13-.7,0-1.27-.17-1.27-.61s.61-.79,1.22-.92c1.79-.44,1.92-1.79,2.05-3.54.17-2.14.26-13.41.22-15.59,0-.44-.26-.66-.44-.31C83,78.63,79.37,86.4,78.11,89.29c-1.14,2.53-2.05,4.85-2.62,6.25s-1,1.35-1.22,1.35-.61-.48-.83-1c-.22-.7-.79-2.4-1.62-4.45-2.27-5.59-6.07-13.76-6.9-15.37-.13-.26-.26-.17-.26.13-.35,2.93-.74,10.53-.7,15.24,0,2.49.44,3.06,2.66,3.76.92.31,1.27.57,1.27,1s-.52.61-1.27.61c-1.31,0-3-.17-4-.17s-2.88.17-3.89.17c-.65,0-1.35-.09-1.35-.61,0-.31.44-.57,1.18-.83,2.4-.83,2.88-1.4,3.27-4.45.39-3.32,1.4-13.71,1.44-17.6a2.47,2.47,0,0,0-1.66-2.62c-.7-.22-1.27-.39-1.79-.52-.31-.09-.92-.39-.92-.79S59.2,68.81,60.16,68.81Z"></path>
      <path class="cls-1" d="M113.19,69.2c.39,1,1.18,3.28,1.75,4.89,2.4,6.77,5.37,14.67,6.24,16.86,1.44,3.54,2.4,4,3.89,4.41.74.22,1.14.48,1.14.79s-.44.66-1.44.66-4.37-.17-5.72-.17-3.14.09-4.28.09c-.87,0-1.4-.26-1.4-.65,0-.22.31-.57,1.14-.74,1.79-.44,1.83-1.13,1.75-1.83a38,38,0,0,0-2-6.38,1.3,1.3,0,0,0-1-.65c-4.63,0-6.73.09-7.34.13-.13,0-.39.31-.48.44-1.4,3.49-1.88,5.46-1.88,6.33s.44,1.49,2.05,1.92c.87.22,1.27.48,1.27.87s-.61.57-1.31.57-1.88-.09-3.49-.09-3.67.17-4.32.17c-1,0-1.27-.26-1.27-.52s.17-.61,1.09-.87c2.23-.61,2.71-1.31,4-3.89,1-2.1,5.76-14.54,7.6-18.87a3.37,3.37,0,0,0,.22-.79c0-.13,0-.26.09-.35a27.64,27.64,0,0,0,2.27-2.71,1.09,1.09,0,0,1,.79-.57C112.66,68.24,112.84,68.32,113.19,69.2Zm.09,14.8c-.66-2.05-2.58-7.34-3.19-8.78-.09-.31-.35-.22-.48.13-.79,2.1-2.88,7.6-3.14,8.65a.37.37,0,0,0,.31.44c1.7,0,4.93-.09,6.33-.09A.34.34,0,0,0,113.27,84Z"></path>
      <path class="cls-1" d="M154.49,72.82a13.85,13.85,0,0,1,4.1,9.52,14.32,14.32,0,0,1-6.9,12.27,20.77,20.77,0,0,1-10,2.4c-1.79,0-6.16-.13-8.73-.26-1.31,0-2.27,0-3,0-1,0-1.44-.35-1.44-.7s.61-.66,1.14-.74c2.66-.35,2.93-1,3.06-4.94.09-2.4.13-4.15.09-6,0-2.27,0-7.16-.13-10.09-.17-2.75-.26-3.49-2.66-3.84-.48-.09-1-.44-1-.74s.52-.66,1.18-.66h2.27c2.14,0,7.16-.35,10.39-.35A16.89,16.89,0,0,1,154.49,72.82Zm-15.9-2.18a.71.71,0,0,0-.35.61c-.09,1-.17,3.84-.17,7.69v6.33c0,3,0,5.24.17,7.16a2.74,2.74,0,0,0,.87,1.92A6.27,6.27,0,0,0,142,95.53,10.16,10.16,0,0,0,148.59,93c2.66-2.23,4.06-6.46,4.06-10.61a13.82,13.82,0,0,0-3.49-9.08,12.09,12.09,0,0,0-8.3-3.1A4.51,4.51,0,0,0,138.59,70.64Z"></path>
      <path class="cls-1" d="M176.75,69a33.73,33.73,0,0,0,3.84-.26c.17,0,.48.26.52.57,0,.79,0,3.8,0,4.67,0,.61-.31,1.22-.7,1.22s-.74-.66-.83-1.09c-.57-2.45-1.79-3.1-2.79-3.28a39.24,39.24,0,0,0-6.07-.26c-.17,0-.52.17-.57,1.22s-.22,7.16-.17,9.56a.5.5,0,0,0,.44.44H174c3.1,0,3-.17,3.84-2.1.26-.66.57-1.14,1-1.14s.48.74.44,1.22c-.09,1.22-.17,2-.17,3,0,1.18.09,1.88.17,3,0,.79-.22,1.31-.57,1.31s-.7-.52-.83-1c-.57-1.92-1.14-2.23-2.84-2.36-1.4-.13-3-.13-4.37-.13-.17,0-.57.44-.57.52a55.39,55.39,0,0,0-.09,6.07,31.27,31.27,0,0,0,.17,3.58,1.64,1.64,0,0,0,1,1,21.7,21.7,0,0,0,3.54.26,13.22,13.22,0,0,0,4-.39,6.74,6.74,0,0,0,3.45-3.23c.61-1.14,1-1.53,1.35-1.53s.39.92.35,1.27a35.65,35.65,0,0,1-1.66,5.07,1.58,1.58,0,0,1-1,.57c-.48,0-11.27-.22-14.54-.22-2.93,0-3.41.22-5,.22-.83,0-1.48-.13-1.48-.57s.57-.7,1.31-.87c2.23-.52,2.79-1,3-3.32.13-1.83.35-5.15.35-10.57,0-5.15,0-7.16,0-8.43-.09-1.57-.44-2.45-2.31-2.79-.92-.17-1.4-.35-1.4-.79s.74-.66,1.35-.66c2.05,0,5.63.13,7.9.13Z"></path>
      <path class="cls-1" d="M187.16,68.81c1,0,4.41.17,6.64.17a2.67,2.67,0,0,1,1,.57c.65.79,1.88,2.14,3.67,4.24,2.14,2.62,10.7,11.49,13,13.93.22.22.39-.17.39-.26.22-1.27.09-6.2.09-9.87,0-1.49-.13-3.54-.26-4.67-.09-.87-.52-1.88-2.71-2.45-.87-.22-1.44-.48-1.44-1,0-.31.48-.52,1.27-.52,1.09,0,2.1,0,3,0,2.1,0,3.89-.22,5-.22.74,0,1,.26,1,.57s-.31.66-1.09.87c-2.27.74-2.49,1.53-2.71,3.28-.13,1.57-.44,12.62-.44,16.33,0,1.83.26,5.68.26,6.81a1,1,0,0,1-.7.83c-.92,0-2-1.14-2.36-1.66-.83-1.09-1.66-2.1-2.84-3.54-4.1-5-11.22-12.53-15.11-17.12-.22-.26-.48.09-.48.22-.09,1.18-.17,2.18-.22,5.63,0,6.07-.13,9.39.09,11.53.17,1.4.66,2.14,2.75,2.8.92.26,1.22.57,1.22.83,0,.48-.61.66-1.44.66-1.27,0-2.27-.17-3.8-.17-1,0-3.41.13-4.15.13s-1.14-.22-1.14-.57.52-.66,1-.79c2-.61,3.06-1,3.19-4.24.22-4.89.79-13.28.79-16.42,0-1.75-.13-2.27-.26-2.45A4.59,4.59,0,0,0,187,70.2c-.48-.09-1.14-.44-1.14-.74S186.37,68.81,187.16,68.81Z"></path>
      <path class="cls-1" d="M251.31,68.94a28.66,28.66,0,0,0,3.14.66c.31,0,.65.52.65,1.18,0,1.22.13,2.75.22,4,0,.92-.26,1.66-.74,1.66-.22,0-.61-.52-.83-1.18a6.57,6.57,0,0,0-1.83-3.1,10.11,10.11,0,0,0-6.46-2.53c-6.94,0-10.22,5.5-10.22,12.14a16.68,16.68,0,0,0,1.48,7.38c2.4,4.8,6.38,6.51,9.78,6.51a9.19,9.19,0,0,0,4.24-1,9.82,9.82,0,0,0,3.8-4c.52-1,.83-1.35,1.18-1.35s.48,1.14.35,1.62a20.33,20.33,0,0,1-1.31,3.8,3.59,3.59,0,0,1-1.57,1.4,23.38,23.38,0,0,1-7.64,1.27c-6.46,0-11-2.88-12.84-4.93A14.39,14.39,0,0,1,229,82.65a13.86,13.86,0,0,1,4.8-10.48,18.47,18.47,0,0,1,11.79-3.93A24.64,24.64,0,0,1,251.31,68.94Z"></path>
      <path class="cls-1" d="M289.45,82.39a14.43,14.43,0,0,1-5.5,11.88,16.49,16.49,0,0,1-9.56,3.14A15.38,15.38,0,0,1,263,92.74a14.43,14.43,0,0,1-3.76-10,13.68,13.68,0,0,1,5.63-11.35,16.37,16.37,0,0,1,9.3-3.14C283.86,68.24,289.45,75.4,289.45,82.39ZM268.23,72c-1.48,1.44-3.06,4.59-3.06,9.78,0,6.72,4.1,14,10.48,14A6.26,6.26,0,0,0,280.11,94c1.83-1.83,3.36-5.59,3.36-10.26,0-3.45-1.35-8.69-4.54-11.62a9.64,9.64,0,0,0-5.76-2.36A7.67,7.67,0,0,0,268.23,72Z"></path>
      <path class="cls-1" d="M292.74,68.81c1.83,0,3.54.17,5.11.17s4.06-.17,5-.17,1.27.31,1.27.66-.48.7-1.31.87c-1.57.31-2.1.83-2.36,2.53-.22,1.44-.17,5.63-.17,11.79,0,5.07,1,6.59,2.45,8.08,1.22,1.22,4.06,1.92,5.33,1.92,3,0,6.55-1,7.64-5.72.52-2.32.83-6,.83-12a23.83,23.83,0,0,0-.22-4.24c-.13-1.31-.87-2-2.88-2.49-.44-.13-1.18-.48-1.18-.87s.44-.52,1.18-.52c1,0,2.62.17,4,.17,1.75,0,2.84-.17,4.06-.17.7,0,1.09.31,1.09.66s-.52.61-1.14.74c-2.14.52-2.79,1.35-2.84,4.11,0,2.05-.26,7.25-.35,9.52-.31,7.38-2.53,10.39-5.63,12.18a12.1,12.1,0,0,1-6,1.35,12.37,12.37,0,0,1-8.21-2.66C296,92.43,295,89.81,295,82.82c0-3.28-.13-10.09-.17-10.61-.09-.83-.52-1.62-2.18-2-.48-.13-1.18-.44-1.18-.83S292,68.81,292.74,68.81Z"></path>
      <path class="cls-1" d="M326.4,68.81c1,0,4.41.17,6.64.17a2.67,2.67,0,0,1,1,.57c.65.79,1.88,2.14,3.67,4.24,2.14,2.62,10.7,11.49,13,13.93.22.22.39-.17.39-.26.22-1.27.09-6.2.09-9.87,0-1.49-.13-3.54-.26-4.67-.09-.87-.52-1.88-2.71-2.45-.87-.22-1.44-.48-1.44-1,0-.31.48-.52,1.27-.52,1.09,0,2.1,0,3,0,2.1,0,3.89-.22,5-.22.74,0,1,.26,1,.57s-.31.66-1.09.87c-2.27.74-2.49,1.53-2.71,3.28-.13,1.57-.44,12.62-.44,16.33,0,1.83.26,5.68.26,6.81a1,1,0,0,1-.7.83c-.92,0-2-1.14-2.36-1.66-.83-1.09-1.66-2.1-2.84-3.54-4.1-5-11.22-12.53-15.11-17.12-.22-.26-.48.09-.48.22-.09,1.18-.17,2.18-.22,5.63,0,6.07-.13,9.39.09,11.53.17,1.4.65,2.14,2.75,2.8.92.26,1.22.57,1.22.83,0,.48-.61.66-1.44.66-1.27,0-2.27-.17-3.8-.17-1,0-3.41.13-4.15.13s-1.14-.22-1.14-.57.52-.66,1-.79c2-.61,3.06-1,3.19-4.24.22-4.89.79-13.28.79-16.42,0-1.75-.13-2.27-.26-2.45a4.59,4.59,0,0,0-3.36-2.1c-.48-.09-1.14-.44-1.14-.74S325.61,68.81,326.4,68.81Z"></path>
      <path class="cls-1" d="M382.52,68.89c2.14-.17,2.79-.35,3.36-.7.35-.22.52-.35.7-.35s.57.48.39,1.09a31,31,0,0,0-.92,5.07c0,.39-.31,1.13-.83,1.13-.31,0-.57-.22-.74-1.35-.44-2.49-1-2.88-3.14-3-1,0-4.24,0-5.33.22a.6.6,0,0,0-.44.52c0,2,0,5.33,0,9.08,0,5,0,9.65.22,11.84.13,1.4.48,2.27,3.41,2.88.61.13,1.09.61,1.09.87s-.74.57-1.22.57-5.33-.17-6.46-.17c-1.35,0-4.72.26-5.46.26s-1.35-.17-1.35-.52.52-.79,1-.92c2.84-.7,3-1.27,3.19-4.32.17-2.58.39-11.27.39-14.59,0-2.49,0-4,0-5.11a.63.63,0,0,0-.48-.61c-.83-.13-4-.17-4.94-.17a3.83,3.83,0,0,0-2.4,1A12.62,12.62,0,0,0,361,74c-.52.87-.79,1.14-1,1.14-.44,0-.65-.52-.65-1,0-.83.79-3.67.83-5.9,0-.17.39-.87.7-.87s.48.35.74.7a3.52,3.52,0,0,0,1.79.7c1,.09,6.73.26,9.69.26C375.54,69,381.08,69,382.52,68.89Z"></path>
      <path class="cls-1" d="M408.76,81.43c-.17.13-1.09.61-1.7.92-.22.09-.17.44-.09.61a69.3,69.3,0,0,0,6.59,10.31,6.17,6.17,0,0,0,3.75,2.18c.44.09.79.44.79.61s-.39.57-.7.65a11.83,11.83,0,0,1-2.93.35c-4,0-5.68-1.57-6.59-2.84-1.22-1.66-3.45-5.24-5.28-8.38a7.64,7.64,0,0,0-1.4-1.83,4,4,0,0,0-2.1-.57.61.61,0,0,0-.48.44c-.09.87,0,6.68.13,8.69s.44,2.31,2.45,2.84c.74.22,1,.52,1,.83,0,.48-.83.65-1.35.65-1.53,0-3.45-.26-5.59-.26-1.53,0-3.71.17-4.19.17-1.09,0-1.4-.31-1.4-.7s.48-.52,1-.7c2-.61,2.49-1.14,2.62-2.53.26-3.36.26-7,.26-10.74,0-4.67-.09-8.38-.22-9.56s-.48-1.7-2.53-2.18c-.61-.17-1.09-.48-1.09-.83s.52-.61,1.27-.61h3.19c1.62,0,5.24-.22,7.6-.22,2,0,5.5.17,7.6,1.92a7,7,0,0,1,2.36,5.2C411.82,78.19,410.68,79.9,408.76,81.43Zm-4.24-9.7A5,5,0,0,0,401,70.2a6.74,6.74,0,0,0-1.66.31,1.94,1.94,0,0,0-.52.92c-.13,1.49-.31,9.13-.13,10.26a.7.7,0,0,0,.57.52,11.25,11.25,0,0,0,4.72-1,5.93,5.93,0,0,0,2.45-4.89A6.88,6.88,0,0,0,404.52,71.73Z"></path>
      <path class="cls-1" d="M416.83,68.76c1,0,3.67.26,5.68.26,1.22,0,2.53-.09,4.24-.09.7,0,1.09.22,1.09.48a1.15,1.15,0,0,1-1,.92c-1.49.31-1.57,1-1,2.14.52,1,3.14,5.5,5,8.69.09.13.44,0,.57-.13.7-1.09,3.76-5.94,4.85-8.08.74-1.35.7-2.23-1.35-2.66-.61-.13-1.18-.52-1.18-1s.61-.44,1-.44c1.14,0,2,.09,3,.09,1.22,0,4.5-.22,5.2-.22s1,.09,1,.48-.48.7-1.22.92c-2.05.52-3,1.62-4.41,3.36-1.83,2.27-4.45,6.42-5.81,8.52a5.4,5.4,0,0,0-.61,2.36c0,2.45.13,7.21.31,8.65.13,1.14.44,1.7,2.79,2.31.83.22,1.13.52,1.13.83s-.48.61-1.35.61c-.61,0-3.8-.22-4.8-.22-2.88,0-5.76.31-6.33.31s-1.14-.17-1.14-.52.35-.7,1.27-.92c2.31-.66,2.79-1.35,2.84-2,.13-2,0-6.81,0-8.43a9.85,9.85,0,0,0-.39-2.14c-.74-1.49-3.32-5.63-5.2-8.69s-2.75-3.67-4.19-4c-.79-.17-1.27-.48-1.27-.87S416.09,68.76,416.83,68.76Z"></path>
      <path class="cls-1" d="M478.84,72.82a13.85,13.85,0,0,1,4.11,9.52A14.32,14.32,0,0,1,476,94.61,20.77,20.77,0,0,1,466,97c-1.79,0-6.16-.13-8.73-.26-1.31,0-2.27,0-3,0-1,0-1.44-.35-1.44-.7s.61-.66,1.14-.74c2.66-.35,2.93-1,3.06-4.94.09-2.4.13-4.15.09-6,0-2.27,0-7.16-.13-10.09-.17-2.75-.26-3.49-2.66-3.84-.48-.09-1-.44-1-.74s.52-.66,1.18-.66h2.27c2.14,0,7.16-.35,10.39-.35A16.89,16.89,0,0,1,478.84,72.82Zm-15.9-2.18a.7.7,0,0,0-.35.61c-.09,1-.17,3.84-.17,7.69v6.33c0,3,0,5.24.17,7.16a2.74,2.74,0,0,0,.87,1.92,6.28,6.28,0,0,0,2.93,1.18A10.16,10.16,0,0,0,472.94,93c2.66-2.23,4.06-6.46,4.06-10.61a13.82,13.82,0,0,0-3.49-9.08,12.1,12.1,0,0,0-8.3-3.1A4.5,4.5,0,0,0,462.94,70.64Z"></path>
      <path class="cls-1" d="M498.63,69.2c.39,1,1.18,3.28,1.75,4.89,2.4,6.77,5.37,14.67,6.25,16.86,1.44,3.54,2.4,4,3.89,4.41.74.22,1.13.48,1.13.79s-.44.66-1.44.66-4.37-.17-5.72-.17-3.14.09-4.28.09c-.87,0-1.4-.26-1.4-.65,0-.22.31-.57,1.14-.74,1.79-.44,1.83-1.13,1.75-1.83a37.9,37.9,0,0,0-2-6.38,1.3,1.3,0,0,0-1-.65c-4.63,0-6.73.09-7.34.13-.13,0-.39.31-.48.44-1.4,3.49-1.88,5.46-1.88,6.33s.44,1.49,2.05,1.92c.87.22,1.27.48,1.27.87s-.61.57-1.31.57-1.88-.09-3.49-.09-3.67.17-4.32.17c-1,0-1.27-.26-1.27-.52s.17-.61,1.09-.87c2.23-.61,2.71-1.31,4-3.89,1-2.1,5.76-14.54,7.6-18.87a3.41,3.41,0,0,0,.22-.79c0-.13,0-.26.09-.35a27.66,27.66,0,0,0,2.27-2.71,1.08,1.08,0,0,1,.79-.57C498.11,68.24,498.28,68.32,498.63,69.2Zm.09,14.8c-.66-2.05-2.58-7.34-3.19-8.78-.09-.31-.35-.22-.48.13-.79,2.1-2.88,7.6-3.14,8.65a.37.37,0,0,0,.31.44c1.7,0,4.94-.09,6.33-.09A.34.34,0,0,0,498.72,84Z"></path>
      <path class="cls-1" d="M511.19,68.76c1,0,3.67.26,5.68.26,1.22,0,2.53-.09,4.24-.09.7,0,1.09.22,1.09.48a1.15,1.15,0,0,1-1,.92c-1.49.31-1.57,1-1,2.14.52,1,3.14,5.5,5,8.69.09.13.44,0,.57-.13.7-1.09,3.76-5.94,4.85-8.08.74-1.35.7-2.23-1.35-2.66-.61-.13-1.18-.52-1.18-1s.61-.44,1-.44c1.14,0,2,.09,3,.09,1.22,0,4.5-.22,5.2-.22s1,.09,1,.48-.48.7-1.22.92c-2.05.52-3,1.62-4.41,3.36-1.83,2.27-4.45,6.42-5.81,8.52a5.4,5.4,0,0,0-.61,2.36c0,2.45.13,7.21.31,8.65.13,1.14.44,1.7,2.79,2.31.83.22,1.13.52,1.13.83s-.48.61-1.35.61c-.61,0-3.8-.22-4.8-.22-2.88,0-5.76.31-6.33.31s-1.14-.17-1.14-.52.35-.7,1.27-.92c2.31-.66,2.79-1.35,2.84-2,.13-2,0-6.81,0-8.43a9.85,9.85,0,0,0-.39-2.14c-.74-1.49-3.32-5.63-5.2-8.69s-2.75-3.67-4.19-4c-.79-.17-1.27-.48-1.27-.87S510.45,68.76,511.19,68.76Z"></path>
      <path class="cls-1" d="M564.08,69c.17,0,.52.66.57.87,0,.57.44,3.93.44,4.11,0,.66-.13,1.09-.39,1.09a1.62,1.62,0,0,1-1.27-1,7.26,7.26,0,0,0-1.88-3.1,5.1,5.1,0,0,0-3.49-1.22,4.54,4.54,0,0,0-4.45,4.54c0,2.58,1.92,4,5.85,6.46,5.37,3.28,6.42,6.07,6.42,8.73A7.75,7.75,0,0,1,562,95.84a12.94,12.94,0,0,1-6.11,1.57,16.51,16.51,0,0,1-6.29-1.14A3.71,3.71,0,0,1,548.49,95a24.53,24.53,0,0,1-.74-4.67c0-.31.48-.92.7-.92s1,1,1.7,2.4a7,7,0,0,0,6.07,4,4.51,4.51,0,0,0,4.54-4.37c0-1.83-.92-3.58-4.94-6.2-4.45-2.93-6.86-5.33-6.86-9.21a7.53,7.53,0,0,1,2.66-5.72c1.44-1.22,3.49-2.1,6.94-2.1A31,31,0,0,1,564.08,69Z"></path>
      <path class="cls-1" d="M591.53,68.94a28.65,28.65,0,0,0,3.14.66c.31,0,.66.52.66,1.18,0,1.22.13,2.75.22,4,0,.92-.26,1.66-.74,1.66-.22,0-.61-.52-.83-1.18a6.57,6.57,0,0,0-1.83-3.1,10.11,10.11,0,0,0-6.46-2.53c-6.94,0-10.22,5.5-10.22,12.14a16.68,16.68,0,0,0,1.49,7.38c2.4,4.8,6.37,6.51,9.78,6.51a9.19,9.19,0,0,0,4.24-1,9.83,9.83,0,0,0,3.8-4c.52-1,.83-1.35,1.18-1.35s.48,1.14.35,1.62a20.33,20.33,0,0,1-1.31,3.8,3.59,3.59,0,0,1-1.57,1.4,23.39,23.39,0,0,1-7.64,1.27c-6.46,0-11-2.88-12.84-4.93a14.39,14.39,0,0,1-3.67-9.83,13.86,13.86,0,0,1,4.8-10.48,18.47,18.47,0,0,1,11.79-3.93A24.65,24.65,0,0,1,591.53,68.94Z"></path>
      <path class="cls-1" d="M608.64,81.43c3,0,8.73-.17,13.32-.17.17,0,.35-.44.39-1.09a71.94,71.94,0,0,0-.09-7.38c-.17-1.57-.39-2-2.14-2.49-.61-.17-1.27-.44-1.27-.87s.44-.57,1.44-.57c.57,0,3.8.13,4.94.13,1.4,0,4.15-.17,4.67-.17.83,0,1.35.22,1.35.57s-.39.7-1.4,1c-1.57.35-1.83,1-1.92,2.31-.22,2.05-.35,6-.35,12.18,0,4.28.13,6.55.17,8,0,1.7.48,1.84,2.23,2.4.79.26,1.22.57,1.22.92s-.61.61-1.4.61-3.1-.13-4.41-.13c-1,0-4.45.22-5.33.22-1,0-1.49-.22-1.49-.61s.57-.74,1.18-.92c2.14-.57,2.23-.92,2.45-4.15.13-1.75.17-5.85.09-7,0-.39-.17-.57-.35-.57-3.49,0-12.45-.13-13.32,0a.87.87,0,0,0-.57.66c-.09,1.62,0,6.29,0,7.69,0,2.05.31,2.71,2.1,3.23.92.26,1.53.61,1.53,1.09s-.83.57-1.4.57c-.31,0-3.93-.13-5.46-.13-1,0-3.23.17-4.72.17-1.14,0-1.53-.22-1.53-.57s.48-.74,1.22-1c1.92-.52,2.31-1,2.53-2.84s.39-8.25.39-14.24c0-1.31.09-3.71,0-5.46-.09-1.44-.48-1.92-1.92-2.36-1-.31-1.48-.61-1.48-1s.57-.61,1.35-.61c1.18,0,3.58.17,4.72.17,1.83,0,3.8-.13,4.85-.13s1.44.17,1.44.57-.57.74-1.48,1c-1.83.39-2,1.22-2,3-.09,1.57-.26,6.64-.13,7.47C608.16,81.21,608.33,81.43,608.64,81.43Z"></path>
      <path class="cls-1" d="M663.91,82.39a14.43,14.43,0,0,1-5.5,11.88,16.49,16.49,0,0,1-9.56,3.14,15.38,15.38,0,0,1-11.35-4.67,14.43,14.43,0,0,1-3.76-10,13.68,13.68,0,0,1,5.63-11.35,16.37,16.37,0,0,1,9.3-3.14C658.32,68.24,663.91,75.4,663.91,82.39ZM642.68,72c-1.48,1.44-3.06,4.59-3.06,9.78,0,6.72,4.11,14,10.48,14A6.25,6.25,0,0,0,654.56,94c1.83-1.83,3.36-5.59,3.36-10.26,0-3.45-1.35-8.69-4.54-11.62a9.64,9.64,0,0,0-5.76-2.36A7.67,7.67,0,0,0,642.68,72Z"></path>
      <path class="cls-1" d="M697.67,82.39a14.43,14.43,0,0,1-5.5,11.88,16.49,16.49,0,0,1-9.56,3.14,15.38,15.38,0,0,1-11.35-4.67,14.43,14.43,0,0,1-3.76-10,13.68,13.68,0,0,1,5.63-11.35,16.38,16.38,0,0,1,9.3-3.14C692.08,68.24,697.67,75.4,697.67,82.39ZM676.45,72c-1.48,1.44-3.06,4.59-3.06,9.78,0,6.72,4.11,14,10.48,14A6.25,6.25,0,0,0,688.33,94c1.83-1.83,3.36-5.59,3.36-10.26,0-3.45-1.35-8.69-4.54-11.62a9.64,9.64,0,0,0-5.76-2.36A7.67,7.67,0,0,0,676.45,72Z"></path>
      <path class="cls-1" d="M701.58,68.89c1.18,0,3.1.09,4.37.09,1.7,0,4.72-.17,5.76-.17s1.35.22,1.35.52-.52.7-1,.83c-2.36.57-2.71,1.22-2.75,1.75-.31,2.18-.31,6.59-.31,13.06,0,3,0,6.59.22,8.08.09,1,1.4,1.66,1.57,1.7a28.33,28.33,0,0,0,3.62.22,17.77,17.77,0,0,0,3.14-.22,2.62,2.62,0,0,0,1.35-.61,17.18,17.18,0,0,0,2.75-3.41,1.78,1.78,0,0,1,1.18-.87c.31,0,.35.48.17,1.18-.48,1.53-1.14,3.93-1.4,5.15a2,2,0,0,1-1,.74c-.66,0-4.54-.31-13.41-.31-2.1,0-5.11.26-6.46.26-.79,0-1.31-.17-1.31-.57s.39-.7,1.09-.83c2.4-.44,2.79-1.22,3-3.14.09-1.09.22-5.68.22-12,0-4.24,0-5.94,0-7.38s-.26-2.18-2.27-2.66c-.83-.22-1.22-.52-1.22-.83S700.8,68.89,701.58,68.89Z"></path>
      <rect class="cls-2" x="0.05" y="48.12" width="723.07" height="1.91"></rect>
      <rect class="cls-2" x="0.05" y="115.45" width="723.07" height="1.91"></rect>
      <path class="cls-2" d="M353.75,14a7.12,7.12,0,0,1-5.6-4.9c-2.33-6.16-6.45-4.52-6.45-4.52s18.21-14.17,21.41,7.57A19.68,19.68,0,0,1,356.92,14,10.84,10.84,0,0,1,353.75,14Z"></path>
      <path class="cls-2" d="M362.88,20.79l.4-.25A15.53,15.53,0,0,1,371.46,18a14.86,14.86,0,0,1,9.37,3.53c3.24,2.54,4.71,7,4.71,12.31a40,40,0,0,1-3.34,15.2L341,49a39.9,39.9,0,0,1-3.32-15.15c0-5.28,1.47-9.76,4.71-12.31A14.86,14.86,0,0,1,351.71,18a15.34,15.34,0,0,1,7.71,2.21l.45.29h0A25.34,25.34,0,0,1,366.2,7.94a1.33,1.33,0,0,1,.32-1.17,1.85,1.85,0,0,1,2.52.37,1.85,1.85,0,0,1,.4,2.52,1.32,1.32,0,0,1-1.1.34,22.75,22.75,0,0,0-5.47,10.78Z"></path>
    </g>
  </g>
</svg>
