<?xml version="1.0" encoding="UTF-8"?>
<svg xmlns="http://www.w3.org/2000/svg" width="300" height="79" viewBox="0 0 300 79">
  <g fill="none">
    <g fill="#76777A" transform="translate(90.301 8.027)">
      <path d="M12.9852753 2.58498355C7.37949732 2.58498355 2.87507525 6.93993991 2.87507525 12.4227394 2.87507525 17.9055389 7.37949732 22.2975412 12.9852753 22.2975412 15.7159781 22.2975412 18.376557 21.1655819 20.3276483 19.3256334L22.0642432 21.2026278C19.6181606 23.5035925 16.2810933 24.9525004 12.8409028 24.9525004 5.67590179 24.9525004 0 19.432655 0 12.4227394 0 5.41282383 5.74602558 0 12.944026 0 16.3512171 0 19.6470351 1.37893231 22.0229939 3.60992129L20.3193984 5.663913C18.4054315 3.75398885 15.7077282 2.58498355 12.9770255 2.58498355L12.9852753 2.58498355ZM42.7466354 18.5106226 29.2333692 18.5106226 26.4655421 24.8454788 23.4502192 24.8454788 34.5875265.0699756693 37.5327256.0699756693 48.6329085 24.8454788 45.5474619 24.8454788 42.7466354 18.5106226ZM41.61228 15.8927094 35.9735026 3.15302134 30.4048489 15.8927094 41.61228 15.8927094Z"></path>
      <polygon points="56.045 .074 65.124 18.054 74.17 .074 77.648 .074 77.648 24.85 75.024 24.85 74.987 4.252 65.941 22.232 64.238 22.232 55.229 4.252 55.229 24.85 52.535 24.85 52.535 .074 56.045 .074"></polygon>
      <path d="M104.216322 8.38884789C104.216322 13.8387177 100.668883 16.9876228 94.5351143 16.9876228L88.0466016 16.9876228 88.0466016 24.8454788 85.2086507 24.8454788 85.2086507.0740918852 94.5351143.0740918852C100.673008.0740918852 104.216322 3.11597539 104.216322 8.39296411L104.216322 8.38884789ZM101.485619 8.45882356C101.485619 4.67190498 98.8951639 2.68788895 94.4278661 2.68788895L88.0424766 2.68788895 88.0424766 14.3697095 94.4278661 14.3697095C98.8951639 14.3697095 101.485619 12.3527637 101.485619 8.45882356ZM127.44792 6.26488051C127.44792 9.16681268 125.711325 11.2537341 122.83625 11.8588178 126.416688 12.3898097 128.512151 14.7237041 128.512151 18.1236984 128.512151 22.3345872 125.179209 24.849595 119.540432 24.849595L108.93524 24.849595 108.93524.0740918852 119.400184.0740918852C124.399598.0740918852 127.452045 2.37505654 127.452045 6.26899673L127.44792 6.26488051ZM124.539845 6.68885075C124.539845 4.14091314 122.588754 2.68788895 119.255812 2.68788895L111.773191 2.68788895 111.773191 10.7927179 119.255812 10.7927179C122.588754 10.7927179 124.539845 9.30676402 124.539845 6.68885075L124.539845 6.68885075ZM125.641201 17.7655876C125.641201 15.0036067 123.298242 13.3777015 119.255812 13.4106312L111.773191 13.4106312 111.773191 22.2234493 119.255812 22.2234493C123.298242 22.2604953 125.641201 20.6304738 125.641201 17.7655876Z"></path>
      <polygon points="151.179 .074 151.179 2.692 137.17 2.692 137.17 11.011 149.69 11.011 149.69 13.596 137.17 13.596 137.17 22.232 151.641 22.232 151.641 24.85 134.332 24.85 134.332 .074"></polygon>
      <polygon points="160.262 .074 160.262 22.232 171.152 22.232 171.152 24.85 157.424 24.85 157.424 .074"></polygon>
      <polygon points="178.601 .074 178.601 22.232 189.491 22.232 189.491 24.85 175.763 24.85 175.763 .074"></polygon>
      <path d="M19.8656563 61.2040134 15.7159781 57.1001462C13.4472673 59.5410622 10.8196878 60.8870648 8.01886125 60.8870648 3.90630741 60.8870648.643488866 58.0221785.643488866 54.1282383.643488866 50.555363 3.37419162 48.6783686 6.2822663 47.1183228 4.57867078 44.8873338 3.72893548 43.0144556 3.72893548 41.2074368 3.72893548 38.1285074 6.17501816 35.8975184 9.79258056 35.8975184 13.410143 35.8975184 15.5386061 37.9515101 15.5386061 40.8534422 15.5386061 44.2163906 12.4902839 45.9493175 9.36771291 47.6122687 10.8939365 49.3822415 12.9151515 51.4362332 15.4684824 53.9141951 16.3924664 52.5681925 17.2422017 50.9422873 17.9846888 49.1023388L19.8656563 50.518317C19.0489204 52.3953115 18.091937 54.0911924 17.0648297 55.5071707L21.3547555 59.7180595 19.8656563 61.2040134 19.8656563 61.2040134ZM14.1567551 55.5771463C11.3889279 52.8151655 9.15734155 50.5512468 7.48674546 48.6042767 5.04066278 49.9502793 2.9823234 51.4732791 2.9823234 53.9471248 2.9823234 56.7420354 5.25103414 58.7260514 8.1261094 58.7260514 10.2545726 58.7260514 12.3459114 57.5940921 14.1567551 55.5771463L14.1567551 55.5771463ZM8.16323375 46.1263147C10.8939365 44.7103365 13.2698954 43.3643339 13.2698954 40.8534422 13.2698954 39.0134938 11.9210437 37.7374669 9.79258056 37.7374669 7.48674546 37.7374669 5.99764622 39.2604667 5.99764622 41.2074368 5.99764622 42.660461 6.74425831 44.2163906 8.15910883 46.1263147L8.16323375 46.1263147ZM40.3583017 38.5195479C34.7525237 38.5195479 30.2481016 42.8745042 30.2481016 48.3573037 30.2481016 53.8401032 34.7525237 58.2321055 40.3583017 58.2321055 43.0890044 58.2321055 45.7495834 57.1001462 47.7006747 55.2601977L49.4372696 57.1371921C46.9911869 59.4381568 43.6541197 60.8870648 40.2139292 60.8870648 33.0489282 60.8870648 27.3730264 55.3672193 27.3730264 48.3573037 27.3730264 41.3473881 33.119052 35.9345643 40.3170524 35.9345643 43.7242435 35.9345643 47.0200614 37.3134966 49.3960203 39.5444856L47.6924248 41.5984773C45.7784579 39.6885532 43.0807546 38.5195479 40.3500518 38.5195479L40.3583017 38.5195479ZM77.6022823 48.3943497C77.6022823 55.3672193 71.8562567 60.8870648 64.6211319 60.8870648 57.3860071 60.8870648 51.6028571 55.3672193 51.6028571 48.3943497 51.6028571 41.42148 57.3488827 35.9345643 64.6211319 35.9345643 71.8933811 35.9345643 77.6022823 41.42148 77.6022823 48.3943497L77.6022823 48.3943497ZM54.4779324 48.3943497C54.4779324 53.8812654 59.0896026 58.3061974 64.6211319 58.3061974 70.1526612 58.3061974 74.6942076 53.8812654 74.6942076 48.3943497 74.6942076 42.907434 70.1526612 38.5565938 64.6211319 38.5565938 59.0896026 38.5565938 54.4779324 42.9115502 54.4779324 48.3943497L54.4779324 48.3943497Z"></path>
      <polygon points="86.294 36.005 95.372 53.984 104.418 36.005 107.896 36.005 107.896 60.78 105.272 60.78 105.235 40.182 96.189 58.162 94.486 58.162 85.477 40.182 85.477 60.78 82.783 60.78 82.783 36.005 86.294 36.005"></polygon>
      <path d="M134.464423 44.3234122C134.464423 49.773282 130.916985 52.9221871 124.783216 52.9221871L118.294703 52.9221871 118.294703 60.7800431 115.456752 60.7800431 115.456752 36.00454 124.783216 36.00454C130.92111 36.00454 134.464423 39.0464235 134.464423 44.3234122L134.464423 44.3234122ZM131.733721 44.3933879C131.733721 40.6064693 129.143265 38.6224533 124.675968 38.6224533L118.290578 38.6224533 118.290578 50.3042738 124.675968 50.3042738C129.143265 50.3042738 131.733721 48.2873281 131.733721 44.3933879ZM153.476219 54.445187 139.962953 54.445187 137.195126 60.7800431 134.179803 60.7800431 145.317111 36.00454 148.26231 36.00454 159.362493 60.7800431 156.277046 60.7800431 153.476219 54.445187 153.476219 54.445187ZM152.341864 51.8272737 146.703087 39.0875857 141.134433 51.8272737 152.341864 51.8272737Z"></path>
      <polygon points="166.21 36.005 181.105 56.145 181.105 36.005 183.906 36.005 183.906 60.78 180.998 60.78 166.103 40.676 166.103 60.78 163.265 60.78 163.265 36.005"></polygon>
      <polygon points="200.261 52.181 200.261 60.78 197.46 60.78 197.46 52.251 187.849 36.005 190.794 36.005 198.846 48.995 206.791 36.005 209.699 36.005 200.265 52.181"></polygon>
    </g>
    <path fill="#93CBEA" d="M14.0133585 26.0139956 11.2585957 24.0151428 24.0948817 7.87151543C24.3839872 8.39187794 24.6896131 8.90398073 25.0117593 9.40369393L14.0092284 26.0181255 14.0133585 26.0139956ZM9.16877568 22.2310428 6.76093955 19.8233337 22.756736 5.16232649C22.9756302 5.66616955 23.2069147 6.1617529 23.4505893 6.64907652L9.16877568 22.2269129 9.16877568 22.2310428ZM4.98087544 17.733624 2.98191714 14.9790065 21.7737772 2.53573477C21.9307202 3.02305839 22.1000535 3.50212229 22.2817769 3.97705633L4.98087544 17.7294941 4.98087544 17.733624ZM1.5446496 12.6373752 0 9.60605713 21.0716638 0C21.1790458.470804176 21.2988181.933348629 21.4268506 1.39589308L1.5446496 12.6373752Z" transform="translate(3.494 45.771)"></path>
    <path fill="#FDDACF" d="M0 16.4038086 1.5446496 13.3724905 21.4268506 24.6139727C21.2988181 25.0765172 21.1790458 25.5390616 21.0716638 26.0098658L0 16.4038086ZM2.97778706 11.0308592 4.97674536 8.27624183 22.2776469 22.0286796C22.0959234 22.5036136 21.9265901 22.9826775 21.7696471 23.4700011L2.97778706 11.0308592ZM6.76506963 6.18653206 9.17290576 3.77882299 23.4547194 19.3566594C23.2110447 19.843983 22.9797603 20.3395664 22.7608661 20.8434094L6.76506963 6.18653206ZM11.2585957 1.99885282 14.0133585 0 25.0158893 16.6144316C24.6937432 17.1141448 24.3922474 17.6262476 24.0990118 18.1466101L11.2585957 1.99885282Z" transform="translate(3.494 6.476)"></path>
    <path fill="#0082CB" d="M23.8264265 14.3760468 0 15.412642 0 12.0096363 23.8264265 13.0462315C23.8222965 13.269244 23.8181664 13.4881266 23.8181664 13.7111392 23.8181664 13.9341517 23.8181664 14.1571642 23.8264265 14.3760468L23.8264265 14.3760468ZM.214764115 9.26740851.747544324 5.9057015 23.9751094 10.6261328C23.9296785 11.068028 23.8966379 11.514053 23.8677273 11.9642079L.214764115 9.26740851ZM1.38770659 3.23781117 2.44087677 0 24.3344263 8.18125502C24.2518247 8.63140989 24.1774833 9.08569462 24.111402 9.54410921L1.38770659 3.23781117ZM2.44087677 27.4181484 1.38770659 24.1803373 24.1072719 17.8740392C24.1733532 18.3324538 24.2435645 18.7867386 24.3302962 19.2368934L2.44087677 27.4181484ZM.747544324 21.5124469.214764115 18.1507399 23.8718574 15.4498107C23.8966379 15.8999656 23.9338086 16.3459906 23.9792395 16.7878857L.747544324 21.5124469Z" transform="translate(0 25.42)"></path>
    <path fill="#D64123" d="M34.5894128 38.7298382 58.4117092 38.1103591 58.4117092 40.1505105 34.5894128 39.5310313C34.5894128 39.3988758 34.5935429 39.2667202 34.5935429 39.1304348 34.5935429 38.9982792 34.5935429 38.8661237 34.5894128 38.7298382ZM58.0936931 44.2432029 57.775677 46.2585752 34.4655104 41.9387404C34.4902909 41.6702994 34.5109413 41.4059883 34.5315917 41.1334175L58.0978232 44.2390731 58.0936931 44.2432029ZM56.8133686 50.252151 56.1814665 52.1931857 34.130974 44.3877481C34.1805349 44.1151772 34.2218357 43.8426064 34.2631365 43.5700356L56.8133686 50.252151 56.8133686 50.252151ZM54.6120364 55.9843983 53.6868987 57.8015372 33.5734133 46.8821842C33.6477547 46.6054835 33.7179661 46.324653 33.7881774 46.0438224L54.6161665 55.9802684 54.6120364 55.9843983ZM51.5392575 61.3036595 50.3374045 62.955604 32.7473975 49.4633475C32.8547795 49.1783871 32.9539014 48.8892968 33.0530233 48.6002065L51.5351275 61.3077894 51.5392575 61.3036595ZM50.3415346 15.3052656 51.5433876 16.95721 33.0612835 29.6647929C32.9621616 29.3757026 32.8630397 29.0866124 32.7556576 28.8016519L50.3456647 15.3093954 50.3415346 15.3052656ZM53.6868987 20.4552025 54.6120364 22.2723414 33.7840473 32.2087874C33.7179661 31.9279569 33.6477547 31.6471263 33.5692832 31.3704256L53.6827686 20.4510726 53.6868987 20.4552025ZM56.1814665 26.0676838 56.8133686 28.0087186 34.2631365 34.690834C34.2218357 34.4182632 34.1805349 34.1456923 34.130974 33.8731215L56.1814665 26.0676838 56.1814665 26.0676838ZM57.771547 31.9981645 58.0895631 34.0135368 34.5233315 37.1191924C34.5068112 36.8507514 34.4861608 36.5823104 34.4572502 36.3138695L57.7674169 31.9940346 57.771547 31.9981645ZM47.9295684 65.4170013C47.7230644 65.5243777 47.5124304 65.6193645 47.3017964 65.722611L32.0328938 51.2309281C31.9007313 51.5324079 31.7603086 51.8297579 31.6157558 52.1229781L45.3565291 66.6022714C45.141765 66.6889985 44.9270009 66.7881152 44.7081067 66.8707124L45.7654069 68.0518527 48.1980235 65.6730527 47.9213082 65.4128714 47.9295684 65.4170013ZM17.5817469 0 20.9849321 0 20.4438917 12.4887002C19.6715669 12.8769072 18.9157624 13.2940232 18.1806084 13.744178L17.5817469 0ZM20.9849321 78.2608696 17.5817469 78.2608696 18.1806084 64.5125617C18.9157624 64.9627165 19.6674368 65.3839624 20.4438917 65.7680395L20.9849321 78.2567397 20.9849321 78.2608696ZM27.085059.747504876 26.4118561.640128485 26.4118561.640128485 25.4041168.479063898 23.7231746.214752782 22.4263297 11.5842606C22.595663 11.514053 22.7691263 11.4521051 22.9384595 11.3860273L22.4469801 15.1276815C22.8269474 15.4085121 23.2027846 15.6976024 23.5703616 15.9949524L24.52854 10.8161065C24.7102635 10.7582884 24.891987 10.6922106 25.0737104 10.6343926L27.085059.747504876ZM14.8393743 78.0419869 11.4774899 77.5092348 14.6370005 61.9644373C15.239992 62.4682804 15.863634 62.955604 16.5079263 63.4098887L14.8393743 78.0419869 14.8393743 78.0419869ZM32.9910721 2.44074796 30.8145204 1.7345417 30.4015125 1.59825628 30.4015125 1.59825628 29.7530901 1.38763336 27.349384 10.0438224C27.5393677 10.0025238 27.7376115 9.96948491 27.9275951 9.93231616L25.5941004 17.8079615C25.9038563 18.1094413 26.2053521 18.415051 26.4985877 18.7289205L29.7159194 9.63909602C29.9224233 9.61018699 30.1206671 9.5771481 30.3271711 9.55236893L32.982812 2.44074796 32.9910721 2.44074796ZM13.2823345 60.754388 8.8094588 76.8691063 5.57147676 75.8159917 11.7748556 59.2180796C12.2580749 59.7467018 12.7619445 60.2588046 13.2823345 60.7502581L13.2823345 60.754388ZM38.5625489 5.03843065 37.9554273 4.72869106 37.9554273 4.72869106 36.1381924 3.80360216 36.1381924 3.80360216 35.5310708 3.49386257 32.8506495 9.3747849C33.0612835 9.36652518 33.2719175 9.36652518 33.4866816 9.36652518L28.1258389 20.6038775C28.3695136 20.9094872 28.6049281 21.2192268 28.8362125 21.5372261L35.4154286 9.41608351C35.6343228 9.4284731 35.853217 9.43673282 36.0679811 9.45325227L38.5625489 5.04256051 38.5625489 5.03843065ZM3.03147809 74.767007 0 73.2224389 9.50331209 56.4221636C9.88327937 56.9507858 10.279767 57.4711483 10.6927749 57.9749914L3.03560817 74.7711369 3.03147809 74.767007ZM43.6590666 8.47447516 40.9043038 6.47562235 38.7194919 9.77538144C38.9383861 9.81255019 39.1531502 9.86210852 39.3720444 9.90340714L30.0958867 23.3956636C30.2858703 23.6971435 30.4675938 24.0027532 30.6493173 24.3124928L41.3586125 10.353562C41.5816368 10.4113801 41.804661 10.4609384 42.0276853 10.5270162L43.6590666 8.47447516 43.6590666 8.47447516ZM48.1567227 12.6621544 45.7488866 10.2544453 44.675066 11.4231961C44.8898301 11.5099231 45.1004642 11.6090398 45.3152283 11.6998968L31.6157558 26.1337616C31.7603086 26.4269818 31.8966012 26.7284616 32.0328938 27.0258116L47.2398452 12.5919468C47.4504792 12.6993232 47.6693734 12.7984398 47.8800074 12.9140759L48.1567227 12.6580245 48.1567227 12.6621544ZM41.8913927 71.0707812 43.6590666 69.7863944 42.0276853 67.7338534C41.8087911 67.7958013 41.5816368 67.8494895 41.3586125 67.9073076L30.6493173 53.9483767C30.4717239 54.2581163 30.2858703 54.5637261 30.0958867 54.8652059L39.3720444 68.3574624C39.1531502 68.398761 38.9383861 68.4483194 38.7194919 68.4854881L40.9043038 71.7852472 41.4536043 71.3846507 41.4536043 71.3846507 41.8872626 71.0707812 41.8913927 71.0707812ZM0 5.03843065 3.03147809 3.49386257 10.6886448 20.290008C10.2756369 20.7938511 9.8791493 21.3100837 9.49918201 21.8428358L0 5.03843065ZM38.5625489 73.2224389 36.0679811 68.8117472C35.853217 68.8282666 35.6343228 68.8365263 35.4154286 68.8489159L28.8362125 56.7277733C28.6049281 57.0416428 28.3653835 57.3555122 28.1258389 57.6611219L33.4866816 68.8984742C33.2760476 68.8984742 33.0612835 68.8984742 32.8506495 68.8902145L35.5310708 74.7711369 36.1381924 74.4613973 36.1381924 74.4613973 37.9554273 73.5363084 37.9554273 73.5363084 38.5625489 73.2265688 38.5625489 73.2224389ZM11.7748556 19.0386601 5.57147676 2.44074796 8.8094588 1.38763336 13.2823345 17.5023517C12.7619445 17.9938052 12.2580749 18.505908 11.7748556 19.0345302L11.7748556 19.0386601ZM32.3467798 76.0266147 32.9952022 75.8159917 30.3395613 68.7043708C30.1330574 68.6795916 29.9306835 68.6465527 29.7283096 68.6176437L26.510978 59.5278192C26.2177424 59.8416887 25.9162466 60.1472984 25.6064906 60.4487782L27.9399854 68.3244235C27.7458716 68.2872548 27.5517579 68.2542159 27.3617743 68.2129173L29.7654803 76.8691063 31.7272679 76.2331077 32.35504 76.0307445 32.35504 76.0307445 32.3467798 76.0266147ZM11.48162.747504876 14.8435044.214752782 16.5120564 14.846851C15.867764 15.3052656 15.2441221 15.7884593 14.6411305 16.2923024L11.48162.747504876ZM25.0737104 67.6182173C24.8878569 67.5603992 24.7102635 67.4984513 24.52854 67.4365034L23.5703616 62.2576575C23.2027846 62.5550075 22.8269474 62.8440977 22.4469801 63.1249283L22.9384595 66.8665825C22.7691263 66.8005048 22.595663 66.7385568 22.4263297 66.6683492L23.7231746 78.0378571 27.085059 77.505105 25.0737104 67.6099576 25.0737104 67.6182173Z" transform="translate(19.85)"></path>
  </g>
</svg>
