<?xml version="1.0" encoding="UTF-8"?>
<svg xmlns="http://www.w3.org/2000/svg" width="301" height="300" viewBox="0 0 301 300" fill="none">
  <path d="M150.5 293.333C229.311 293.333 293.2 229.444 293.2 150.633C293.2 71.8221 229.311 7.93311 150.5 7.93311C71.689 7.93311 7.80005 71.8221 7.80005 150.633C7.80005 229.444 71.689 293.333 150.5 293.333Z" fill="#00684B"></path>
  <path d="M150.5 288.933C226.881 288.933 288.8 227.014 288.8 150.633C288.8 74.252 226.881 12.333 150.5 12.333C74.119 12.333 12.2 74.252 12.2 150.633C12.2 227.014 74.119 288.933 150.5 288.933Z" fill="white"></path>
  <path d="M150.5 287.266C114.005 287.266 79.6905 273.052 53.8857 247.247C28.081 221.442 13.8667 187.128 13.8667 150.633C13.8667 114.138 28.081 79.8233 53.8857 54.0186C79.6905 28.2138 114.005 13.9995 150.5 13.9995C186.995 13.9995 221.31 28.2138 247.114 54.0186C272.919 79.8233 287.133 114.138 287.133 150.633C287.133 187.128 272.919 221.442 247.114 247.247C221.31 273.052 186.995 287.266 150.5 287.266ZM150.5 15.5281C114.414 15.5281 80.4857 29.5805 54.9667 55.0995C29.4476 80.6186 15.3953 114.547 15.3953 150.633C15.3953 186.719 29.4476 220.647 54.9667 246.166C80.4857 271.685 114.414 285.738 150.5 285.738C186.586 285.738 220.514 271.685 246.033 246.166C271.552 220.647 285.605 186.719 285.605 150.633C285.605 114.547 271.552 80.6186 246.033 55.0995C220.514 29.5805 186.586 15.5281 150.5 15.5281Z" fill="#00684B"></path>
  <path d="M119.862 271.076C121.657 271.072 121.819 270.667 122.2 269.595C122.529 268.762 123.595 264.995 124.567 260.981C125.019 259.11 125.357 257.838 125.376 257.372C125.405 257.129 125.305 256.757 125.081 256.638C124.61 256.367 124.024 256.195 123.81 256.048C123.414 255.857 123.167 255.576 123.224 255.338C123.276 255.129 123.681 255.01 123.99 255.019C125.305 255.053 127.143 255.119 128.057 254.872C128.662 254.705 129.348 254.619 129.586 254.676C129.676 254.7 129.795 254.853 129.752 255.029C129.671 255.357 129.29 256.681 128.729 258.872C128.195 260.943 126.943 266.119 126.119 269.662C125.638 271.653 125.543 271.914 127.39 272.867C127.695 273.034 128.024 273.367 127.948 273.695C127.89 273.934 127.386 273.938 127.057 273.857C126.581 273.743 124.943 273.219 123.786 272.938C121.529 272.391 119.757 272.153 119.405 272.067C118.99 271.967 118.629 271.753 118.695 271.486C118.762 271.219 119.138 271.091 119.867 271.076H119.862Z" fill="#006648"></path>
  <path d="M149.495 261.272C149.405 262.586 148.586 263.386 147.619 264.052C147.1 264.448 146.4 264.857 145.886 265.191C145.757 265.243 145.748 265.395 145.867 265.467C147.786 267.01 149.529 268.843 149.357 271.348C149.243 272.995 148.176 274.238 147.081 274.991C145.6 276.024 143.776 276.267 142.524 276.181C138.376 275.895 136.729 273.114 136.867 271.1C137 269.148 138.352 268.229 139.286 267.586C139.99 267.143 140.662 266.762 141.076 266.543C141.109 266.514 141.205 266.429 141.119 266.333C140.538 265.862 139.905 265.272 139.452 264.686C138.548 263.61 138.014 262.443 138.109 261.038C138.229 259.3 139.109 258.105 140.205 257.348C141.238 256.624 142.709 256.11 144.329 256.224C147.471 256.438 149.686 258.552 149.5 261.272H149.495ZM146.033 272.343C146.157 270.572 144.409 268.8 142.462 267.252C142.314 267.152 142.081 266.981 141.957 267.033C141.071 267.462 139.886 269.1 139.757 270.957C139.69 271.933 140.024 272.905 140.581 273.681C141.229 274.524 142.229 275.114 143.176 275.176C145.038 275.305 145.929 273.957 146.038 272.338L146.033 272.343ZM141.162 259.838C141.029 261.791 142.909 263.391 144.695 264.648C144.752 264.714 144.962 264.757 145.062 264.672C145.386 264.448 145.909 263.962 146.224 263.4C146.471 262.924 146.833 262.124 146.9 261.148C147.005 259.624 145.781 257.329 143.89 257.2C142.367 257.095 141.281 258.124 141.167 259.833L141.162 259.838Z" fill="#006648"></path>
  <path d="M169.343 268.295C169.609 271.005 168.452 273.024 166.805 274.414C165.619 275.481 164.252 275.986 163.1 276.095C159.024 276.491 156.39 273.772 155.99 269.691C155.543 265.095 158.276 260.033 162.148 256.891C164.148 255.343 166.224 254.281 167.471 254.157C168.019 254.105 168.257 254.324 168.271 254.51C168.286 254.695 168.238 254.791 167.8 255.019C166.571 255.662 164.728 256.914 162.881 259.095C160.843 261.505 159.228 265.414 159.562 268.853C159.933 272.657 162.052 274.848 164.395 274.619C164.762 274.586 165.381 274.338 165.8 273.9C166.409 273.229 166.705 272.153 166.576 270.814C166.314 268.105 164.824 266.41 162.667 266.619C162.3 266.653 161.386 267.053 160.948 267.276C160.8 267.319 160.605 267.219 160.59 267.095C160.571 266.881 160.657 266.505 160.905 266.205C161.181 265.9 161.948 265.243 162.648 264.838C163.343 264.4 163.933 264.162 164.571 264.095C167.705 263.791 169.152 266.324 169.343 268.3V268.295Z" fill="#006648"></path>
  <path d="M186.357 258.943C187.543 263.309 185.748 269.057 182.152 272.729C180.714 274.195 179.557 274.957 178.643 275.205C178.438 275.262 177.924 275.243 177.833 274.919C177.819 274.862 177.895 274.681 177.976 274.629C179.424 273.314 180.857 271.595 181.881 269.29C183.209 266.362 183.681 262.971 182.886 260.048C182.333 258.009 181.157 255.795 179.586 255.019C178.933 254.719 178.081 254.729 177.638 254.852C175.895 255.324 175.638 257.519 176.052 259.052C176.743 261.59 178.562 263.157 180.805 262.548C181.248 262.429 181.724 262.076 181.905 261.933C182.057 261.795 182.252 261.933 182.286 262.052C182.324 262.2 182.324 262.424 182.286 262.624C182.238 262.795 182.171 263.129 181.919 263.486C181.319 264.314 180.319 265.062 179.376 265.319C176.895 265.995 174.395 264.709 173.529 261.524C173.081 259.871 173.205 257.3 175.381 255.157C176.1 254.424 177.362 253.7 178.305 253.443C182.229 252.376 185.338 255.176 186.362 258.952L186.357 258.943Z" fill="#006648"></path>
  <path d="M150.5 243.438C99.3286 243.438 57.6953 201.804 57.6953 150.633C57.6953 99.4615 99.3286 57.8281 150.5 57.8281C201.672 57.8281 243.305 99.4615 243.305 150.633C243.305 201.804 201.672 243.438 150.5 243.438ZM150.5 59.3567C100.172 59.3567 59.2239 100.304 59.2239 150.633C59.2239 200.961 100.172 241.909 150.5 241.909C200.829 241.909 241.776 200.961 241.776 150.633C241.776 100.304 200.829 59.3567 150.5 59.3567Z" fill="#00684B"></path>
  <path d="M150.5 239.947C101.252 239.947 61.1858 199.881 61.1858 150.633C61.1858 101.386 101.252 61.3188 150.5 61.3188C199.748 61.3188 239.814 101.386 239.814 150.633C239.814 199.881 199.748 239.947 150.5 239.947ZM150.5 62.7855C102.062 62.7855 62.6572 102.19 62.6572 150.628C62.6572 199.066 102.062 238.471 150.5 238.471C198.938 238.471 238.343 199.066 238.343 150.628C238.343 102.19 198.938 62.7855 150.5 62.7855Z" fill="#00684B"></path>
  <path d="M49.0905 202.733C52.1667 200.752 54.9001 200.757 57.3858 201.509C59.3096 202.137 61.5144 203.69 62.9144 205.861C64.581 208.452 65.0667 211.247 64.462 213.847C63.9334 216.085 62.5286 218.095 60.2096 219.585C57.2525 221.485 54.562 221.385 51.981 220.49C50.4572 219.952 48.1763 218.552 46.762 216.352C43.0667 210.609 45.5239 205.023 49.0905 202.728V202.733ZM50.781 218.09C51.962 218.366 54.2382 218.147 57.1715 216.261C60.9858 213.809 63.681 209.137 61.481 205.718C60.8191 204.695 59.7572 204.271 59.1953 204.147C57.4334 203.828 54.8001 204.452 52.3048 206.057C50.7382 207.061 48.0001 209.618 47.4334 212.504C47.1858 213.733 47.3858 215.333 48.062 216.38C48.7858 217.504 50.1001 217.937 50.781 218.085V218.09Z" fill="#006648"></path>
  <path d="M41.0906 184.776C41.2382 184.847 41.7573 185.338 42.1858 185.738C42.2906 185.857 42.462 185.728 42.5525 185.638C43.6334 184.533 46.6049 180.909 47.6334 179.142C48.2096 178.095 48.1668 177.214 48.062 176.509C48.0144 176.214 48.143 175.89 48.2525 175.852C48.4144 175.79 48.7334 175.985 48.8668 176.185C49.2287 176.581 49.743 177.814 49.8287 178.062C50.9477 181.119 50.1382 182.371 49.6525 183.076C48.962 184.071 47.1906 186.328 45.5192 188.266C45.2811 188.542 44.8239 189.076 44.7525 189.381C44.6763 189.685 44.6382 190.166 44.7668 190.519C44.7953 190.6 44.9763 190.752 45.1239 190.728C45.7192 190.571 49.4192 189.19 50.5049 188.7C51.6668 188.152 51.8334 187.933 51.7144 186.59C51.6811 186.076 51.7906 185.79 52.0096 185.709C52.3096 185.6 52.6334 186.066 52.7858 186.476C53.1144 187.376 53.5096 188.962 53.9001 190.028C54.3382 191.228 54.9382 192.528 55.0477 192.828C55.3477 193.647 55.1668 193.838 54.9239 193.923C54.7858 193.971 54.4477 193.723 54.2096 193.409C53.3573 192.266 52.8715 192.2 52.0573 192.433C49.3049 193.195 47.2763 193.995 44.6573 194.952C42.3668 195.79 40.1477 196.662 39.5668 196.938C39.0953 197.171 38.6049 197.6 38.7811 199.019C38.8382 199.433 38.7382 199.838 38.5239 199.919C38.3334 199.99 37.9287 199.642 37.7858 199.262C37.4763 198.414 37.1763 197.6 36.9668 197.023C36.6096 196.042 35.5715 193.638 35.0334 192.162C34.6953 191.233 33.8192 188.676 34.4763 186.828C34.843 185.8 35.9239 184.69 37.1477 184.242C38.6192 183.704 39.6954 184.023 41.0858 184.781L41.0906 184.776ZM36.4382 190.157C36.0144 191.023 36.0192 191.795 36.2573 192.452C36.2953 192.562 36.6096 193.157 36.7858 193.309C36.9096 193.39 37.2953 193.433 37.4668 193.4C38.3953 193.152 42.9763 191.633 43.7811 191.214C43.9049 191.138 43.9715 190.895 43.9334 190.785C43.4573 189.476 42.643 188.442 42.3906 188.257C41.5477 187.728 40.4334 187.395 38.9906 187.923C38.2525 188.195 37.1049 188.766 36.4334 190.157H36.4382Z" fill="#006648"></path>
  <path d="M28.6904 165.323C28.5475 164.376 28.2285 163.247 28.0761 162.861C28.0285 162.752 28.2237 162.485 28.4237 162.428C28.5332 162.38 31.0904 161.99 31.6666 161.904C32.0666 161.842 32.5332 162.004 32.5761 162.266C32.6142 162.523 32.2237 162.847 31.919 162.957C30.338 163.58 29.9856 164.547 29.957 165.109C29.938 165.552 29.957 166.433 30.3618 169.104C30.3809 169.219 30.5237 169.404 31.2475 169.323C31.9428 169.247 35.2856 168.823 37.3809 168.504C37.4666 168.49 37.6761 168.314 37.6428 168.109L37.2666 165.638C37.0047 163.914 36.8761 164.052 35.5856 163.69C35.1237 163.557 34.7189 163.409 34.6761 163.123C34.638 162.866 35.1094 162.704 35.5189 162.671C36.3047 162.609 36.8285 162.59 37.4618 162.49C38.2094 162.376 38.719 162.266 39.4856 162.061C39.9951 161.923 40.3999 162.071 40.438 162.328C40.4713 162.557 40.1666 162.871 39.8666 163.004C38.7189 163.561 38.4999 164.066 38.5428 164.914C38.5951 165.847 38.757 166.88 38.8999 167.828C38.9189 167.942 39.3094 168.204 39.3666 168.2C40.2999 168.147 42.2761 167.814 43.1047 167.657C43.7047 167.538 44.7809 167.461 45.4237 167.242C45.6475 167.18 46.038 166.823 46.0713 166.466C46.0904 166.023 46.0237 165.18 45.8809 164.261C45.7142 163.171 45.6285 162.419 45.1999 161.719C44.7285 160.938 43.8285 160.252 42.738 159.833C41.8904 159.49 41.5332 159.252 41.4951 158.995C41.4428 158.652 42.1142 158.638 42.3189 158.604C42.5475 158.571 45.3237 159.028 45.938 159.2C46.2142 159.276 46.4428 159.8 46.4618 159.942C46.5094 160.257 47.6856 168.719 47.8285 169.642C48.1475 171.738 48.3237 171.919 48.4713 172.895C48.557 173.442 48.5428 173.942 48.257 173.985C47.9713 174.028 47.6809 173.69 47.4904 173.19C46.9237 171.78 46.5332 171.542 44.9666 171.666C43.7761 171.761 42.1142 171.866 38.5856 172.409C35.1951 172.928 33.557 173.147 32.7285 173.333C31.7904 173.533 31.1618 173.838 31.1475 175.104C31.1237 175.723 31.0618 176.085 30.7189 176.138C30.4618 176.176 30.2047 175.657 30.1475 175.285C29.9428 173.938 29.5761 170.961 29.3713 169.642L28.7142 165.333L28.6904 165.323Z" fill="#006648"></path>
  <path d="M28.4333 136.976C28.5714 136.576 28.6999 135.828 28.7142 135.595C28.7237 135.447 29.0523 135.295 29.3999 135.285C30.3333 135.28 31.8618 134.957 33.0809 135.023C33.4285 135.042 33.8237 135.266 33.8047 135.614C33.7952 135.761 33.4333 136 32.9904 136.123C32.5142 136.271 31.4428 136.738 30.8666 137.138C30.0761 137.733 28.7047 139.347 28.5761 141.666C28.3476 145.728 32.0428 148.376 36.538 148.628C38.5428 148.738 40.2714 148.514 41.7952 147.757C43.919 146.738 45.6285 144.771 45.7666 142.276C45.7857 141.928 45.6999 141.371 45.3285 140.766C45.0618 140.342 44.3476 140.128 43.0666 140.057C42.0809 140 41.0618 139.976 40.7095 140.042C40.0333 140.18 39.4095 140.376 39.138 142.138C39.0857 142.571 38.7714 142.99 38.5095 142.976C38.3047 142.966 38.0999 142.514 38.1285 141.938C38.2047 140.576 38.3952 139.219 38.438 138.433C38.4761 137.738 38.4047 135.871 38.4714 134.709C38.5047 134.128 38.7476 133.938 38.9809 133.952C39.1237 133.961 39.4285 134.295 39.4952 134.652C39.6999 135.709 40.0809 135.642 40.5428 135.728C40.8904 135.776 42.9142 136.004 44.1047 136.071C44.4809 136.09 44.5428 136.038 45.0333 135.628C45.1523 135.547 45.2761 135.409 45.5095 135.423C45.6857 135.433 45.8999 135.709 45.9476 135.885C46.0666 136.385 46.2714 137.385 46.4095 138.557C46.5761 139.79 46.8047 142.419 46.7714 143C46.5999 146.076 45.5047 149.042 43.8428 150.666C42.4904 151.957 40.4285 153.476 36.4237 153.252C33.2904 153.076 31.2476 151.595 29.7523 149.68C28.2285 147.761 27.3857 144.661 27.5523 141.614C27.6571 139.7 28.0428 138.061 28.419 136.976H28.4333Z" fill="#006648"></path>
  <path d="M44.3049 107.709C47.8096 108.762 49.5811 110.843 50.6287 113.219C51.4001 115.09 51.6573 117.776 50.9096 120.252C50.0239 123.2 48.2144 125.385 45.843 126.614C43.7953 127.666 41.3573 127.905 38.7144 127.109C35.3477 126.1 33.6763 123.985 32.6811 121.443C32.1049 119.933 31.6858 117.29 32.4382 114.785C34.4049 108.247 40.243 106.485 44.3049 107.705V107.709ZM33.7287 118.966C34.2858 120.043 35.9287 121.628 39.2715 122.633C43.6096 123.938 48.9144 122.952 50.0858 119.062C50.4382 117.895 50.0668 116.809 49.7906 116.305C48.8906 114.762 46.7001 113.162 43.862 112.305C42.0811 111.771 38.3573 111.347 35.7953 112.79C34.7001 113.4 33.6144 114.59 33.2573 115.79C32.8715 117.071 33.3953 118.352 33.7287 118.966Z" fill="#006648"></path>
  <path d="M39.3666 96.8615C39.6904 96.3091 41.1761 94.0472 41.9238 92.771C41.9952 92.6472 42.5095 92.4043 42.5857 92.3853C43.2571 92.271 44.4619 91.9996 46.2523 91.6329C48.5428 91.2186 55.9047 89.3281 57.7571 88.8615C57.9142 88.8186 57.7999 88.6186 57.7476 88.5853C57.119 88.0519 54.1619 86.4281 52.7857 85.6234C51.9571 85.1424 50.5857 84.4424 49.938 84.1662C49.3952 83.9472 48.7047 83.9186 47.7142 84.9186C47.2809 85.371 46.938 85.6758 46.6095 85.4853C46.4333 85.3805 46.4047 85.0281 46.6952 84.5281C47.0476 83.9281 47.3761 83.4138 47.6 83.0377C48.3761 81.7091 48.9 80.4662 49.2809 79.8138C49.5285 79.3853 49.8095 79.3138 50.0095 79.4329C50.1333 79.5043 50.2428 79.8377 50.1476 80.3519C49.7904 82.0615 50.3809 82.371 51.1619 82.9948C51.9809 83.6091 58.9476 87.871 60.0238 88.4996C61.0523 89.0996 63.5238 90.3377 64.2761 90.7805C64.4999 90.9138 64.5095 91.4186 64.4666 91.4948C64.1142 92.0948 63.0476 92.3138 62.5904 92.3519C61.619 92.4567 60.7999 92.6519 59.5761 92.8472C55.2904 93.5091 48.9095 95.0996 45.038 95.8043C44.8142 95.8424 44.9761 96.1377 45.0285 96.1662C45.6761 96.6138 46.1761 96.971 48.1428 98.1519C52.2047 100.59 53.1666 101.185 54.6999 101.842C55.3714 102.133 56.0095 102.133 57.1047 101.123C57.5476 100.709 57.8571 100.585 58.0047 100.676C58.3047 100.852 58.1999 101.261 57.9238 101.738C57.4999 102.466 57.219 102.771 56.7047 103.652C56.3857 104.204 55.4428 106.042 55.1952 106.471C54.9904 106.823 54.638 107.023 54.4619 106.919C54.1619 106.742 54.2666 106.333 54.338 106.038C54.6714 104.719 54.7999 103.919 52.9619 102.747C49.8238 100.747 45.7571 97.9757 44.0999 97.0091C43.0476 96.3948 42.7047 96.2281 42.519 96.2567C41.9285 96.3472 41.3285 96.1662 40.2476 97.3853C40.038 97.6329 39.5619 97.9281 39.3619 97.8091C39.1619 97.69 39.1523 97.2472 39.3714 96.871L39.3666 96.8615Z" fill="#006648"></path>
  <path d="M68.5333 58.9235C69.2286 58.2664 69.9762 57.3616 70.2143 57.0188C70.281 56.9188 70.6048 56.9283 70.7667 57.0569C70.8667 57.1235 72.6429 58.9997 73.0429 59.4235C73.3238 59.7188 73.4524 60.195 73.2619 60.3759C73.0714 60.5569 72.581 60.4188 72.3191 60.2235C70.9095 59.2759 69.9143 59.5378 69.4333 59.8331C69.0571 60.0664 68.3429 60.5807 66.3762 62.4378C66.2905 62.5188 66.2238 62.7426 66.7 63.2902C67.1572 63.8188 69.4048 66.3283 70.8619 67.8712C70.9238 67.9331 71.1857 68.0045 71.3333 67.8664L73.1524 66.1521C74.4191 64.9569 74.2381 64.9283 73.8 63.6616C73.6476 63.2045 73.5381 62.7902 73.7476 62.5902C73.9381 62.4092 74.3381 62.7092 74.6 63.0283C75.0952 63.6378 75.4143 64.0616 75.8524 64.5235C76.3714 65.0712 76.7524 65.4331 77.3524 65.9426C77.7524 66.2807 77.8667 66.695 77.6762 66.8759C77.5095 67.0331 77.0762 66.9616 76.7952 66.7902C75.6857 66.1616 75.1476 66.2712 74.4714 66.7854C73.7381 67.3616 72.9762 68.0759 72.2762 68.7331C72.1905 68.814 72.2 69.2854 72.2381 69.3283C72.8143 70.0616 74.2095 71.5045 74.8095 72.095C75.2476 72.5188 75.9238 73.3616 76.4667 73.7664C76.6476 73.914 77.1572 74.0331 77.4714 73.8569C77.8476 73.6188 78.5 73.0854 79.1762 72.4473C79.981 71.6902 80.5476 71.195 80.881 70.4426C81.2524 69.6092 81.3095 68.4807 81.0333 67.3426C80.8333 66.4521 80.8238 66.0235 81.0143 65.8426C81.2667 65.6045 81.6619 66.1473 81.8048 66.295C81.9619 66.4664 83.1667 69.0045 83.3714 69.6092C83.4667 69.8807 83.1667 70.3664 83.0571 70.4616C82.8238 70.6807 76.5333 76.4569 75.8572 77.095C74.3143 78.5521 74.2667 78.795 73.5476 79.4712C73.1476 79.8521 72.7286 80.1235 72.5286 79.914C72.3286 79.7045 72.4429 79.2759 72.7476 78.8331C73.5857 77.5616 73.5571 77.1092 72.5667 75.8902C71.8143 74.9616 70.781 73.6616 68.3286 71.0616C65.9762 68.5664 64.8619 67.3426 64.2429 66.7712C63.5429 66.114 62.9381 65.7664 61.8857 66.4759C61.3619 66.8092 61.0286 66.9664 60.7905 66.7092C60.6095 66.5188 60.8905 66.014 61.1667 65.7569C62.1572 64.8188 64.3952 62.8283 65.3667 61.914L68.5381 58.9235H68.5333Z" fill="#006648"></path>
  <path d="M84.6095 47.7612C84.4143 47.8851 84.1381 48.266 84.1143 48.3898C84.0857 48.5089 84.1476 48.8184 84.4809 49.3993C84.7666 49.9041 86.6904 52.9184 88.4476 55.7279C89.8524 57.9327 90.7666 59.3136 91.1428 59.8993C92.0904 61.3279 92.4904 61.8993 94.2285 61.2755C94.7809 61.0612 95.119 61.1565 95.2571 61.3755C95.3809 61.5708 95.1 61.9946 94.7571 62.2089C94.119 62.6136 92.3619 63.5327 91.3095 64.2041C90.5762 64.6708 89.3238 65.5755 88.5857 66.0422C87.9238 66.466 87.4952 66.5993 87.2904 66.2803C87.1809 66.1089 87.4333 65.6374 87.6285 65.4089C88.5571 64.4374 88.6762 63.9136 88.0238 62.6755C87.5333 61.747 86.719 60.3041 85.919 59.0565C85.419 58.2708 81.8238 52.6374 81.3714 52.0327C80.7524 51.2231 80.2666 50.947 78.8333 51.6184C78.5714 51.7517 78.2 51.7089 78.1095 51.5612C77.9857 51.366 78.0952 51.0517 78.3571 50.8184C78.4904 50.6993 78.9285 50.4184 79.1476 50.2803C80.9857 49.1089 82.9 47.5755 83.9809 46.8898C86.3571 45.3755 88.2809 44.6612 89.9809 45.0612C91.8524 45.4517 92.9476 46.5803 93.5095 47.4612C94.7285 49.3708 94.6143 51.0279 94.2952 52.0946C94 53.0374 92.8904 54.5422 91.9857 55.1184C91.7143 55.2898 90.9762 55.6946 90.6428 55.766C90.1666 55.8279 89.8904 55.8327 89.7381 55.5851C89.6762 55.4898 89.7619 55.1898 89.9571 55.066C90.1285 54.9565 90.1047 54.9708 90.2 54.9089C91.1047 54.3327 91.6666 52.1803 90.1333 49.7803C88.9619 47.9422 86.4666 46.5708 84.6047 47.7565L84.6095 47.7612Z" fill="#006648"></path>
  <path d="M100.595 41.7519C99.962 40.509 99.7763 40.0804 98.4096 40.2947C97.662 40.3995 97.3953 40.2947 97.3001 40.0804C97.2096 39.8662 97.5525 39.4947 98.0858 39.2614C98.9096 38.9043 100.372 38.3947 101.248 38.0138C102.552 37.4471 103.572 36.8757 104.505 36.4709C104.957 36.2757 105.467 36.209 105.586 36.4757C105.714 36.7709 105.381 37.1662 104.962 37.4423C103.829 38.1852 103.995 38.9376 104.243 39.6519C104.448 40.1947 104.648 40.8043 106.491 45.0423C108.262 49.1185 108.695 50.0376 109.081 50.79C109.919 52.3566 110.186 52.5281 111.772 52.3138C112.31 52.2376 112.657 52.3138 112.786 52.6043C112.924 52.9233 112.391 53.2185 112.067 53.3614C111.148 53.7281 109.305 54.3709 108.014 54.9662C107.243 55.2995 106.21 55.8423 105.224 56.2757C104.529 56.5757 104.238 56.4804 104.11 56.19C104.029 56.0043 104.186 55.7138 104.705 55.2995C105.748 54.4995 105.686 53.7662 105.262 52.6471C104.852 51.5566 103.724 48.8185 102.743 46.5519C102.21 45.3281 101.148 42.809 100.595 41.7519Z" fill="#006648"></path>
  <path d="M122.733 30.8521C122.824 30.8568 123.186 31.1806 123.257 31.3425C123.338 31.6521 124.262 33.9616 124.291 34.0711C124.405 34.4901 124.362 34.7759 124.219 34.814C123.967 34.8806 123.424 34.7568 123.167 34.3759C122.643 33.5521 121.929 32.9044 121.481 32.6949C120.576 32.2473 119.791 32.2187 118.891 32.4568C117.824 32.7425 116.452 34.133 116.938 35.9282C117.338 37.414 118.738 38.033 121.705 38.8901C126.429 40.2378 127.119 42.1282 127.481 43.4759C127.871 44.933 127.471 46.9092 126.052 48.3425C125.257 49.1901 123.714 50.052 122.338 50.4235C120.319 50.9663 119.352 50.9568 117.933 50.8235C117.714 50.7901 117.005 50.3806 116.938 50.2473C116.424 49.333 115.852 48.2235 115.581 47.214C115.529 47.0187 115.752 46.5044 115.891 46.4663C116.143 46.3997 116.767 46.9235 117.448 47.6711C118.829 49.2235 120.6 49.7711 122.171 49.3473C123.181 49.0759 124.638 47.7806 124.186 46.0997C123.876 44.9473 123 44.0425 120.186 43.0854C116.519 41.8759 114.662 40.7806 113.976 38.2282C113.51 36.4901 114.038 34.8711 114.724 33.9663C115.495 32.9187 116.662 31.9997 118.991 31.3759C120.224 31.0425 121.824 30.9473 122.729 30.8521H122.733Z" fill="#006648"></path>
  <path d="M147.171 27.8281C147.848 27.9567 148.405 28.0043 149.224 28.0329C149.429 28.0472 149.657 28.4091 149.681 28.7281C149.805 29.6519 149.895 30.5472 150.019 31.471C150.09 32.0805 149.929 32.671 149.581 32.6948C149.41 32.7091 149.124 32.3758 148.914 31.9281C148.538 31.1091 148.11 30.4139 147.557 30.0139C146.414 29.1043 144.857 28.4567 143.29 28.5662C138.738 28.89 137.19 32.5234 137.505 36.9567C137.643 38.8996 138.114 40.6139 138.843 41.8424C140.629 44.8615 142.991 45.7424 145.224 45.5853C145.514 45.5662 146.9 45.4091 147.819 44.79C148.762 44.1424 149.491 43.3043 150.043 42.071C150.371 41.3758 150.581 41.0424 150.871 41.0234C151.191 40.9996 151.219 41.8139 151.152 42.1377C151.033 42.9043 150.733 44.0615 150.595 44.5377C150.529 44.8043 150.043 45.3615 149.562 45.5996C149.195 45.771 147.419 46.6234 144.638 46.8234C140.233 47.1329 137.057 45.4662 135.771 44.19C134.581 42.9948 133.11 41.1139 132.881 37.9281C132.629 34.3329 134.4 31.8186 135.548 30.7472C137.867 28.5424 140.957 27.771 143.162 27.6139C144.671 27.5091 146.105 27.6139 147.167 27.8234L147.171 27.8281Z" fill="#006648"></path>
  <path d="M177.519 39.7045C176.952 43.3188 175.133 45.3616 172.919 46.7188C171.171 47.7378 168.543 48.3569 165.99 47.9569C162.948 47.4807 160.533 45.9855 158.995 43.7997C157.671 41.914 157.105 39.5331 157.533 36.8045C158.076 33.3331 159.943 31.3854 162.324 30.0569C163.738 29.2807 166.305 28.5045 168.886 28.9093C175.633 29.9664 178.171 35.5093 177.519 39.6997V39.7045ZM164.924 30.7616C163.933 31.4569 162.586 33.3045 162.043 36.7521C161.343 41.2283 163.038 46.3474 167.057 46.9807C168.262 47.1712 169.286 46.6521 169.748 46.314C171.157 45.2093 172.443 42.8235 172.9 39.895C173.186 38.0569 173.1 34.3093 171.319 31.9712C170.562 30.9712 169.238 30.0569 168 29.8616C166.681 29.6569 165.481 30.3474 164.919 30.7616H164.924Z" fill="#006648"></path>
  <path d="M193.486 36.8091C193.267 36.7234 192.8 36.7281 192.686 36.7805C192.571 36.8281 192.362 37.0567 192.09 37.671C191.852 38.2043 190.567 41.5377 189.343 44.6139C188.4 47.052 187.829 48.6091 187.576 49.2567C186.986 50.8662 186.762 51.5281 188.295 52.5567C188.795 52.8758 188.919 53.2043 188.824 53.4472C188.738 53.6662 188.233 53.6853 187.852 53.5377C187.148 53.2662 185.367 52.3901 184.205 51.9377C183.39 51.6234 181.924 51.1472 181.109 50.8329C180.376 50.552 180.014 50.2853 180.148 49.9329C180.219 49.7424 180.748 49.6662 181.052 49.6901C182.386 49.8615 182.876 49.6472 183.486 48.3901C183.943 47.4472 184.624 45.9329 185.157 44.552C185.49 43.6853 187.905 37.452 188.119 36.7281C188.405 35.7472 188.338 35.1948 186.948 34.4377C186.686 34.3043 186.5 33.9853 186.562 33.8234C186.648 33.6043 186.962 33.5091 187.309 33.5805C187.481 33.6186 187.971 33.8043 188.214 33.8996C190.248 34.6853 192.619 35.3234 193.81 35.7853C196.438 36.7996 198.152 37.9329 198.838 39.5377C199.629 41.2758 199.371 42.8281 198.995 43.8043C198.176 45.9186 196.776 46.8091 195.729 47.1805C194.795 47.5043 192.929 47.4996 191.924 47.1091C191.624 46.9948 190.862 46.6329 190.605 46.4139C190.271 46.0662 190.11 45.8472 190.21 45.5758C190.252 45.4662 190.543 45.3615 190.757 45.4472C190.948 45.5186 190.919 45.5091 191.029 45.552C192.029 45.9377 194.095 45.1186 195.119 42.4615C195.905 40.4281 195.533 37.6043 193.471 36.8091H193.486Z" fill="#006648"></path>
  <path d="M214.386 46.4615C214.3 47.1568 213.91 48.7949 213.719 49.6663C212.695 54.4568 211.667 59.752 211.395 61.4235C210.976 63.8901 211.414 64.5663 211.995 65.233C212.343 65.6139 212.481 65.9425 212.376 66.1139C212.271 66.2901 211.862 66.3425 211.314 66.0092C210.771 65.6758 208.676 64.2568 208.052 63.8758C207.233 63.3758 205.914 62.6377 205.271 62.2425C204.824 61.9711 204.571 61.6092 204.719 61.3615C204.795 61.2377 205.091 61.1473 205.638 61.3092C206.757 61.652 207.019 61.3377 207.229 60.9901C207.5 60.5425 207.819 58.9663 208.219 57.033C208.257 56.9187 208.105 56.3854 208.029 56.3377C204.795 54.3282 204.019 53.9854 203.748 53.8187C203.671 53.7711 203.419 53.8568 203.31 53.9234C201.162 55.5377 200.652 56.1473 200.395 56.5663C200.033 57.1615 200.148 57.6377 200.852 58.3806C201.295 58.8234 201.419 59.0663 201.252 59.3425C201.148 59.5139 200.757 59.4806 200.286 59.1949C199.838 58.9234 199.252 58.4949 198.333 57.933C197.367 57.3425 196.267 56.8044 195.895 56.5758C195.252 56.1806 195.21 55.9187 195.3 55.7711C195.419 55.5711 195.586 55.4711 196.248 55.6711C197.71 56.1235 198.314 55.7425 199.857 54.7806C201.191 53.9949 208.019 48.7377 210.433 47.0139C210.433 47.0139 210.752 46.7663 210.838 46.6854C210.91 46.6282 211.057 46.5473 211.233 46.4854C211.743 46.3187 213.229 45.8996 213.567 45.733C213.852 45.5996 214.11 45.6235 214.233 45.6996C214.381 45.7901 214.467 45.8758 214.376 46.4663L214.386 46.4615ZM208.814 54.8377C209.133 53.5377 209.781 50.252 210.005 48.9949C210.076 48.7663 209.843 48.7568 209.648 48.9139C208.448 49.8139 205.505 52.0663 205.1 52.4996C204.943 52.6425 205.019 52.8568 205.114 52.9187C206.071 53.4711 207.819 54.5092 208.571 55.0044C208.595 55.0187 208.781 54.9949 208.81 54.8425L208.814 54.8377Z" fill="#006648"></path>
  <path d="M228.114 55.9616C228.691 56.4949 229.824 57.6663 230.438 58.2378C231.272 59.0092 232.857 60.2854 233.372 60.7568C233.905 61.252 233.976 61.5139 233.838 61.6663C233.619 61.8997 233.186 61.814 232.976 61.6997C231.61 60.9473 231.124 61.133 230.886 61.3473C229.71 62.3187 227.672 64.4711 224.772 67.5997C223.486 68.9854 222.005 70.5806 221.4 71.4044C220.891 72.0806 221.4 72.9473 221.438 72.9854C221.695 73.3473 222.405 74.1187 222.957 74.633C223.343 74.9901 224.124 75.6378 224.629 75.9044C224.862 76.0378 225.152 76.1949 225.4 76.1854C225.933 76.1663 227.024 76.1473 228.467 75.7425C228.833 75.6473 229.286 75.7092 229.438 75.8473C229.61 76.0044 229.391 76.2806 228.991 76.4997C228.224 76.9378 226.419 78.1187 225.838 78.4901C225.757 78.533 225.162 78.4949 225.052 78.3949C224.691 78.0616 222.952 76.1711 218.652 72.1806C217.819 71.4092 216.019 69.9759 215.191 69.2044C214.805 68.8473 214.61 68.5092 214.786 68.314C214.924 68.1663 215.333 68.1473 215.733 68.3997C217.105 69.2711 217.586 69.0473 218.581 68.1473C219.119 67.652 220.762 66.0092 223.586 62.9616C226.033 60.3187 226.529 59.7854 227.162 59.0663C227.929 58.1949 228.1 57.7997 227.381 56.652C227.076 56.1711 227.043 55.8235 227.181 55.6711C227.4 55.4378 227.752 55.6092 228.114 55.9425V55.9616Z" fill="#006648"></path>
  <path d="M255.262 88.1089C255.286 88.1994 255.086 88.6374 254.952 88.7565C254.686 88.9279 252.762 90.5089 252.667 90.5708C252.3 90.8089 252.019 90.8517 251.938 90.7279C251.795 90.5089 251.748 89.9517 252.038 89.5946C252.662 88.847 253.067 87.966 253.129 87.4755C253.281 86.4803 253.072 85.7184 252.567 84.9374C251.972 84.0089 250.229 83.1279 248.662 84.1327C247.367 84.966 247.205 86.4851 247.291 89.5755C247.443 94.4851 245.852 95.7184 244.681 96.4708C243.41 97.2898 241.41 97.5041 239.61 96.5898C238.562 96.0898 237.267 94.8851 236.5 93.6851C235.367 91.9232 235.086 91.0041 234.776 89.6089C234.738 89.3898 234.914 88.5898 235.019 88.4851C235.733 87.7136 236.619 86.8374 237.5 86.2708C237.672 86.1613 238.229 86.2184 238.305 86.3422C238.448 86.5613 238.133 87.3136 237.629 88.1898C236.567 89.9755 236.586 91.8327 237.467 93.1994C238.033 94.0803 239.71 95.0755 241.176 94.1327C242.176 93.4898 242.776 92.3803 242.833 89.4041C242.872 85.5422 243.352 83.4422 245.576 82.0089C247.091 81.0327 248.791 81.047 249.867 81.4279C251.1 81.8422 252.329 82.6755 253.633 84.7041C254.324 85.7803 254.905 87.2708 255.272 88.1089H255.262Z" fill="#006648"></path>
  <path d="M265.562 110.476C265.648 111.162 265.771 111.704 265.99 112.495C266.038 112.695 265.762 113.023 265.467 113.143C264.624 113.538 263.8 113.9 262.957 114.3C262.4 114.552 261.786 114.576 261.657 114.252C261.59 114.09 261.819 113.719 262.186 113.385C262.852 112.776 263.386 112.157 263.595 111.509C264.114 110.143 264.257 108.462 263.681 107.004C261.995 102.766 258.062 102.395 253.933 104.038C252.124 104.757 250.633 105.728 249.681 106.795C247.348 109.414 247.224 111.933 248.048 114.009C248.157 114.281 248.724 115.552 249.59 116.238C250.495 116.943 251.514 117.381 252.857 117.533C253.619 117.638 254 117.733 254.105 118.004C254.224 118.3 253.457 118.576 253.129 118.614C252.362 118.733 251.171 118.8 250.671 118.809C250.395 118.823 249.719 118.533 249.343 118.147C249.067 117.852 247.719 116.419 246.686 113.828C245.052 109.723 245.681 106.195 246.509 104.581C247.29 103.081 248.633 101.109 251.6 99.9282C254.948 98.5949 257.881 99.5235 259.248 100.29C262.052 101.833 263.724 104.543 264.538 106.595C265.095 108 265.433 109.395 265.552 110.476H265.562Z" fill="#006648"></path>
  <path d="M262.052 129.376C262.357 131.447 263.029 135.195 263.329 137.204C263.343 137.29 263.705 137.356 264.053 137.333C264.433 137.333 267.595 136.866 268.7 136.585C269.719 136.318 270.014 136.128 270.143 135.018C270.195 134.571 270.324 134.052 270.61 134.009C270.81 133.98 271.086 134.261 271.191 134.952C271.248 135.328 271.462 137.585 271.572 138.333C271.71 139.252 272.129 141.304 272.181 141.652C272.267 142.228 272.143 142.599 271.914 142.633C271.6 142.68 271.381 142.418 271.114 141.78C270.738 140.837 270.319 140.78 269.448 140.823C268.133 140.871 265.791 141.128 262.114 141.676C258.552 142.204 257.586 142.433 256.381 142.642C255.267 142.837 255.219 143.137 255.033 144.252C254.919 144.856 254.762 145.204 254.505 145.242C254.162 145.295 254.005 144.847 253.929 144.328C253.857 143.837 253.676 142.014 253.552 141.18C253.452 140.518 252.991 138.18 252.905 137.604C252.786 136.799 252.91 136.456 253.172 136.418C253.429 136.38 253.753 136.771 253.933 137.185C254.476 138.485 254.657 138.49 256.862 138.309C257.995 138.228 261.048 137.804 261.495 137.68C261.633 137.628 261.767 137.523 261.752 137.437C261.567 136.171 260.733 130.156 260.591 129.59C260.538 129.423 260.305 129.252 260.133 129.276C258.886 129.371 256.138 129.866 255.195 130.037C253.848 130.266 253.457 130.414 253.291 131.642C253.21 132.271 252.991 132.804 252.676 132.847C252.362 132.89 252.157 132.309 252.1 131.933C252.072 131.733 251.762 129.047 251.614 128.042C251.514 127.38 251.162 125.79 251.024 124.842C250.905 124.037 251.033 123.723 251.267 123.69C251.61 123.637 251.829 123.928 252.086 124.48C252.572 125.585 252.962 125.818 254.214 125.78C255.386 125.752 260.176 125.19 263.743 124.666C264.805 124.509 265.848 124.385 266.929 124.166C267.895 123.966 268.114 123.637 268.276 122.761C268.405 122.037 268.552 121.633 268.81 121.595C269.124 121.547 269.295 121.904 269.376 122.452C269.491 123.228 269.614 125.061 269.729 125.837C269.905 127.018 270.243 128.523 270.348 129.214C270.438 129.818 270.372 130.18 270.086 130.223C269.772 130.271 269.481 129.899 269.243 129.29C268.814 128.18 268.229 128.204 267.048 128.352C265.981 128.48 262.852 128.766 262.262 128.971C262.181 129.014 262.029 129.18 262.057 129.38L262.052 129.376Z" fill="#006648"></path>
  <path d="M261.71 170.723C258.062 170.385 255.914 168.695 254.419 166.576C253.291 164.895 252.51 162.314 252.752 159.738C253.038 156.671 254.381 154.171 256.462 152.495C258.257 151.057 260.6 150.343 263.348 150.595C266.848 150.919 268.905 152.657 270.386 154.957C271.252 156.323 272.186 158.828 271.943 161.433C271.31 168.233 265.933 171.119 261.714 170.723H261.71ZM269.848 157.585C269.091 156.638 267.162 155.409 263.691 155.085C259.176 154.666 254.176 156.681 253.8 160.733C253.686 161.947 254.267 162.938 254.633 163.381C255.824 164.719 258.286 165.852 261.238 166.123C263.091 166.295 266.824 165.971 269.048 164.047C270 163.233 270.829 161.847 270.943 160.604C271.067 159.271 270.3 158.123 269.852 157.585H269.848Z" fill="#006648"></path>
  <path d="M253.576 196.747C250.119 195.547 248.438 193.395 247.491 190.976C246.795 189.076 246.657 186.381 247.505 183.938C248.514 181.028 250.419 178.919 252.838 177.795C254.929 176.828 257.372 176.695 259.981 177.6C263.3 178.752 264.881 180.933 265.772 183.519C266.286 185.052 266.591 187.709 265.733 190.181C263.491 196.628 257.586 198.147 253.576 196.752V196.747ZM264.619 185.943C264.11 184.843 262.529 183.186 259.238 182.043C254.957 180.557 249.619 181.314 248.281 185.157C247.881 186.309 248.205 187.409 248.457 187.924C249.291 189.505 251.41 191.195 254.21 192.166C255.967 192.776 259.672 193.357 262.291 192.019C263.41 191.457 264.543 190.309 264.952 189.128C265.391 187.866 264.919 186.566 264.614 185.938L264.619 185.943Z" fill="#006648"></path>
  <path d="M257.733 207.833C257.324 208.504 256.405 209.847 255.967 210.566C255.376 211.533 254.443 213.347 254.081 213.942C253.705 214.561 253.457 214.685 253.286 214.58C253.014 214.414 253.009 213.971 253.081 213.742C253.543 212.257 253.267 211.814 253.009 211.623C251.824 210.666 249.309 209.1 245.662 206.88C244.048 205.9 242.186 204.766 241.257 204.338C240.49 203.976 239.748 204.642 239.714 204.69C239.414 205.019 238.795 205.866 238.405 206.509C238.133 206.957 237.652 207.857 237.49 208.4C237.405 208.652 237.314 208.971 237.371 209.209C237.5 209.728 237.733 210.79 238.419 212.123C238.586 212.461 238.614 212.919 238.509 213.095C238.39 213.295 238.076 213.138 237.781 212.785C237.195 212.123 235.681 210.59 235.2 210.095C235.143 210.023 235.062 209.433 235.133 209.309C235.39 208.885 236.89 206.809 239.943 201.795C240.533 200.828 241.576 198.776 242.167 197.809C242.438 197.361 242.733 197.1 242.957 197.238C243.133 197.342 243.228 197.742 243.062 198.185C242.481 199.7 242.795 200.133 243.876 200.923C244.467 201.352 246.405 202.633 249.952 204.79C253.028 206.661 253.652 207.038 254.486 207.514C255.495 208.095 255.914 208.18 256.895 207.242C257.305 206.847 257.643 206.742 257.814 206.852C258.086 207.019 257.99 207.4 257.733 207.823V207.833Z" fill="#006648"></path>
  <path d="M228.462 239.376C228.405 239.147 227.943 238.895 227.519 238.762C227.11 238.638 226.467 238.528 225.629 238.681C225.705 238.395 225.691 238.133 225.643 237.923C225.462 237.081 224.614 236.276 223.529 235.914C222.467 235.562 222.019 235.152 222.014 235.147L221.957 235.109C221.957 235.109 221.414 234.823 220.705 233.952C219.976 233.062 218.881 232.552 217.981 232.69C217.91 232.7 217.833 232.719 217.757 232.738C217.691 231.009 216.714 230.123 216.472 230.114C216.133 230.1 215.195 230.976 215.024 232.628C214.729 232.443 214.429 232.381 214.176 232.366C213.243 232.314 212.143 232.957 211.5 233.923C210.886 234.857 210.372 235.181 210.367 235.185L210.31 235.228C210.31 235.228 209.895 235.681 208.872 236.138C207.843 236.6 207.086 237.466 206.972 238.309C205.319 237.823 204.162 238.457 204.076 238.69C203.991 238.909 204.229 239.381 204.5 239.728C204.776 240.085 205.276 240.566 206.119 240.928C205.895 241.128 205.762 241.352 205.681 241.557C205.362 242.352 205.614 243.5 206.319 244.4C207.005 245.285 207.143 245.876 207.143 245.881L207.172 245.947C207.172 245.947 207.462 246.485 207.567 247.604C207.676 248.723 208.253 249.719 209.01 250.1C208.505 250.809 208.338 251.457 208.281 251.895C208.229 252.323 208.262 252.857 208.438 252.995C208.505 253.052 208.624 253.076 208.762 253.076C208.995 253.076 209.295 253.009 209.557 252.919C209.986 252.762 210.614 252.433 211.219 251.728C211.333 252.014 211.51 252.219 211.676 252.362C212.076 252.709 212.676 252.885 213.324 252.885C213.733 252.885 214.162 252.819 214.576 252.671C215.633 252.309 216.238 252.362 216.243 252.366H216.314C216.314 252.366 216.919 252.257 218.01 252.514C219.124 252.781 220.272 252.543 220.867 251.919C220.872 251.914 220.876 251.909 220.881 251.9C221.391 252.571 221.938 252.928 222.333 253.114C222.619 253.252 222.976 253.357 223.219 253.357C223.305 253.357 223.381 253.343 223.429 253.309C223.624 253.185 223.714 252.666 223.705 252.223C223.691 251.79 223.586 251.133 223.162 250.381C223.438 250.352 223.662 250.257 223.838 250.152C224.576 249.709 225.067 248.647 225.062 247.504C225.053 246.385 225.3 245.828 225.305 245.823L225.324 245.757C225.324 245.757 225.419 245.152 226.014 244.2C226.619 243.233 226.762 242.066 226.362 241.304C227.129 241.043 227.624 240.652 227.919 240.347C228.224 240.038 228.514 239.59 228.462 239.376ZM217.905 235.671C218.048 235.243 218.424 234.981 218.824 234.947C219.062 234.928 219.314 234.99 219.529 235.147L222.686 237.433C223.262 237.852 223.267 238.714 222.691 239.138C222.691 239.138 221.991 239.795 220.995 240.481C220.705 240.681 220.395 240.881 220.062 241.071C219.981 241.119 219.895 241.166 219.81 241.214C219.724 241.262 219.633 241.304 219.548 241.352C218.791 241.733 217.986 242.014 217.238 242.023C217.119 242.023 216.895 241.862 216.862 241.747C216.648 241.057 216.653 240.233 216.772 239.419C216.786 239.323 216.8 239.228 216.819 239.133C216.833 239.033 216.853 238.938 216.872 238.843C216.943 238.471 217.038 238.114 217.133 237.776C217.481 236.576 217.905 235.671 217.905 235.671ZM216.448 230.619C216.686 230.828 217.295 231.59 217.286 232.957C216.986 233.152 216.695 233.476 216.486 234C216.4 234.219 216.324 234.433 216.267 234.652C216.143 234.271 215.986 233.881 215.791 233.5C215.691 233.309 215.586 233.147 215.467 233.014C215.514 231.543 216.195 230.804 216.448 230.619ZM209.714 237.581L212.748 235.133C212.957 234.966 213.2 234.89 213.443 234.9C213.843 234.914 214.233 235.157 214.395 235.576C214.395 235.576 214.933 236.59 215.357 237.89C215.443 238.147 215.524 238.414 215.591 238.685C215.614 238.776 215.638 238.866 215.657 238.957C215.681 239.047 215.7 239.138 215.714 239.228C215.881 240.047 215.933 240.885 215.753 241.595C215.724 241.704 215.505 241.881 215.391 241.885C214.653 241.914 213.838 241.676 213.067 241.338C212.972 241.3 212.881 241.257 212.791 241.209C212.695 241.166 212.6 241.119 212.505 241.071C212.343 240.99 212.181 240.9 212.024 240.814C210.757 240.095 209.795 239.285 209.795 239.285C209.2 238.89 209.157 238.033 209.714 237.581ZM209.119 240.604C209.119 240.604 209.124 240.604 209.124 240.609C209.124 240.609 209.119 240.609 209.114 240.609L209.119 240.604ZM207.295 240.423C207.033 240.462 206.81 240.528 206.624 240.614C206.586 240.6 206.548 240.585 206.505 240.571C205.129 240.052 204.648 239.171 204.553 238.871C204.719 238.771 205.133 238.609 205.729 238.604C206.086 238.604 206.51 238.652 206.981 238.809C207.048 239.204 207.272 239.671 207.853 240.104C207.962 240.185 208.076 240.266 208.191 240.343C207.895 240.352 207.6 240.381 207.295 240.423ZM211.124 250.476C211.081 250.728 211.067 250.952 211.086 251.152C211.053 251.195 211.019 251.238 210.986 251.281C210.062 252.428 209.057 252.609 208.762 252.604C208.748 252.533 208.733 252.419 208.733 252.276C208.733 251.823 208.867 251.066 209.491 250.247C209.576 250.266 209.667 250.276 209.767 250.276C210.114 250.276 210.533 250.166 211.005 249.843C211.119 249.762 211.233 249.681 211.338 249.595C211.253 249.876 211.181 250.171 211.124 250.476ZM210.853 247.738C210.638 247.9 210.391 247.971 210.148 247.957C209.743 247.938 209.362 247.685 209.205 247.266L207.862 243.614C207.614 242.943 208.091 242.223 208.81 242.19C208.81 242.19 209.848 242.019 211.138 242.019C211.324 242.019 211.51 242.019 211.705 242.033C211.824 242.033 211.943 242.043 212.067 242.052C212.167 242.057 212.262 242.066 212.362 242.076C212.462 242.085 212.557 242.095 212.653 242.104C213.495 242.214 214.319 242.433 214.943 242.838C215.038 242.9 215.138 243.162 215.105 243.271C214.891 243.985 214.41 244.676 213.843 245.3C213.772 245.376 213.7 245.452 213.629 245.528C213.557 245.6 213.481 245.676 213.41 245.747C213.291 245.862 213.172 245.976 213.053 246.085C211.953 247.071 210.848 247.738 210.848 247.738H210.853ZM218.219 250.857L214.324 250.957C213.61 250.976 213.081 250.295 213.281 249.604C213.281 249.604 213.5 248.281 214.038 246.866C214.086 246.733 214.138 246.604 214.195 246.471C214.233 246.381 214.272 246.29 214.314 246.2C214.353 246.109 214.395 246.023 214.438 245.938C214.805 245.171 215.276 244.462 215.862 244C215.953 243.928 216.233 243.923 216.324 243.99C216.933 244.419 217.438 245.1 217.843 245.838C217.895 245.923 217.943 246.014 217.986 246.104C218.038 246.2 218.086 246.295 218.129 246.39C218.262 246.662 218.376 246.933 218.481 247.2C218.962 248.409 219.191 249.452 219.191 249.452C219.424 250.128 218.933 250.838 218.219 250.857ZM223.162 252.885C222.857 252.847 221.933 252.576 221.172 251.485C221.343 251.133 221.424 250.643 221.238 249.985C221.2 249.852 221.157 249.723 221.114 249.595C221.353 249.766 221.605 249.928 221.876 250.076C222.138 250.219 222.376 250.304 222.595 250.352C223.395 251.595 223.257 252.59 223.157 252.885H223.162ZM224.514 243.471L223.357 247.19C223.229 247.619 222.857 247.89 222.457 247.933C222.214 247.957 221.962 247.904 221.743 247.747C221.743 247.747 220.791 247.238 219.748 246.433C219.524 246.262 219.291 246.071 219.067 245.876C218.995 245.809 218.924 245.747 218.853 245.681C218.781 245.614 218.71 245.543 218.638 245.476C218.038 244.881 217.514 244.204 217.262 243.504C217.224 243.395 217.31 243.128 217.4 243.062C218 242.628 218.81 242.366 219.638 242.219C219.738 242.2 219.838 242.181 219.938 242.166C220.043 242.152 220.148 242.138 220.253 242.123C220.672 242.076 221.086 242.047 221.472 242.038C221.614 242.038 221.753 242.033 221.886 242.033C222.819 242.033 223.495 242.1 223.495 242.1C224.21 242.1 224.724 242.785 224.514 243.471ZM226.076 240.904C225.8 240.619 225.357 240.376 224.653 240.338C224.51 240.338 224.372 240.328 224.233 240.328C224.476 240.162 224.714 239.971 224.943 239.762C225.148 239.576 225.3 239.39 225.41 239.209C225.791 239.114 226.138 239.076 226.438 239.076C227.267 239.076 227.791 239.352 227.972 239.495C227.848 239.766 227.31 240.523 226.076 240.904Z" fill="#006648"></path>
  <path d="M217.533 241.657C217.743 241.662 217.919 241.5 217.929 241.29C217.933 241.081 217.772 240.905 217.562 240.895C217.352 240.895 217.176 241.057 217.167 241.262C217.167 241.471 217.324 241.647 217.533 241.657Z" fill="#006648"></path>
  <path d="M222.543 243.243C222.543 243.243 222.191 243.205 221.695 243.205C221.624 243.205 221.552 243.205 221.476 243.205C220.905 243.214 220.205 243.286 219.633 243.509C219.533 243.547 219.438 243.59 219.348 243.643C219.272 243.681 219.195 243.728 219.129 243.776C219.076 243.814 219.029 243.962 219.048 244.024C219.081 244.109 219.119 244.2 219.167 244.286C219.214 244.376 219.272 244.471 219.333 244.557C219.633 244.99 220.062 245.376 220.467 245.681C221.043 246.124 221.562 246.4 221.562 246.4C221.686 246.486 221.829 246.519 221.962 246.505C222.186 246.481 222.395 246.328 222.467 246.09L223.114 244.005C223.233 243.619 222.948 243.233 222.543 243.238V243.243Z" fill="#006648"></path>
  <path d="M218.105 243.18C218.057 243.176 218.005 243.18 217.957 243.195C217.757 243.257 217.643 243.471 217.705 243.671C217.752 243.819 217.881 243.923 218.029 243.938C218.076 243.942 218.129 243.938 218.176 243.923C218.376 243.861 218.491 243.652 218.433 243.452C218.386 243.3 218.252 243.2 218.105 243.18Z" fill="#006648"></path>
  <path d="M217.352 247.523C217.167 247.081 216.924 246.609 216.619 246.247C216.552 246.166 216.481 246.09 216.409 246.019C216.343 245.957 216.276 245.9 216.205 245.852C216.152 245.814 215.995 245.819 215.943 245.862C215.871 245.919 215.8 245.985 215.733 246.057C215.662 246.133 215.595 246.214 215.533 246.3C215.309 246.595 215.129 246.952 214.986 247.309C214.638 248.162 214.495 249.004 214.495 249.004C214.386 249.39 214.681 249.771 215.081 249.762L217.267 249.704C217.667 249.695 217.943 249.3 217.809 248.919C217.809 248.919 217.667 248.257 217.357 247.523H217.352Z" fill="#006648"></path>
  <path d="M216.014 245.157C216.11 245.171 216.21 245.152 216.295 245.09C216.467 244.971 216.51 244.733 216.386 244.562C216.324 244.476 216.233 244.424 216.138 244.409C216.043 244.395 215.943 244.414 215.857 244.476C215.686 244.595 215.648 244.833 215.767 245.005C215.829 245.09 215.919 245.143 216.014 245.157Z" fill="#006648"></path>
  <path d="M212.952 243.366C212.862 243.323 212.762 243.285 212.662 243.257C212.357 243.152 212.019 243.1 211.686 243.071C210.709 242.99 209.771 243.147 209.771 243.147C209.371 243.161 209.1 243.566 209.238 243.942L209.995 245.99C210.133 246.366 210.595 246.5 210.914 246.257C210.914 246.257 211.667 245.804 212.338 245.147C212.614 244.885 212.876 244.585 213.062 244.271C213.119 244.181 213.167 244.09 213.209 244C213.248 243.914 213.276 243.833 213.3 243.752C213.319 243.69 213.267 243.542 213.209 243.504C213.129 243.452 213.043 243.404 212.952 243.366Z" fill="#006648"></path>
  <path d="M214.338 243.661C214.433 243.647 214.524 243.595 214.586 243.514C214.709 243.342 214.671 243.104 214.5 242.98C214.414 242.923 214.314 242.9 214.219 242.919C214.124 242.933 214.033 242.985 213.971 243.066C213.848 243.238 213.886 243.476 214.057 243.6C214.143 243.657 214.243 243.68 214.338 243.661Z" fill="#006648"></path>
  <path d="M211.224 238.871C211.224 238.871 211.824 239.376 212.591 239.795C212.967 239.995 213.381 240.176 213.791 240.266C213.895 240.29 214 240.309 214.1 240.318C214.186 240.328 214.276 240.333 214.362 240.328C214.429 240.323 214.548 240.228 214.567 240.161C214.591 240.071 214.605 239.976 214.614 239.88C214.629 239.78 214.633 239.671 214.629 239.566C214.629 239.137 214.524 238.676 214.395 238.257C214.152 237.447 213.805 236.79 213.805 236.79C213.657 236.414 213.191 236.29 212.881 236.542L211.176 237.914C210.867 238.166 210.891 238.647 211.224 238.871Z" fill="#006648"></path>
  <path d="M218.1 240.347C218.119 240.409 218.248 240.499 218.31 240.499C218.405 240.499 218.5 240.49 218.6 240.471C218.705 240.457 218.805 240.433 218.91 240.399C219.457 240.242 220.005 239.918 220.448 239.609C220.995 239.237 221.371 238.88 221.371 238.88C221.529 238.761 221.61 238.585 221.61 238.409C221.61 238.233 221.529 238.052 221.367 237.938L219.6 236.647C219.276 236.414 218.819 236.561 218.686 236.942C218.686 236.942 218.5 237.337 218.324 237.885C218.319 237.904 218.314 237.923 218.305 237.942C218.291 237.98 218.281 238.023 218.267 238.066C218.152 238.452 218.048 238.899 218.014 239.337C218.005 239.485 218 239.633 218.005 239.776C218.01 239.88 218.019 239.985 218.038 240.085C218.052 240.171 218.071 240.261 218.095 240.342L218.1 240.347Z" fill="#006648"></path>
  <path d="M215.005 241.466C215.205 241.528 215.419 241.414 215.481 241.214C215.543 241.014 215.429 240.8 215.229 240.742C215.029 240.68 214.814 240.79 214.752 240.99C214.691 241.195 214.805 241.404 215.005 241.466Z" fill="#006648"></path>
  <path d="M97.3476 239.376C97.2904 239.147 96.8285 238.895 96.4047 238.762C95.9952 238.638 95.3523 238.528 94.5142 238.681C94.5904 238.395 94.5761 238.133 94.5285 237.923C94.3476 237.081 93.4999 236.276 92.4142 235.914C91.3523 235.562 90.9047 235.152 90.8999 235.147L90.8428 235.109C90.8428 235.109 90.2999 234.823 89.5904 233.952C88.8618 233.062 87.7666 232.552 86.8666 232.69C86.7952 232.7 86.719 232.719 86.6428 232.738C86.5761 231.009 85.5999 230.123 85.3571 230.114C85.019 230.1 84.0809 230.976 83.9095 232.628C83.6142 232.443 83.3142 232.381 83.0619 232.366C82.1285 232.314 81.0285 232.957 80.3857 233.923C79.7714 234.857 79.2571 235.181 79.2523 235.185L79.1952 235.228C79.1952 235.228 78.7809 235.681 77.7571 236.138C76.7285 236.6 75.9714 237.466 75.8571 238.309C74.2047 237.823 73.0476 238.457 72.9619 238.69C72.8761 238.909 73.1142 239.381 73.3857 239.728C73.6619 240.085 74.1619 240.566 75.0047 240.928C74.7809 241.128 74.6476 241.352 74.5666 241.557C74.2476 242.352 74.4999 243.5 75.2047 244.4C75.8904 245.285 76.0285 245.876 76.0285 245.881L76.0571 245.947C76.0571 245.947 76.3476 246.485 76.4523 247.604C76.5619 248.723 77.138 249.719 77.8952 250.1C77.3904 250.809 77.2238 251.457 77.1666 251.895C77.1142 252.323 77.1476 252.857 77.3238 252.995C77.3904 253.052 77.5095 253.076 77.6476 253.076C77.8809 253.076 78.1809 253.009 78.4428 252.919C78.8714 252.762 79.4999 252.433 80.1047 251.728C80.219 252.014 80.3952 252.219 80.5619 252.362C80.9619 252.709 81.5618 252.885 82.2095 252.885C82.619 252.885 83.0476 252.819 83.4619 252.671C84.519 252.309 85.1238 252.362 85.1285 252.366H85.1999C85.1999 252.366 85.8047 252.257 86.8952 252.514C88.0095 252.781 89.1571 252.543 89.7523 251.919C89.7571 251.914 89.7619 251.909 89.7666 251.9C90.2761 252.571 90.8238 252.928 91.219 253.114C91.5047 253.252 91.8618 253.357 92.1047 253.357C92.1904 253.357 92.2666 253.343 92.3142 253.309C92.5095 253.185 92.5999 252.666 92.5904 252.223C92.5761 251.79 92.4714 251.133 92.0476 250.381C92.3238 250.352 92.5476 250.257 92.7238 250.152C93.4618 249.709 93.9523 248.647 93.9476 247.504C93.938 246.385 94.1857 245.828 94.1904 245.823L94.2095 245.757C94.2095 245.757 94.3047 245.152 94.8999 244.2C95.5047 243.233 95.6476 242.066 95.2476 241.304C96.0142 241.043 96.5095 240.652 96.8047 240.347C97.1095 240.038 97.3999 239.59 97.3476 239.376ZM86.7904 235.671C86.9333 235.243 87.3095 234.981 87.7095 234.947C87.9476 234.928 88.1999 234.99 88.4142 235.147L91.5714 237.433C92.1476 237.852 92.1523 238.714 91.5761 239.138C91.5761 239.138 90.8761 239.795 89.8809 240.481C89.5904 240.681 89.2809 240.881 88.9476 241.071C88.8666 241.119 88.7809 241.166 88.6952 241.214C88.6095 241.262 88.519 241.304 88.4333 241.352C87.6761 241.733 86.8714 242.014 86.1238 242.023C86.0047 242.023 85.7809 241.862 85.7476 241.747C85.5333 241.057 85.538 240.233 85.6571 239.419C85.6714 239.323 85.6857 239.228 85.7047 239.133C85.719 239.033 85.738 238.938 85.7571 238.843C85.8285 238.471 85.9238 238.114 86.019 237.776C86.3666 236.576 86.7904 235.671 86.7904 235.671ZM85.3333 230.619C85.5714 230.828 86.1809 231.59 86.1714 232.957C85.8714 233.152 85.5809 233.476 85.3714 234C85.2857 234.219 85.2095 234.433 85.1523 234.652C85.0285 234.271 84.8714 233.881 84.6761 233.5C84.5761 233.309 84.4714 233.147 84.3523 233.014C84.3999 231.543 85.0809 230.804 85.3333 230.619ZM78.5999 237.581L81.6333 235.133C81.8428 234.966 82.0857 234.89 82.3285 234.9C82.7285 234.914 83.119 235.157 83.2809 235.576C83.2809 235.576 83.819 236.59 84.2428 237.89C84.3285 238.147 84.4095 238.414 84.4761 238.685C84.4999 238.776 84.5238 238.866 84.5428 238.957C84.5666 239.047 84.5857 239.138 84.5999 239.228C84.7666 240.047 84.819 240.885 84.638 241.595C84.6095 241.704 84.3904 241.881 84.2761 241.885C83.538 241.914 82.7238 241.676 81.9523 241.338C81.8571 241.3 81.7666 241.257 81.6761 241.209C81.5809 241.166 81.4857 241.119 81.3904 241.071C81.2285 240.99 81.0666 240.9 80.9095 240.814C79.6428 240.095 78.6809 239.285 78.6809 239.285C78.0857 238.89 78.0428 238.033 78.5999 237.581ZM77.9999 240.604C77.9999 240.604 78.0047 240.604 78.0047 240.609C78.0047 240.609 77.9999 240.609 77.9952 240.609L77.9999 240.604ZM76.1761 240.423C75.9142 240.462 75.6904 240.528 75.5047 240.614C75.4666 240.6 75.4285 240.585 75.3857 240.571C74.0095 240.052 73.5285 239.171 73.4333 238.871C73.5999 238.771 74.0142 238.609 74.6095 238.604C74.9666 238.604 75.3904 238.652 75.8618 238.809C75.9285 239.204 76.1523 239.671 76.7333 240.104C76.8428 240.185 76.9571 240.266 77.0714 240.343C76.7761 240.352 76.4809 240.381 76.1761 240.423ZM80.0047 250.476C79.9619 250.728 79.9476 250.952 79.9666 251.152C79.9333 251.195 79.8999 251.238 79.8666 251.281C78.9428 252.428 77.938 252.609 77.6428 252.604C77.6285 252.533 77.6142 252.419 77.6142 252.276C77.6142 251.823 77.7476 251.066 78.3714 250.247C78.4571 250.266 78.5476 250.276 78.6476 250.276C78.9952 250.276 79.4142 250.166 79.8857 249.843C79.9999 249.762 80.1142 249.681 80.219 249.595C80.1333 249.876 80.0619 250.171 80.0047 250.476ZM79.7333 247.738C79.519 247.9 79.2714 247.971 79.0285 247.957C78.6238 247.938 78.2428 247.685 78.0857 247.266L76.7428 243.614C76.4952 242.943 76.9714 242.223 77.6904 242.19C77.6904 242.19 78.7285 242.019 80.019 242.019C80.2047 242.019 80.3904 242.019 80.5857 242.033C80.7047 242.033 80.8238 242.043 80.9476 242.052C81.0476 242.057 81.1428 242.066 81.2428 242.076C81.3428 242.085 81.438 242.095 81.5333 242.104C82.3761 242.214 83.1999 242.433 83.8238 242.838C83.919 242.9 84.019 243.162 83.9857 243.271C83.7714 243.985 83.2904 244.676 82.7238 245.3C82.6523 245.376 82.5809 245.452 82.5095 245.528C82.438 245.6 82.3618 245.676 82.2904 245.747C82.1714 245.862 82.0523 245.976 81.9333 246.085C80.8333 247.071 79.7285 247.738 79.7285 247.738H79.7333ZM87.1047 250.857L83.2095 250.957C82.4952 250.976 81.9666 250.295 82.1666 249.604C82.1666 249.604 82.3857 248.281 82.9238 246.866C82.9714 246.733 83.0238 246.604 83.0809 246.471C83.119 246.381 83.1571 246.29 83.1999 246.2C83.238 246.109 83.2809 246.023 83.3238 245.938C83.6904 245.171 84.1618 244.462 84.7476 244C84.838 243.928 85.119 243.923 85.2095 243.99C85.819 244.419 86.3238 245.1 86.7285 245.838C86.7809 245.923 86.8285 246.014 86.8714 246.104C86.9238 246.2 86.9714 246.295 87.0142 246.39C87.1476 246.662 87.2619 246.933 87.3666 247.2C87.8476 248.409 88.0761 249.452 88.0761 249.452C88.3095 250.128 87.819 250.838 87.1047 250.857ZM92.0428 252.885C91.738 252.847 90.8142 252.576 90.0523 251.485C90.2238 251.133 90.3047 250.643 90.119 249.985C90.0809 249.852 90.038 249.723 89.9952 249.595C90.2333 249.766 90.4857 249.928 90.7571 250.076C91.019 250.219 91.2571 250.304 91.4761 250.352C92.2761 251.595 92.138 252.59 92.038 252.885H92.0428ZM93.3952 243.471L92.238 247.19C92.1095 247.619 91.738 247.89 91.338 247.933C91.0952 247.957 90.8428 247.904 90.6238 247.747C90.6238 247.747 89.6714 247.238 88.6285 246.433C88.4047 246.262 88.1714 246.071 87.9476 245.876C87.8761 245.809 87.8047 245.747 87.7333 245.681C87.6619 245.614 87.5904 245.543 87.519 245.476C86.919 244.881 86.3952 244.204 86.1428 243.504C86.1047 243.395 86.1904 243.128 86.2809 243.062C86.8809 242.628 87.6904 242.366 88.519 242.219C88.619 242.2 88.719 242.181 88.819 242.166C88.9238 242.152 89.0285 242.138 89.1333 242.123C89.5523 242.076 89.9666 242.047 90.3523 242.038C90.4952 242.038 90.6333 242.033 90.7666 242.033C91.6999 242.033 92.3761 242.1 92.3761 242.1C93.0904 242.1 93.6047 242.785 93.3952 243.471ZM94.9571 240.904C94.6809 240.619 94.238 240.376 93.5333 240.338C93.3904 240.338 93.2523 240.328 93.1142 240.328C93.3571 240.162 93.5952 239.971 93.8238 239.762C94.0285 239.576 94.1809 239.39 94.2904 239.209C94.6714 239.114 95.019 239.076 95.319 239.076C96.1476 239.076 96.6714 239.352 96.8523 239.495C96.7285 239.766 96.1904 240.523 94.9571 240.904Z" fill="#006648"></path>
  <path d="M86.4143 241.657C86.6238 241.662 86.8 241.5 86.8095 241.29C86.8143 241.081 86.6524 240.905 86.4428 240.895C86.2333 240.895 86.0571 241.057 86.0476 241.262C86.0476 241.471 86.2048 241.647 86.4143 241.657Z" fill="#006648"></path>
  <path d="M91.4238 243.243C91.4238 243.243 91.0715 243.205 90.5762 243.205C90.5048 243.205 90.4334 243.205 90.3572 243.205C89.7857 243.214 89.0857 243.286 88.5143 243.509C88.4143 243.547 88.3191 243.59 88.2286 243.643C88.1524 243.681 88.0762 243.728 88.0096 243.776C87.9572 243.814 87.9096 243.962 87.9286 244.024C87.9619 244.109 88 244.2 88.0476 244.286C88.0953 244.376 88.1524 244.471 88.2143 244.557C88.5143 244.99 88.9429 245.376 89.3476 245.681C89.9238 246.124 90.4429 246.4 90.4429 246.4C90.5667 246.486 90.7095 246.519 90.8429 246.505C91.0667 246.481 91.2762 246.328 91.3476 246.09L91.9953 244.005C92.1143 243.619 91.8286 243.233 91.4238 243.238V243.243Z" fill="#006648"></path>
  <path d="M86.9906 243.18C86.943 243.176 86.8906 243.18 86.843 243.195C86.643 243.257 86.5287 243.471 86.5906 243.671C86.6382 243.819 86.7668 243.923 86.9144 243.938C86.962 243.942 87.0144 243.938 87.062 243.923C87.262 243.861 87.3763 243.652 87.3191 243.452C87.2715 243.3 87.1382 243.2 86.9906 243.18Z" fill="#006648"></path>
  <path d="M86.2381 247.523C86.0524 247.081 85.8095 246.609 85.5047 246.247C85.4381 246.166 85.3667 246.09 85.2952 246.019C85.2286 245.957 85.1619 245.9 85.0905 245.852C85.0381 245.814 84.8809 245.819 84.8286 245.862C84.7571 245.919 84.6857 245.985 84.619 246.057C84.5476 246.133 84.4809 246.214 84.419 246.3C84.1952 246.595 84.0143 246.952 83.8714 247.309C83.5238 248.162 83.3809 249.004 83.3809 249.004C83.2714 249.39 83.5667 249.771 83.9667 249.762L86.1524 249.704C86.5524 249.695 86.8286 249.3 86.6952 248.919C86.6952 248.919 86.5524 248.257 86.2428 247.523H86.2381Z" fill="#006648"></path>
  <path d="M84.8952 245.157C84.9905 245.171 85.0905 245.152 85.1762 245.09C85.3476 244.971 85.3905 244.733 85.2667 244.562C85.2047 244.476 85.1143 244.424 85.019 244.409C84.9238 244.395 84.8238 244.414 84.7381 244.476C84.5667 244.595 84.5286 244.833 84.6476 245.005C84.7095 245.09 84.8 245.143 84.8952 245.157Z" fill="#006648"></path>
  <path d="M81.8335 243.366C81.743 243.323 81.643 243.285 81.543 243.257C81.2382 243.152 80.9001 243.1 80.5668 243.071C79.5906 242.99 78.6525 243.147 78.6525 243.147C78.2525 243.161 77.9811 243.566 78.1192 243.942L78.8763 245.99C79.0144 246.366 79.4763 246.5 79.7954 246.257C79.7954 246.257 80.5477 245.804 81.2192 245.147C81.4954 244.885 81.7573 244.585 81.943 244.271C82.0001 244.181 82.0477 244.09 82.0906 244C82.1287 243.914 82.1573 243.833 82.1811 243.752C82.2001 243.69 82.1477 243.542 82.0906 243.504C82.0096 243.452 81.9239 243.404 81.8335 243.366Z" fill="#006648"></path>
  <path d="M83.2238 243.661C83.319 243.647 83.4095 243.595 83.4714 243.514C83.5952 243.342 83.5571 243.104 83.3857 242.98C83.3 242.923 83.2 242.9 83.1047 242.919C83.0095 242.933 82.919 242.985 82.8571 243.066C82.7333 243.238 82.7714 243.476 82.9428 243.6C83.0285 243.657 83.1285 243.68 83.2238 243.661Z" fill="#006648"></path>
  <path d="M80.1047 238.871C80.1047 238.871 80.7047 239.376 81.4714 239.795C81.8476 239.995 82.2619 240.176 82.6714 240.266C82.7762 240.29 82.8809 240.309 82.9809 240.318C83.0666 240.328 83.1571 240.333 83.2428 240.328C83.3095 240.323 83.4285 240.228 83.4476 240.161C83.4714 240.071 83.4857 239.976 83.4952 239.88C83.5095 239.78 83.5143 239.671 83.5095 239.566C83.5095 239.137 83.4047 238.676 83.2762 238.257C83.0333 237.447 82.6857 236.79 82.6857 236.79C82.5381 236.414 82.0714 236.29 81.7619 236.542L80.0571 237.914C79.7476 238.166 79.7714 238.647 80.1047 238.871Z" fill="#006648"></path>
  <path d="M86.9811 240.347C87.0002 240.409 87.1288 240.499 87.1907 240.499C87.2859 240.499 87.3811 240.49 87.4811 240.471C87.5859 240.457 87.6859 240.433 87.7907 240.399C88.3383 240.242 88.8859 239.918 89.3288 239.609C89.8764 239.237 90.2526 238.88 90.2526 238.88C90.4097 238.761 90.4907 238.585 90.4907 238.409C90.4907 238.233 90.4097 238.052 90.2478 237.938L88.4811 236.647C88.1573 236.414 87.7002 236.561 87.5669 236.942C87.5669 236.942 87.3811 237.337 87.2049 237.885C87.2002 237.904 87.1954 237.923 87.1859 237.942C87.1716 237.98 87.1621 238.023 87.1478 238.066C87.0335 238.452 86.9288 238.899 86.8954 239.337C86.8859 239.485 86.8811 239.633 86.8859 239.776C86.8907 239.88 86.9002 239.985 86.9192 240.085C86.9335 240.171 86.9526 240.261 86.9764 240.342L86.9811 240.347Z" fill="#006648"></path>
  <path d="M83.8857 241.466C84.0857 241.528 84.3 241.414 84.3619 241.214C84.4238 241.014 84.3095 240.8 84.1095 240.742C83.9095 240.68 83.6952 240.79 83.6333 240.99C83.5714 241.195 83.6857 241.404 83.8857 241.466Z" fill="#006648"></path>
  <mask id="mask0_19788_4370" style="mask-type:luminance" maskUnits="userSpaceOnUse" x="90" y="77" width="121" height="155">
    <path d="M210.286 77.3047H90.7095V231.905H210.286V77.3047Z" fill="white"></path>
  </mask>
  <g mask="url(#mask0_19788_4370)">
    <mask id="mask1_19788_4370" style="mask-type:luminance" maskUnits="userSpaceOnUse" x="90" y="77" width="121" height="155">
      <path d="M210.286 77.3047H90.7095V231.905H210.286V77.3047Z" fill="white"></path>
    </mask>
    <g mask="url(#mask1_19788_4370)">
      <path d="M198.957 158.109C198.833 159.057 198.705 159.981 198.567 160.871C194.976 184.424 183.662 205.524 156.324 219.7V158.104H198.957V158.109Z" fill="#024230"></path>
      <path d="M143.457 158.109V219.728C116.462 205.567 104.79 184.609 101.448 161.162C101.305 160.176 101.176 159.147 101.048 158.109H143.457Z" fill="#024230"></path>
      <path d="M143.457 101.171V147.495H100.029C98.4239 126.114 98.7715 101.171 98.7715 101.171H143.457Z" fill="#006648"></path>
      <path d="M207.009 96.7806H94.0046C93.9474 104.309 93.895 136.504 97.0331 158.923C101.562 191.276 118.866 213.976 149.924 228.304C166.424 220.814 179.309 210.738 188.243 198.352C196.276 187.209 201.319 174.2 203.666 158.576C206.833 137.447 207.009 104.447 207.005 96.7759M98.7712 101.171H143.457V147.495H100.028C98.4236 126.114 98.7712 101.171 98.7712 101.171ZM101.447 161.162C101.305 160.176 101.176 159.147 101.047 158.109H143.457V219.728C116.462 205.566 104.79 184.609 101.447 161.162ZM198.566 160.876C194.976 184.428 183.662 205.528 156.324 219.704V158.109H198.957C198.833 159.057 198.705 159.981 198.566 160.871M200.038 147.495H156.324V101.171H201.528C201.528 101.171 201.7 126.614 200.038 147.495Z" fill="white"></path>
      <path d="M200.038 147.495H156.324V101.171H201.528C201.528 101.171 201.7 126.614 200.038 147.495Z" fill="#006648"></path>
      <path d="M149.919 231.905L149.248 231.6C132.119 223.814 118.733 213.31 109.471 200.381C101.157 188.776 96.0285 175.367 93.7904 159.381C90.1952 133.719 90.7381 95.5 90.7476 95.1143L90.7714 93.5H210.276L210.29 95.1286C210.29 95.5238 210.543 134.895 206.919 159.067C201.795 193.224 183.371 216.948 150.6 231.605L149.924 231.905H149.919ZM94.0047 96.781C93.9428 104.31 93.8952 136.505 97.0333 158.929C101.567 191.276 118.867 213.976 149.929 228.305C166.429 220.814 179.319 210.738 188.248 198.357C196.281 187.214 201.329 174.205 203.671 158.581C206.843 137.452 207.014 104.452 207.009 96.781H94.0047Z" fill="#006648"></path>
      <path d="M168.724 116.633C168.724 116.633 168.071 116.757 167.119 116.757C166.643 116.757 166.09 116.728 165.51 116.633C163.767 116.357 161.381 116.267 161.381 116.267C161.381 116.267 161.838 115.99 162.114 115.99C162.39 115.99 163.305 115.714 164.5 115.714C165.695 115.714 165.876 114.795 165.876 114.795C165.876 114.795 163.305 114.338 162.295 114.243C161.286 114.152 157.614 113.324 157.614 113.324C157.614 113.324 158.9 113.414 160.276 113.6C160.4 113.619 160.514 113.624 160.619 113.624C161.667 113.624 161.71 112.867 161.376 112.867C161.01 112.867 157.981 111.033 157.981 111.033L158.624 111.219C158.624 111.219 159.819 111.586 160.733 111.771C161.652 111.957 161.929 112.505 162.843 112.595C162.948 112.605 163.052 112.609 163.162 112.609C163.805 112.609 164.51 112.452 165.39 112.452C165.657 112.452 165.938 112.467 166.238 112.505C166.386 112.524 166.533 112.533 166.681 112.533C168.005 112.533 169.267 111.862 169.267 111.862C169.267 111.862 166.79 110.209 164.586 109.386C162.381 108.562 160.824 106.814 160.824 106.814H162.11C162.752 106.814 162.752 106.081 162.11 105.99C161.467 105.9 158.624 104.524 158.624 104.524H159.724C159.905 104.524 160.667 104.548 161.548 104.548C162.429 104.548 163.438 104.524 164.129 104.433C165.419 104.262 166.386 103.038 166.048 103.038C166.024 103.038 165.995 103.043 165.962 103.057C165.938 103.067 165.9 103.067 165.848 103.067C164.762 103.067 157.871 101.39 158.162 101.39C158.176 101.39 158.205 101.39 158.252 101.405C158.333 101.419 158.405 101.424 158.481 101.424C159.429 101.424 159.905 100.395 159.905 100.395C159.905 100.395 158.895 100.028 157.243 99.5714C155.59 99.1142 155.776 98.4713 156.233 98.4713C156.69 98.4713 156.324 97.919 156.876 97.919C157.243 97.919 158.1 97.9618 158.957 97.9618C159.386 97.9618 159.814 97.9523 160.181 97.919C161.281 97.8285 161.924 97.1856 162.843 97.1856C163.762 97.1856 163.576 95.9904 163.576 95.9904C163.576 95.9904 159.448 94.7952 157.795 94.2475C156.267 93.738 155.6 93.2285 157.038 93.2285C157.152 93.2285 157.281 93.2285 157.429 93.238C157.5 93.238 157.567 93.2428 157.638 93.2428C159.405 93.2428 159.971 92.1237 159.267 91.8618C158.533 91.5856 155.505 90.9428 155.505 90.9428L154.405 89.5666C154.481 89.5952 154.586 89.6094 154.705 89.6094C155.31 89.6094 156.329 89.2904 156.329 89.2904C156.329 89.2904 156.052 88.6475 155.319 88.4666C154.586 88.2809 152.476 86.8142 153.3 86.2666C154.124 85.7142 154.31 83.3285 154.31 83.3285L152.681 84.5047C152.695 84.5999 152.695 84.6285 152.69 84.6285C152.681 84.6285 152.657 84.519 152.657 84.519L152.681 84.5047C152.652 84.3047 151.748 83.7571 151.548 82.6237C151.229 80.7666 150.638 79.1809 150.41 78.8952V78.8047C150.41 78.8047 150.376 78.8333 150.362 78.8475L150.352 78.838V78.8571C150.086 79.0999 149.162 80.6571 148.838 82.538C148.643 83.6761 147.61 84.3094 147.586 84.5094L147.61 84.5237C147.61 84.5237 147.586 84.6333 147.576 84.6333C147.576 84.6333 147.576 84.6047 147.586 84.5094L145.957 83.3333C145.957 83.3333 146.138 85.719 146.967 86.2714C147.79 86.8237 145.681 88.2904 144.948 88.4713C144.214 88.6571 143.938 89.2952 143.938 89.2952C143.938 89.2952 144.957 89.6142 145.562 89.6142C145.681 89.6142 145.786 89.5999 145.862 89.5714L144.762 90.9475C144.762 90.9475 141.733 91.5904 141 91.8666C140.29 92.1333 140.862 93.2475 142.629 93.2475C142.695 93.2475 142.767 93.2475 142.838 93.2428C142.981 93.238 143.11 93.2333 143.224 93.2333C144.662 93.2333 144 93.7428 142.471 94.2523C140.819 94.8047 136.69 95.9952 136.69 95.9952C136.69 95.9952 136.505 97.1904 137.424 97.1904C138.343 97.1904 138.986 97.8333 140.086 97.9237C140.452 97.9523 140.881 97.9666 141.31 97.9666C142.167 97.9666 143.024 97.9237 143.39 97.9237C143.943 97.9237 143.571 98.4761 144.033 98.4761C144.495 98.4761 144.676 99.119 143.024 99.5761C141.371 100.033 140.362 100.4 140.362 100.4C140.362 100.4 140.838 101.428 141.786 101.428C141.857 101.428 141.933 101.424 142.014 101.409C142.062 101.4 142.09 101.395 142.105 101.395C142.395 101.395 135.505 103.071 134.419 103.071C134.367 103.071 134.329 103.071 134.305 103.062C134.271 103.052 134.243 103.043 134.219 103.043C133.881 103.043 134.848 104.262 136.138 104.438C136.829 104.528 137.838 104.552 138.719 104.552C139.6 104.552 140.357 104.528 140.543 104.528H141.643C141.643 104.528 138.8 105.905 138.157 105.995C137.514 106.086 137.514 106.819 138.157 106.819H139.443C139.443 106.819 137.881 108.562 135.681 109.39C133.476 110.214 131 111.867 131 111.867C131 111.867 132.262 112.538 133.586 112.538C133.733 112.538 133.881 112.528 134.029 112.509C134.329 112.471 134.614 112.457 134.876 112.457C135.757 112.457 136.462 112.614 137.105 112.614C137.214 112.614 137.319 112.614 137.424 112.6C138.343 112.509 138.619 111.957 139.533 111.776C140.452 111.595 141.643 111.224 141.643 111.224L142.286 111.038C142.286 111.038 139.257 112.871 138.89 112.871C138.557 112.871 138.6 113.628 139.648 113.628C139.752 113.628 139.867 113.619 139.99 113.605C141.367 113.419 142.652 113.328 142.652 113.328C142.652 113.328 138.981 114.152 137.971 114.248C136.962 114.338 134.39 114.8 134.39 114.8C134.39 114.8 134.576 115.719 135.767 115.719C136.957 115.719 137.876 115.995 138.152 115.995C138.429 115.995 138.886 116.271 138.886 116.271C138.886 116.271 136.5 116.362 134.757 116.638C134.176 116.728 133.624 116.762 133.148 116.762C132.195 116.762 131.543 116.638 131.543 116.638C131.543 116.638 130.81 117.281 131.91 117.833C133.01 118.386 134.571 119.028 135.214 119.119C135.343 119.138 135.51 119.143 135.69 119.143C136.419 119.143 137.419 119.024 137.419 119.024L136.224 119.576C136.224 119.576 135.124 120.309 137.419 120.4C137.538 120.405 137.662 120.409 137.781 120.409C139.957 120.409 142.1 119.667 142.1 119.667C142.1 119.667 139.071 121.686 138.338 121.776C137.605 121.867 136.505 122.052 136.229 122.328C135.952 122.605 134.852 123.614 134.119 123.614C133.7 123.614 133.129 123.552 132.719 123.552C132.41 123.552 132.19 123.586 132.19 123.705C132.19 123.981 132.19 124.533 133.476 124.714C133.852 124.767 134.348 124.79 134.876 124.79C136.148 124.79 137.614 124.662 138.067 124.533C138.71 124.348 140.086 123.705 140.086 123.705H141.186C141.186 123.705 138.614 125.538 137.7 125.814C136.781 126.09 133.848 126.914 133.848 126.914C133.848 126.914 133.848 127.838 135.214 127.838C135.276 127.838 135.343 127.838 135.41 127.833C136.971 127.743 138.162 127.743 138.529 127.648C138.662 127.614 138.967 127.405 139.305 127.152C139.919 126.695 140.638 126.086 140.638 126.086L139.905 127.462C139.905 127.462 139.995 127.5 140.152 127.5C140.414 127.5 140.857 127.39 141.371 126.819C142.195 125.9 143.3 124.614 143.3 124.614C143.3 124.614 141.833 127.552 141.467 127.828C141.1 128.105 142.11 128.195 142.11 128.195C142.752 128.195 144.886 126.138 145.333 126.138C145.395 126.138 145.424 126.176 145.414 126.267C145.324 127 144.129 128.928 144.129 128.928C146.238 128.928 148.352 126.452 148.352 126.452L147.986 127.371C147.986 127.371 147.986 144.443 147.619 145.543C147.252 146.643 142.757 148.571 142.757 148.571C142.757 148.571 143.676 149.028 143.952 149.028C144.229 149.028 145.695 148.938 146.062 148.843C146.429 148.752 147.714 148.567 147.714 148.567L149.824 148.476L149.933 148.462V148.486L150.471 148.476L152.581 148.567C152.581 148.567 153.867 148.752 154.233 148.843C154.6 148.933 156.067 149.028 156.343 149.028C156.619 149.028 157.538 148.571 157.538 148.571C157.538 148.571 153.043 146.643 152.676 145.543C152.31 144.443 152.31 127.371 152.31 127.371L151.943 126.452C151.943 126.452 154.052 128.928 156.167 128.928C156.167 128.928 154.971 127 154.881 126.267C154.871 126.176 154.9 126.138 154.962 126.138C155.41 126.138 157.543 128.195 158.186 128.195C158.186 128.195 159.195 128.105 158.829 127.828C158.462 127.552 156.995 124.614 156.995 124.614C156.995 124.614 158.095 125.9 158.924 126.819C159.438 127.39 159.886 127.5 160.143 127.5C160.3 127.5 160.39 127.462 160.39 127.462L159.657 126.086C159.657 126.086 160.381 126.695 160.99 127.152C161.329 127.405 161.638 127.614 161.767 127.648C162.133 127.738 163.329 127.738 164.886 127.833C164.952 127.833 165.019 127.838 165.081 127.838C166.448 127.838 166.448 126.914 166.448 126.914C166.448 126.914 163.51 126.09 162.595 125.814C161.676 125.538 159.11 123.705 159.11 123.705H160.21C160.21 123.705 161.586 124.348 162.229 124.533C162.681 124.662 164.148 124.79 165.419 124.79C165.948 124.79 166.443 124.767 166.819 124.714C168.105 124.533 168.105 123.981 168.105 123.705C168.105 123.586 167.886 123.552 167.576 123.552C167.167 123.552 166.595 123.614 166.176 123.614C165.443 123.614 164.343 122.605 164.067 122.328C163.79 122.052 162.69 121.871 161.957 121.776C161.224 121.686 158.195 119.667 158.195 119.667C158.195 119.667 160.338 120.409 162.514 120.409C162.633 120.409 162.757 120.409 162.876 120.4C165.171 120.309 164.071 119.576 164.071 119.576L162.876 119.024C162.876 119.024 163.876 119.143 164.605 119.143C164.786 119.143 164.952 119.133 165.081 119.119C165.724 119.028 167.286 118.386 168.386 117.833C169.486 117.281 168.752 116.638 168.752 116.638" fill="#006648"></path>
      <path d="M167.638 193.243C167.929 192.824 167.938 192.352 167.938 192.324V169.762L167.171 169.395L167.048 191.49C167.076 191.524 167.09 191.562 167.105 191.6L167.638 193.243Z" fill="white"></path>
      <path d="M163.214 192.472C162.176 192.557 160.962 192.486 159.671 192.414C157.033 192.267 153.59 192.1 150.995 193.129C151.1 193.343 151.162 193.591 151.162 193.857C151.162 193.872 151.162 193.886 151.162 193.895C155.8 193.895 160.79 193.895 163.59 193.9H166.157C166.438 193.9 166.671 193.867 166.867 193.8L166.3 192.062C165.676 192.172 164.467 192.367 163.219 192.467" fill="white"></path>
      <path d="M150.324 192.49C150.324 192.49 150.367 192.505 150.39 192.519C153.219 191.286 156.89 191.462 159.719 191.624C160.976 191.695 162.167 191.762 163.152 191.681C164.428 191.576 165.69 191.367 166.267 191.271L166.39 169.167C166.095 169.176 165.662 169.195 165.195 169.21C163.319 169.286 160.486 169.4 159.148 169.267C157.005 169.057 152.648 168.876 150.328 169.986V192.548V192.49H150.324ZM154.381 174.543H162.152C162.371 174.543 162.548 174.719 162.548 174.943C162.548 175.167 162.371 175.338 162.152 175.338H154.381C154.162 175.338 153.986 175.162 153.986 174.943C153.986 174.724 154.162 174.543 154.381 174.543ZM154.381 177.514H162.152C162.371 177.514 162.548 177.69 162.548 177.914C162.548 178.138 162.371 178.314 162.152 178.314H154.381C154.162 178.314 153.986 178.138 153.986 177.914C153.986 177.69 154.162 177.514 154.381 177.514ZM154.381 180.486H162.152C162.371 180.486 162.548 180.662 162.548 180.886C162.548 181.11 162.371 181.281 162.152 181.281H154.381C154.162 181.281 153.986 181.105 153.986 180.886C153.986 180.667 154.162 180.486 154.381 180.486ZM154.381 183.457H162.152C162.371 183.457 162.548 183.633 162.548 183.857C162.548 184.081 162.371 184.257 162.152 184.257H154.381C154.162 184.257 153.986 184.081 153.986 183.857C153.986 183.633 154.162 183.457 154.381 183.457ZM154.381 186.429H162.152C162.371 186.429 162.548 186.605 162.548 186.824C162.548 187.043 162.371 187.224 162.152 187.224H154.381C154.162 187.224 153.986 187.048 153.986 186.824C153.986 186.6 154.162 186.429 154.381 186.429Z" fill="white"></path>
      <path d="M133.386 191.643C133.386 191.643 133.386 191.633 133.39 191.628C133.39 191.619 133.39 191.609 133.39 191.6L133.267 169.495L132.767 169.824V192.367C132.767 192.543 132.767 192.8 132.843 193.057L133.386 191.638V191.643Z" fill="white"></path>
      <path d="M148.686 193.895C148.686 193.895 148.686 193.871 148.686 193.857C148.686 193.604 148.738 193.371 148.833 193.171C145.814 191.919 142.728 192.176 140.052 192.366C138.952 192.447 138 192.514 137.243 192.471C136.014 192.4 134.833 192.209 134.195 192.085L133.552 193.771C133.814 193.871 134.147 193.914 134.547 193.905C135.205 193.89 141.524 193.89 148.69 193.89" fill="white"></path>
      <path d="M168.852 170.424V192.324C168.852 193.328 168.133 194.824 166.148 194.824H163.581C160.719 194.824 155.59 194.814 150.848 194.814C150.619 195.114 150.29 195.305 149.919 195.305C149.548 195.305 149.219 195.114 148.986 194.814C141.719 194.809 135.219 194.809 134.557 194.824C134.514 194.824 134.476 194.824 134.433 194.824C133.567 194.824 132.895 194.6 132.452 194.167C131.833 193.557 131.838 192.724 131.838 192.367V170.457C131.362 171.452 130.924 172.419 130.924 172.419C130.924 172.419 131.01 192.176 131.048 194.048C131.076 195.509 132.362 195.733 132.981 195.671C133.605 195.609 142.1 195.505 145.524 195.814C147.995 196.043 148.171 196.852 149.805 197C151.843 196.824 152.395 195.909 154.933 195.814C158.367 195.69 167.181 195.609 167.805 195.671C168.429 195.733 169.729 195.505 169.738 194.048C169.752 192.171 169.862 172.419 169.862 172.419C169.862 172.419 169.357 171.395 168.843 170.419" fill="white"></path>
      <path d="M137.281 191.681C137.986 191.719 138.914 191.652 139.99 191.576C141.062 191.5 142.271 191.41 143.543 191.41C145.629 191.41 147.381 191.648 149.4 192.548C149.443 192.562 149.486 192.586 149.524 192.605C149.486 192.586 149.443 192.567 149.4 192.548C149.438 192.524 149.481 192.5 149.524 192.491V170.048C147.086 168.81 143.129 169.086 141.3 169.267C139.962 169.4 137.129 169.281 135.248 169.21C134.781 169.195 134.348 169.176 134.057 169.167L134.176 191.276C134.743 191.386 136 191.61 137.281 191.681ZM138.686 174.543H146.129C146.348 174.543 146.524 174.719 146.524 174.943C146.524 175.167 146.348 175.338 146.129 175.338H138.686C138.467 175.338 138.29 175.162 138.29 174.943C138.29 174.724 138.467 174.543 138.686 174.543ZM138.686 177.514H146.129C146.348 177.514 146.524 177.691 146.524 177.914C146.524 178.138 146.348 178.314 146.129 178.314H138.686C138.467 178.314 138.29 178.138 138.29 177.914C138.29 177.691 138.467 177.514 138.686 177.514ZM138.686 180.486H146.129C146.348 180.486 146.524 180.662 146.524 180.886C146.524 181.11 146.348 181.281 146.129 181.281H138.686C138.467 181.281 138.29 181.105 138.29 180.886C138.29 180.667 138.467 180.486 138.686 180.486ZM138.686 183.457H146.129C146.348 183.457 146.524 183.633 146.524 183.857C146.524 184.081 146.348 184.257 146.129 184.257H138.686C138.467 184.257 138.29 184.081 138.29 183.857C138.29 183.633 138.467 183.457 138.686 183.457ZM138.686 186.429H146.129C146.348 186.429 146.524 186.605 146.524 186.824C146.524 187.043 146.348 187.224 146.129 187.224H138.686C138.467 187.224 138.29 187.048 138.29 186.824C138.29 186.6 138.467 186.429 138.686 186.429Z" fill="white"></path>
      <path d="M143.162 168.338C143.738 168.338 144.329 168.328 144.924 168.324C144.309 168.305 143.709 168.314 143.162 168.338Z" fill="#006648"></path>
      <path d="M133.633 168.371C133.595 168.371 133.557 168.381 133.524 168.395C133.857 168.4 134.338 168.404 134.943 168.404C134.195 168.376 133.786 168.362 133.633 168.371Z" fill="#006648"></path>
      <path d="M168.671 169.276L168.691 169.228L167.981 168.895L167.229 168.538L166.948 168.405C166.9 168.381 166.857 168.367 166.805 168.367C166.652 168.352 166.224 168.367 165.443 168.405H165.429C165.343 168.405 165.252 168.409 165.157 168.414C163.414 168.486 160.5 168.6 159.219 168.471C156.957 168.252 152.357 168.071 149.867 169.324C148.462 168.624 146.638 168.376 144.957 168.324H144.929C144.329 168.324 143.743 168.333 143.167 168.338H143.148C142.395 168.367 141.738 168.424 141.229 168.471C139.948 168.6 137.033 168.481 135.291 168.414C135.167 168.414 135.052 168.405 134.948 168.4C134.343 168.4 133.867 168.4 133.529 168.39C133.5 168.4 133.476 168.419 133.448 168.433C133.448 168.433 133.443 168.433 133.438 168.433H133.429L132.586 168.99L132.3 169.176C132.048 169.181 131.848 169.386 131.848 169.633V192.362C131.848 192.719 131.848 193.552 132.462 194.162C132.905 194.595 133.576 194.819 134.443 194.819C134.481 194.819 134.524 194.819 134.567 194.819C135.229 194.805 141.724 194.805 148.995 194.809C149.224 195.109 149.557 195.3 149.929 195.3C150.3 195.3 150.629 195.109 150.857 194.809C155.6 194.809 160.729 194.814 163.591 194.819H166.157C168.143 194.819 168.862 193.324 168.862 192.319V169.638C168.862 169.49 168.791 169.357 168.681 169.276M133.386 191.643L132.843 193.062C132.762 192.805 132.762 192.547 132.767 192.371V169.828L133.267 169.5L133.391 191.605C133.391 191.605 133.391 191.624 133.391 191.633C133.391 191.633 133.391 191.643 133.386 191.647M148.686 193.895C141.524 193.895 135.205 193.895 134.543 193.909C134.143 193.919 133.81 193.876 133.548 193.776L134.191 192.09C134.829 192.214 136.01 192.405 137.238 192.476C137.995 192.519 138.948 192.447 140.048 192.371C142.724 192.181 145.81 191.924 148.829 193.176C148.733 193.381 148.681 193.614 148.681 193.862C148.681 193.876 148.681 193.886 148.681 193.9M143.543 191.409C142.271 191.409 141.062 191.5 139.991 191.576C138.914 191.652 137.986 191.719 137.281 191.681C136.005 191.609 134.743 191.386 134.176 191.276L134.057 169.167C134.348 169.176 134.781 169.195 135.248 169.209C137.129 169.286 139.962 169.4 141.3 169.267C143.124 169.086 147.086 168.809 149.524 170.047V192.605C149.486 192.586 149.443 192.567 149.4 192.547C147.381 191.647 145.629 191.409 143.543 191.409ZM150.552 193.9C150.538 194.343 150.262 194.695 149.924 194.695C149.586 194.695 149.31 194.328 149.291 193.895V193.857C149.291 193.7 149.329 193.547 149.386 193.419C149.424 193.338 149.471 193.271 149.524 193.209C149.633 193.086 149.776 193.014 149.924 193.014C150.071 193.014 150.214 193.086 150.324 193.205C150.371 193.252 150.405 193.305 150.433 193.367C150.505 193.5 150.552 193.671 150.552 193.852V193.89V193.9ZM150.386 192.519C150.386 192.519 150.343 192.533 150.319 192.547V169.986C152.638 168.876 156.991 169.052 159.138 169.267C160.476 169.4 163.31 169.281 165.186 169.209C165.652 169.195 166.086 169.176 166.381 169.167L166.257 191.271C165.686 191.371 164.419 191.576 163.143 191.681C162.157 191.762 160.967 191.695 159.71 191.624C156.881 191.462 153.21 191.286 150.381 192.519M166.148 193.909H163.581C160.781 193.905 155.791 193.9 151.152 193.9C151.152 193.886 151.152 193.871 151.152 193.862C151.152 193.595 151.091 193.347 150.986 193.133C153.581 192.105 157.024 192.271 159.662 192.419C160.952 192.49 162.167 192.562 163.205 192.476C164.457 192.376 165.662 192.181 166.286 192.071L166.852 193.809C166.657 193.876 166.419 193.909 166.143 193.909M167.938 192.324C167.938 192.357 167.933 192.828 167.638 193.243L167.105 191.6C167.091 191.562 167.076 191.524 167.048 191.49L167.171 169.395L167.938 169.762V192.324Z" fill="#006648"></path>
      <path d="M154.381 175.338H162.152C162.371 175.338 162.547 175.162 162.547 174.943C162.547 174.724 162.371 174.543 162.152 174.543H154.381C154.162 174.543 153.986 174.719 153.986 174.943C153.986 175.167 154.162 175.338 154.381 175.338Z" fill="#006648"></path>
      <path d="M154.381 178.309H162.152C162.371 178.309 162.547 178.133 162.547 177.909C162.547 177.686 162.371 177.514 162.152 177.514H154.381C154.162 177.514 153.986 177.69 153.986 177.909C153.986 178.128 154.162 178.309 154.381 178.309Z" fill="#006648"></path>
      <path d="M154.381 181.281H162.152C162.371 181.281 162.547 181.105 162.547 180.886C162.547 180.667 162.371 180.486 162.152 180.486H154.381C154.162 180.486 153.986 180.662 153.986 180.886C153.986 181.11 154.162 181.281 154.381 181.281Z" fill="#006648"></path>
      <path d="M154.381 184.252H162.152C162.371 184.252 162.547 184.076 162.547 183.857C162.547 183.638 162.371 183.457 162.152 183.457H154.381C154.162 183.457 153.986 183.633 153.986 183.857C153.986 184.081 154.162 184.252 154.381 184.252Z" fill="#006648"></path>
      <path d="M154.381 187.224H162.152C162.371 187.224 162.547 187.048 162.547 186.829C162.547 186.61 162.371 186.429 162.152 186.429H154.381C154.162 186.429 153.986 186.605 153.986 186.829C153.986 187.053 154.162 187.224 154.381 187.224Z" fill="#006648"></path>
      <path d="M138.686 175.338H146.129C146.348 175.338 146.524 175.162 146.524 174.943C146.524 174.724 146.348 174.543 146.129 174.543H138.686C138.467 174.543 138.291 174.719 138.291 174.943C138.291 175.167 138.467 175.338 138.686 175.338Z" fill="#006648"></path>
      <path d="M138.686 178.309H146.129C146.348 178.309 146.524 178.133 146.524 177.909C146.524 177.686 146.348 177.514 146.129 177.514H138.686C138.467 177.514 138.291 177.69 138.291 177.909C138.291 178.128 138.467 178.309 138.686 178.309Z" fill="#006648"></path>
      <path d="M138.686 181.281H146.129C146.348 181.281 146.524 181.105 146.524 180.886C146.524 180.667 146.348 180.486 146.129 180.486H138.686C138.467 180.486 138.291 180.662 138.291 180.886C138.291 181.11 138.467 181.281 138.686 181.281Z" fill="#006648"></path>
      <path d="M138.686 184.252H146.129C146.348 184.252 146.524 184.076 146.524 183.857C146.524 183.638 146.348 183.457 146.129 183.457H138.686C138.467 183.457 138.291 183.633 138.291 183.857C138.291 184.081 138.467 184.252 138.686 184.252Z" fill="#006648"></path>
      <path d="M138.686 187.224H146.129C146.348 187.224 146.524 187.048 146.524 186.829C146.524 186.61 146.348 186.429 146.129 186.429H138.686C138.467 186.429 138.291 186.605 138.291 186.829C138.291 187.053 138.467 187.224 138.686 187.224Z" fill="#006648"></path>
      <path d="M150.324 192.547C150.324 192.547 150.367 192.528 150.39 192.519C150.39 192.519 150.348 192.495 150.324 192.49V192.547Z" fill="#006648"></path>
      <path d="M149.524 192.605V192.49C149.481 192.505 149.438 192.524 149.4 192.547C149.443 192.562 149.486 192.585 149.524 192.605Z" fill="#006648"></path>
      <path d="M150.324 192.548C150.324 192.548 150.367 192.529 150.39 192.519C150.39 192.519 150.348 192.533 150.324 192.548Z" fill="#006648"></path>
      <path d="M152.695 84.6189C152.695 84.6189 152.695 84.5904 152.686 84.4951L152.662 84.5094C152.662 84.5094 152.686 84.6189 152.695 84.6189Z" fill="white"></path>
      <path d="M169.705 115.509C169.428 115.271 169.081 115.143 168.724 115.143C168.633 115.143 168.543 115.152 168.447 115.167C168.447 115.167 167.981 115.248 167.295 115.262C167.309 115.205 167.324 115.148 167.338 115.09C167.414 114.714 167.338 114.324 167.138 114C168.595 113.886 169.824 113.252 169.971 113.176C170.433 112.928 170.738 112.457 170.762 111.933C170.79 111.409 170.538 110.909 170.1 110.619C169.99 110.548 167.452 108.862 165.114 107.986C164.652 107.814 164.224 107.59 163.838 107.352C163.976 107.119 164.062 106.852 164.081 106.567C164.095 106.352 164.076 106.138 164.019 105.943C164.128 105.933 164.233 105.919 164.328 105.905C165.886 105.695 167.695 104.352 167.605 102.99C167.552 102.167 166.881 101.543 166.052 101.543C165.962 101.543 165.867 101.552 165.776 101.567C165.162 101.514 163.124 101.076 161.376 100.671C161.428 100.386 161.4 100.09 161.29 99.819C161.209 99.6237 161.086 99.4475 160.933 99.3047C161.414 99.1999 161.814 99.0333 162.147 98.8952C162.447 98.7714 162.686 98.6714 162.847 98.6714C163.509 98.6714 164.105 98.4094 164.514 97.9285C165.205 97.1237 165.105 96.0666 165.057 95.7618C164.967 95.1904 164.557 94.719 164 94.5571C163.971 94.5475 162.233 94.0475 160.581 93.5475C160.819 93.2475 160.971 92.9142 161.028 92.5809C161.195 91.6666 160.686 90.7952 159.795 90.4618C159.395 90.3095 158.524 90.0952 157.695 89.8999C157.867 89.519 157.871 89.0856 157.705 88.6999C157.443 88.0952 156.767 87.2904 155.705 87.019C155.538 86.9618 155.233 86.7761 154.967 86.5809C155.543 85.5999 155.738 84.2809 155.805 83.438C155.847 82.8618 155.552 82.3095 155.047 82.0237C154.819 81.8952 154.571 81.8333 154.319 81.8333C154.009 81.8333 153.705 81.9285 153.447 82.1142L153.038 82.4094C153.038 82.4094 153.033 82.3761 153.028 82.3618C152.795 80.9952 152.324 79.3095 151.857 78.3952C151.776 78.0999 151.6 77.8333 151.357 77.6333C151.09 77.419 150.757 77.3047 150.424 77.3047C150.319 77.3047 150.209 77.3142 150.105 77.338C149.971 77.3666 149.843 77.4142 149.724 77.4761C149.638 77.5142 149.557 77.5666 149.481 77.619C149.328 77.7333 149.2 77.8714 149.1 78.0285C148.509 78.7952 147.686 80.4714 147.376 82.2714C147.367 82.3333 147.347 82.3952 147.319 82.4571L146.833 82.1094C146.576 81.9237 146.267 81.8285 145.962 81.8285C145.709 81.8285 145.462 81.8904 145.233 82.019C144.728 82.3047 144.433 82.8523 144.476 83.4333C144.543 84.2761 144.738 85.5999 145.314 86.5761C145.052 86.7714 144.743 86.9571 144.576 87.0142C143.514 87.2856 142.833 88.0904 142.576 88.6952C142.409 89.0761 142.414 89.5142 142.586 89.8952C141.752 90.0904 140.886 90.3095 140.486 90.4571C139.595 90.7904 139.09 91.6618 139.257 92.5761C139.319 92.9095 139.467 93.2428 139.705 93.5428C138.052 94.0428 136.309 94.5428 136.286 94.5523C135.728 94.7142 135.314 95.1856 135.228 95.7571C135.181 96.0618 135.081 97.1237 135.771 97.9237C136.181 98.3999 136.771 98.6666 137.438 98.6666C137.605 98.6666 137.838 98.7666 138.138 98.8904C138.476 99.0333 138.871 99.1952 139.352 99.3047C139.2 99.4475 139.076 99.6237 138.995 99.819C138.881 100.09 138.852 100.39 138.909 100.671C137.162 101.076 135.128 101.514 134.509 101.567C134.419 101.552 134.324 101.543 134.233 101.543C133.4 101.543 132.733 102.167 132.681 102.99C132.638 103.667 133.014 104.328 133.805 104.957C134.447 105.467 135.209 105.805 135.957 105.905C136.052 105.919 136.157 105.928 136.267 105.943C136.209 106.143 136.19 106.352 136.205 106.567C136.224 106.852 136.309 107.119 136.447 107.352C136.062 107.59 135.633 107.814 135.171 107.986C132.833 108.862 130.295 110.548 130.186 110.619C129.747 110.909 129.495 111.409 129.524 111.933C129.552 112.457 129.852 112.928 130.314 113.176C130.462 113.252 131.69 113.886 133.147 114C132.943 114.324 132.871 114.714 132.947 115.09C132.957 115.148 132.971 115.205 132.99 115.262C132.305 115.248 131.838 115.167 131.833 115.167C131.743 115.152 131.657 115.143 131.567 115.143C131.209 115.143 130.857 115.271 130.581 115.509C130.157 115.881 129.743 116.562 129.847 117.376C129.914 117.9 130.214 118.633 131.262 119.157C132.009 119.533 133.533 120.224 134.581 120.49C134.7 120.838 134.905 121.1 135.157 121.295C134.795 121.648 134.29 122.028 134.052 122.114C133.895 122.114 133.7 122.1 133.509 122.086C133.247 122.071 132.976 122.052 132.724 122.052C130.762 122.052 130.709 123.524 130.709 123.695C130.709 124.405 130.976 125.581 132.633 126.048C132.462 126.295 132.362 126.59 132.362 126.909C132.362 127.881 133.124 129.324 135.219 129.324C135.309 129.324 135.405 129.324 135.5 129.314C136.081 129.281 136.609 129.257 137.071 129.243C138.076 129.205 138.533 129.181 138.895 129.09C139.062 129.048 139.228 128.981 139.428 128.871C139.586 128.928 139.838 128.99 140.162 128.99C140.205 128.99 140.252 128.99 140.295 128.99C140.643 129.381 141.205 129.614 141.981 129.686C142.024 129.686 142.071 129.69 142.114 129.69C142.343 129.69 142.562 129.648 142.786 129.571C142.8 129.6 142.814 129.633 142.833 129.662C143.095 130.133 143.595 130.428 144.133 130.428C144.971 130.428 145.776 130.171 146.495 129.809C146.476 136.624 146.376 143.538 146.209 144.99C145.705 145.471 143.909 146.462 142.171 147.209C141.638 147.438 141.286 147.957 141.271 148.538C141.252 149.119 141.576 149.657 142.095 149.914C143.328 150.528 143.767 150.528 143.957 150.528C144.2 150.528 145.843 150.448 146.428 150.3C146.595 150.257 147.286 150.148 147.857 150.067L149.786 149.981C149.838 149.986 149.886 149.99 149.938 149.99C149.947 149.99 149.957 149.99 149.967 149.99L150.457 149.981L152.447 150.067C153.019 150.148 153.709 150.262 153.876 150.3C154.462 150.448 156.105 150.528 156.347 150.528C156.533 150.528 156.976 150.528 158.205 149.914C158.724 149.657 159.043 149.119 159.028 148.538C159.009 147.957 158.662 147.443 158.128 147.209C156.39 146.462 154.595 145.471 154.09 144.99C153.924 143.543 153.824 136.624 153.805 129.809C154.524 130.171 155.328 130.428 156.167 130.428C156.709 130.428 157.205 130.138 157.467 129.662C157.481 129.633 157.5 129.605 157.514 129.571C157.738 129.652 157.957 129.69 158.186 129.69C158.228 129.69 158.276 129.69 158.319 129.686C159.095 129.614 159.657 129.381 160.005 128.99C160.052 128.99 160.095 128.99 160.138 128.99C160.457 128.99 160.709 128.928 160.871 128.871C161.071 128.986 161.233 129.052 161.405 129.09C161.762 129.181 162.219 129.2 163.224 129.243C163.69 129.262 164.214 129.281 164.795 129.314C164.895 129.319 164.986 129.324 165.076 129.324C166.405 129.324 167.109 128.743 167.471 128.257C167.9 127.676 167.933 127.081 167.933 126.909C167.933 126.595 167.833 126.295 167.662 126.048C169.319 125.581 169.586 124.405 169.586 123.695C169.586 123.528 169.528 122.052 167.571 122.052C167.319 122.052 167.047 122.071 166.786 122.086C166.595 122.095 166.4 122.109 166.243 122.114C166.009 122.024 165.5 121.648 165.138 121.295C165.39 121.1 165.595 120.843 165.714 120.49C166.762 120.219 168.286 119.528 169.033 119.157C170.081 118.633 170.381 117.9 170.447 117.376C170.552 116.562 170.138 115.881 169.714 115.509M164.576 119.138C163.847 119.138 162.847 119.019 162.847 119.019L164.043 119.571C164.043 119.571 165.143 120.305 162.847 120.395C162.728 120.4 162.605 120.405 162.486 120.405C160.309 120.405 158.167 119.662 158.167 119.662C158.167 119.662 161.195 121.681 161.928 121.771C162.662 121.862 163.762 122.048 164.038 122.324C164.314 122.6 165.414 123.609 166.147 123.609C166.567 123.609 167.138 123.548 167.547 123.548C167.857 123.548 168.076 123.581 168.076 123.7C168.076 123.976 168.076 124.524 166.79 124.709C166.414 124.762 165.919 124.786 165.39 124.786C164.119 124.786 162.652 124.657 162.2 124.524C161.557 124.338 160.181 123.7 160.181 123.7H159.081C159.081 123.7 161.652 125.533 162.571 125.809C163.49 126.086 166.424 126.909 166.424 126.909C166.424 126.909 166.424 127.833 165.057 127.833C164.995 127.833 164.928 127.833 164.862 127.828C163.3 127.738 162.109 127.738 161.743 127.643C161.614 127.609 161.305 127.4 160.967 127.148C160.352 126.69 159.633 126.081 159.633 126.081L160.367 127.457C160.367 127.457 160.276 127.495 160.119 127.495C159.857 127.495 159.414 127.386 158.9 126.814C158.076 125.895 156.971 124.609 156.971 124.609C156.971 124.609 158.438 127.548 158.805 127.824C159.171 128.1 158.162 128.19 158.162 128.19C157.519 128.19 155.386 126.133 154.938 126.133C154.876 126.133 154.847 126.171 154.857 126.262C154.947 126.995 156.143 128.924 156.143 128.924C154.033 128.924 151.919 126.448 151.919 126.448L152.286 127.367C152.286 127.367 152.286 144.438 152.652 145.538C153.019 146.638 157.514 148.567 157.514 148.567C157.514 148.567 156.595 149.024 156.319 149.024C156.043 149.024 154.576 148.933 154.209 148.838C153.843 148.748 152.557 148.562 152.557 148.562L150.447 148.471L149.909 148.481V148.457L149.8 148.471L147.69 148.562C147.69 148.562 146.405 148.748 146.038 148.838C145.671 148.928 144.205 149.024 143.928 149.024C143.652 149.024 142.733 148.567 142.733 148.567C142.733 148.567 147.228 146.638 147.595 145.538C147.962 144.438 147.962 127.367 147.962 127.367L148.328 126.448C148.328 126.448 146.219 128.924 144.105 128.924C144.105 128.924 145.3 126.995 145.39 126.262C145.4 126.171 145.371 126.133 145.309 126.133C144.862 126.133 142.728 128.19 142.086 128.19C142.086 128.19 141.076 128.1 141.443 127.824C141.809 127.548 143.276 124.609 143.276 124.609C143.276 124.609 142.176 125.895 141.347 126.814C140.833 127.386 140.386 127.495 140.128 127.495C139.971 127.495 139.881 127.457 139.881 127.457L140.614 126.081C140.614 126.081 139.895 126.69 139.281 127.148C138.943 127.4 138.633 127.609 138.505 127.643C138.138 127.733 136.943 127.733 135.386 127.828C135.319 127.828 135.252 127.833 135.19 127.833C133.824 127.833 133.824 126.909 133.824 126.909C133.824 126.909 136.762 126.086 137.676 125.809C138.59 125.533 141.162 123.7 141.162 123.7H140.062C140.062 123.7 138.686 124.343 138.043 124.524C137.59 124.652 136.124 124.786 134.852 124.786C134.324 124.786 133.828 124.762 133.452 124.709C132.167 124.524 132.167 123.976 132.167 123.7C132.167 123.581 132.386 123.548 132.695 123.548C133.105 123.548 133.676 123.609 134.095 123.609C134.828 123.609 135.928 122.6 136.205 122.324C136.481 122.048 137.581 121.867 138.314 121.771C139.047 121.681 142.076 119.662 142.076 119.662C142.076 119.662 139.933 120.405 137.757 120.405C137.638 120.405 137.514 120.405 137.395 120.395C135.1 120.305 136.2 119.571 136.2 119.571L137.395 119.019C137.395 119.019 136.395 119.138 135.667 119.138C135.486 119.138 135.319 119.128 135.19 119.114C134.547 119.024 132.986 118.381 131.886 117.828C130.786 117.276 131.519 116.633 131.519 116.633C131.519 116.633 132.171 116.757 133.124 116.757C133.6 116.757 134.152 116.728 134.733 116.633C136.476 116.357 138.862 116.267 138.862 116.267C138.862 116.267 138.405 115.99 138.128 115.99C137.852 115.99 136.938 115.714 135.743 115.714C134.547 115.714 134.367 114.795 134.367 114.795C134.367 114.795 136.938 114.338 137.947 114.243C138.957 114.152 142.628 113.324 142.628 113.324C142.628 113.324 141.343 113.414 139.967 113.6C139.843 113.619 139.728 113.624 139.624 113.624C138.576 113.624 138.533 112.867 138.867 112.867C139.233 112.867 142.262 111.033 142.262 111.033L141.619 111.219C141.619 111.219 140.424 111.586 139.509 111.771C138.59 111.957 138.314 112.505 137.4 112.595C137.295 112.605 137.19 112.609 137.081 112.609C136.438 112.609 135.733 112.452 134.852 112.452C134.586 112.452 134.305 112.467 134.005 112.505C133.857 112.524 133.709 112.533 133.562 112.533C132.238 112.533 130.976 111.867 130.976 111.867C130.976 111.867 133.452 110.214 135.657 109.39C137.862 108.567 139.419 106.819 139.419 106.819H138.133C137.49 106.819 137.49 106.086 138.133 105.995C138.776 105.905 141.619 104.528 141.619 104.528H140.519C140.333 104.528 139.576 104.552 138.695 104.552C137.814 104.552 136.8 104.529 136.114 104.438C134.824 104.267 133.857 103.043 134.195 103.043C134.219 103.043 134.247 103.048 134.281 103.062C134.305 103.071 134.343 103.071 134.395 103.071C135.481 103.071 142.371 101.395 142.081 101.395C142.067 101.395 142.038 101.395 141.99 101.405C141.914 101.419 141.838 101.424 141.762 101.424C140.814 101.424 140.338 100.395 140.338 100.395C140.338 100.395 141.347 100.028 143 99.5714C144.652 99.1142 144.467 98.4714 144.009 98.4714C143.552 98.4714 143.919 97.919 143.367 97.919C143 97.919 142.143 97.9571 141.286 97.9571C140.857 97.9571 140.428 97.9475 140.062 97.919C138.962 97.8285 138.319 97.1856 137.4 97.1856C136.481 97.1856 136.667 95.9904 136.667 95.9904C136.667 95.9904 140.795 94.7952 142.447 94.2475C143.976 93.738 144.643 93.2285 143.2 93.2285C143.086 93.2285 142.957 93.2285 142.814 93.238C142.743 93.238 142.671 93.2428 142.605 93.2428C140.838 93.2428 140.271 92.1285 140.976 91.8618C141.709 91.5856 144.738 90.9428 144.738 90.9428L145.838 89.5666C145.762 89.5952 145.657 89.6094 145.538 89.6094C144.933 89.6094 143.914 89.2904 143.914 89.2904C143.914 89.2904 144.19 88.6475 144.924 88.4666C145.657 88.2809 147.771 86.8142 146.943 86.2618C146.119 85.7094 145.933 83.3237 145.933 83.3237L147.562 84.4999C147.59 84.2999 148.619 83.6666 148.814 82.5285C149.138 80.6428 150.062 79.0904 150.328 78.8475V78.8285L150.338 78.838C150.352 78.8237 150.376 78.7999 150.386 78.7999V78.8904C150.614 79.1761 151.205 80.7618 151.524 82.619C151.719 83.7571 152.628 84.2999 152.657 84.4999L154.286 83.3237C154.286 83.3237 154.1 85.7094 153.276 86.2618C152.452 86.8142 154.562 88.2809 155.295 88.4666C156.028 88.6523 156.305 89.2904 156.305 89.2904C156.305 89.2904 155.286 89.6094 154.681 89.6094C154.562 89.6094 154.457 89.5952 154.381 89.5666L155.481 90.9428C155.481 90.9428 158.509 91.5856 159.243 91.8618C159.947 92.1285 159.381 93.2428 157.614 93.2428C157.547 93.2428 157.476 93.2428 157.405 93.238C157.262 93.2333 157.133 93.2285 157.019 93.2285C155.581 93.2285 156.243 93.738 157.771 94.2475C159.424 94.7999 163.552 95.9904 163.552 95.9904C163.552 95.9904 163.738 97.1856 162.819 97.1856C161.9 97.1856 161.257 97.8285 160.157 97.919C159.79 97.9475 159.362 97.9571 158.933 97.9571C158.076 97.9571 157.219 97.919 156.852 97.919C156.3 97.919 156.671 98.4714 156.209 98.4714C155.747 98.4714 155.567 99.1142 157.219 99.5714C158.871 100.028 159.881 100.395 159.881 100.395C159.881 100.395 159.405 101.424 158.457 101.424C158.386 101.424 158.309 101.419 158.228 101.405C158.181 101.395 158.152 101.395 158.138 101.395C157.847 101.395 164.738 103.071 165.824 103.071C165.876 103.071 165.914 103.071 165.938 103.062C165.971 103.052 166 103.043 166.024 103.043C166.362 103.043 165.395 104.262 164.105 104.438C163.414 104.529 162.405 104.552 161.524 104.552C160.643 104.552 159.886 104.528 159.7 104.528H158.6C158.6 104.528 161.443 105.905 162.086 105.995C162.728 106.086 162.728 106.819 162.086 106.819H160.8C160.8 106.819 162.362 108.562 164.562 109.39C166.767 110.214 169.243 111.867 169.243 111.867C169.243 111.867 167.981 112.533 166.657 112.533C166.509 112.533 166.362 112.524 166.214 112.505C165.914 112.467 165.633 112.452 165.367 112.452C164.486 112.452 163.781 112.609 163.138 112.609C163.028 112.609 162.924 112.609 162.819 112.595C161.9 112.505 161.624 111.952 160.709 111.771C159.79 111.586 158.6 111.219 158.6 111.219L157.957 111.033C157.957 111.033 160.986 112.867 161.352 112.867C161.686 112.867 161.643 113.624 160.595 113.624C160.49 113.624 160.376 113.614 160.252 113.6C158.876 113.414 157.59 113.324 157.59 113.324C157.59 113.324 161.262 114.148 162.271 114.243C163.281 114.333 165.852 114.795 165.852 114.795C165.852 114.795 165.667 115.714 164.476 115.714C163.286 115.714 162.367 115.99 162.09 115.99C161.814 115.99 161.357 116.267 161.357 116.267C161.357 116.267 163.743 116.357 165.486 116.633C166.067 116.724 166.619 116.757 167.095 116.757C168.047 116.757 168.7 116.633 168.7 116.633C168.7 116.633 169.433 117.276 168.333 117.828C167.233 118.381 165.671 119.024 165.028 119.114C164.9 119.133 164.733 119.138 164.552 119.138" fill="white"></path>
      <path d="M147.581 84.6189L147.614 84.5094L147.591 84.4951C147.581 84.5904 147.576 84.6189 147.581 84.6189Z" fill="white"></path>
    </g>
  </g>
</svg>
