<?xml version="1.0" encoding="UTF-8"?>
<svg preserveAspectRatio="xMidYMid slice" width="30px" height="30px" xmlns="http://www.w3.org/2000/svg" id="b" viewBox="0 0 105.11 105.11">
  <circle cx="52.56" cy="52.56" r="51.81" style="fill:#1e3869;"></circle>
  <path d="M52.56,105.11C23.58,105.11,0,81.54,0,52.56S23.58,0,52.56,0s52.56,23.58,52.56,52.56-23.58,52.56-52.56,52.56ZM52.56,1.49C24.4,1.49,1.49,24.4,1.49,52.56s22.91,51.06,51.06,51.06,51.07-22.91,51.07-51.06S80.71,1.49,52.56,1.49Z" style="fill:#71bf5b;"></path>
  <path d="M52.44,88.78c-19.97,0-36.22-16.25-36.22-36.22S32.47,16.33,52.44,16.33s36.22,16.25,36.22,36.22-16.25,36.22-36.22,36.22Zm0-70.96c-19.15,0-34.73,15.58-34.73,34.73s15.58,34.73,34.73,34.73,34.73-15.58,34.73-34.73-15.58-34.73-34.73-34.73Z" style="fill:#71bf5b;"></path>
  <g>
    <path d="M29.06,29.37l-.02,15.58c-.02,31.17,23.41,38.96,23.41,38.96,0,0,23.37-7.79,23.36-38.96l.03-15.58H29.06Z" style="fill:#1e3869;"></path>
    <path d="M30.82,31.14c-.07,2.05-.41,14.34,.46,21.57,3.06,21.84,19.74,28.41,21.17,28.93,1.42-.53,18.04-7.11,21.08-28.94,1.47-9.19,.72-19.74,.57-21.57H30.82Zm21.64,51.15l-.1-.03c-.18-.06-18.45-6.39-21.68-29.47-.96-7.92-.46-21.83-.46-21.97v-.29h44.44l.03,.28c.01,.12,1.06,11.87-.56,21.99-3.21,23.07-21.4,29.4-21.58,29.46l-.1,.03Z" style="fill:#71bf5b;"></path>
    <path d="M53.81,67.73c-1.08,.8-.21-.92-.97-2.53-1-6.45-.02-13.18,5.57-14.5,1.33,1.64-.11,5.6-4.05,8.02-1.09-4.34,3.54-7.01,3.54-7.01-.75,.46-4.71,1.78-4.59,8.07,8.77-3.05,6.68-10.03,6.66-10.02-2.44,.36-10.11,.65-7.92,18.21l.06,.7s-3.36-13.48-14.11-12.29c-.01,.01,0,.06,0,.08,0,.05-.13,7.94,9.3,7.36-.55-5.34-6.61-5.35-6.65-5.33,0,0,4.54,.69,4.81,4.25-5.81-1.62-6.49-4.98-6.47-5.15,8.48-1.07,12.45,9.76,12.62,13.37,.14,2.56,.41,7.19-1.66,8.68l2.52,1.16,3.38-1.65c-4.35,.7-2.66-9.47-2.66-9.47,.32-.22,5.64-8.44,11.84-7.98-1.48,4.82-5.95,4.34-5.95,4.34,.66-2.65,4.87-3.3,4.88-3.37,.02-.12-6.25,.25-6.37,4.61,0,0,8.08,.65,8.45-5.97-6.96-1.66-11.65,5.98-12.2,6.38" style="fill:#71bf5b;"></path>
    <path d="M40.54,37.31c-.29-1.14-.78-2.27-2.41-2.27-1.35,0-1.82,.99-1.82,1.89,0,1.19,.76,1.8,2.2,2.54,2.08,1.07,2.98,1.87,2.98,3.51,0,1.82-1.58,3.2-3.81,3.2-1.04,0-1.94-.29-2.65-.57-.14-.49-.35-1.66-.47-2.6l.54-.14c.35,1.16,1.11,2.67,2.91,2.67,1.25,0,2.01-.87,2.01-1.99,0-1.33-.71-1.87-2.23-2.7-1.82-.99-2.84-1.82-2.84-3.43s1.28-3,3.57-3c.97,0,1.92,.26,2.29,.33,.07,.62,.14,1.32,.28,2.44l-.54,.1Z" style="fill:#fff;"></path>
    <path d="M54.89,45.93v-.48c1.42-.14,1.47-.24,1.45-2.1l.02-7.06c-1.42,3.17-3.71,8.12-4.31,9.64h-.45c-.59-1.58-2.54-6.34-3.86-9.47-.29,6.06-.31,7.43-.31,7.76,.02,.97,.45,1.11,1.63,1.23v.48h-4.1v-.48c1-.1,1.42-.31,1.56-1.25,.1-.76,.12-1.38,.57-7.7,.07-.9-.1-1.19-1.63-1.33v-.49h3.01l3.83,8.78,4.1-8.78h3.03v.49c-1.49,.17-1.68,.33-1.65,1.54l.07,6.65c.07,1.85,.12,1.94,1.65,2.1v.48h-4.61Z" style="fill:#fff;"></path>
    <path d="M68.95,37.31c-.29-1.14-.78-2.27-2.41-2.27-1.35,0-1.82,.99-1.82,1.89,0,1.19,.76,1.8,2.2,2.54,2.08,1.07,2.98,1.87,2.98,3.51,0,1.82-1.58,3.2-3.81,3.2-1.04,0-1.94-.29-2.65-.57-.14-.49-.35-1.66-.47-2.6l.54-.14c.35,1.16,1.11,2.67,2.91,2.67,1.25,0,2.01-.87,2.01-1.99,0-1.33-.71-1.87-2.23-2.7-1.82-.99-2.84-1.82-2.84-3.43s1.28-3,3.57-3c.97,0,1.92,.26,2.29,.33,.07,.62,.14,1.32,.28,2.44l-.54,.1Z" style="fill:#fff;"></path>
  </g>
  <g>
    <path d="M93.13,45.49c-.17,.45-.22,.94-.15,1.46,.06,.42,.19,.8,.38,1.13s.45,.6,.77,.8l.5-.7c-.46-.32-.73-.75-.81-1.3-.05-.35-.02-.68,.1-.98,.12-.3,.3-.55,.55-.75,.25-.2,.55-.32,.9-.37s.67-.01,.97,.1c.3,.12,.54,.31,.74,.57,.2,.26,.32,.57,.37,.92,.08,.55-.06,1.04-.41,1.47l.67,.54c.25-.28,.42-.61,.52-.98,.1-.37,.12-.77,.06-1.19-.07-.52-.25-.98-.54-1.37-.29-.39-.65-.68-1.09-.86-.44-.18-.91-.24-1.42-.17-.51,.07-.95,.25-1.32,.55-.37,.29-.64,.67-.81,1.12Z" style="fill:#fff;"></path>
    <path d="M93.37,50.15l1.22,.49,.04,2.61-1.2,.54,.02,1.01,5.18-2.44-.02-.95-5.26-2.26,.02,1Zm4.28,1.75l-2.27,1.02-.03-1.96,2.3,.94Z" style="fill:#fff;"></path>
    <path d="M93.21,56.39l1.51,.19-.15,1.17c-.01,.09-.02,.16-.02,.2l-1.65,.87-.13,1.04,1.85-.98c.09,.37,.27,.67,.53,.9,.26,.23,.58,.36,.97,.41,.38,.05,.72,0,1.02-.14,.3-.14,.54-.37,.73-.69,.19-.31,.31-.7,.37-1.14l.27-2.13-5.18-.65-.12,.96Zm2.16,1.41l.14-1.12,2.06,.26-.14,1.12c-.05,.42-.18,.73-.39,.92-.2,.19-.47,.27-.8,.23s-.57-.18-.73-.42-.2-.57-.15-.99Z" style="fill:#fff;"></path>
    <rect x="94.43" y="59.44" width=".97" height="5.22" transform="translate(13.23 140.7) rotate(-77.09)" style="fill:#fff;"></rect>
    <polygon points="91.62 64.34 94.97 65.49 90.69 67.06 90.43 67.81 95.36 69.51 95.68 68.6 92.33 67.45 96.61 65.88 96.87 65.13 91.94 63.43 91.62 64.34" style="fill:#fff;"></polygon>
    <path d="M92.37,69.93c-.46-.23-.92-.34-1.39-.31s-.91,.18-1.31,.46c-.4,.27-.72,.65-.97,1.12-.17,.34-.29,.69-.35,1.06s-.06,.72,0,1.06l1.85,.95,.42-.81-1.45-.74c-.02-.36,.07-.72,.25-1.08,.17-.32,.39-.57,.66-.76s.57-.28,.89-.3,.64,.06,.95,.21c.32,.16,.56,.38,.74,.65s.26,.57,.27,.89-.07,.65-.24,.98c-.26,.5-.65,.83-1.19,1.01l.25,.82c.36-.09,.68-.26,.98-.51,.29-.25,.54-.57,.74-.96,.25-.48,.36-.96,.36-1.45,0-.49-.14-.93-.39-1.34s-.6-.72-1.06-.96Z" style="fill:#fff;"></path>
    <path d="M88.23,77.25c-.4-.32-.84-.5-1.31-.57-.47-.06-.93,0-1.37,.2-.44,.19-.83,.5-1.15,.91-.26,.34-.45,.69-.55,1.06-.1,.37-.12,.74-.04,1.11l.86-.13c-.09-.55,.03-1.05,.37-1.48,.22-.28,.48-.49,.78-.61,.3-.13,.61-.17,.92-.12s.61,.18,.89,.4,.48,.47,.6,.77,.16,.61,.1,.92c-.05,.32-.19,.62-.41,.9-.34,.43-.79,.67-1.34,.72l.08,.86c.37-.02,.73-.12,1.06-.3,.34-.19,.63-.45,.9-.78,.33-.41,.53-.86,.61-1.34s.03-.94-.14-1.38c-.17-.44-.46-.82-.86-1.14Z" style="fill:#fff;"></path>
    <rect x="83.46" y="79.77" width=".97" height="5.22" transform="translate(-33.61 86.13) rotate(-46.29)" style="fill:#fff;"></rect>
    <polygon points="82.7 86.08 79.8 82.77 79.07 83.41 81.97 86.71 80.67 87.86 81.21 88.47 84.54 85.55 84 84.93 82.7 86.08" style="fill:#fff;"></polygon>
    <rect x="77.66" y="84.85" width=".97" height="5.22" transform="translate(-36.57 63.04) rotate(-36.2)" style="fill:#fff;"></rect>
    <polygon points="74.89 91.71 75.61 86.91 75.28 86.35 71.45 88.64 71.87 89.34 74.6 87.72 73.88 92.51 74.21 93.07 77.91 90.86 77.49 90.16 74.89 91.71" style="fill:#fff;"></polygon>
    <polygon points="67.02 90.63 67.35 91.37 70.04 90.18 70.63 91.5 68.32 92.51 68.64 93.24 70.95 92.23 71.49 93.47 68.89 94.62 69.22 95.36 72.71 93.82 70.6 89.05 67.02 90.63" style="fill:#fff;"></polygon>
    <polygon points="65.06 91.28 66.03 94.68 62.29 92.07 61.52 92.29 62.96 97.31 63.89 97.05 62.91 93.65 66.65 96.25 67.42 96.03 65.98 91.02 65.06 91.28" style="fill:#fff;"></polygon>
    <path d="M60.61,95.43c-.2-.17-.43-.29-.69-.35-.26-.06-.59-.1-1-.14-.29-.03-.52-.06-.69-.09-.17-.03-.31-.09-.44-.17-.12-.08-.19-.19-.21-.34-.03-.2,.04-.38,.21-.53,.17-.15,.45-.25,.83-.31,.31-.05,.63-.04,.95,.02,.32,.06,.6,.16,.84,.29l.22-.79c-.24-.16-.56-.26-.95-.32-.39-.06-.78-.06-1.18,0-.45,.07-.83,.19-1.12,.38s-.5,.4-.62,.66-.16,.52-.12,.81c.05,.33,.18,.59,.38,.76,.2,.17,.44,.29,.69,.35,.26,.06,.59,.11,.99,.14,.29,.03,.52,.06,.69,.09,.17,.03,.32,.08,.44,.16s.19,.19,.21,.34c.03,.21-.03,.39-.2,.55s-.44,.26-.82,.32c-.23,.03-.47,.03-.73,0-.26-.03-.51-.1-.75-.2l-.19,.79c.24,.12,.52,.19,.84,.22,.32,.03,.63,.03,.95-.02,.45-.07,.82-.19,1.12-.38,.29-.18,.5-.4,.62-.66,.12-.26,.16-.53,.12-.81-.05-.34-.18-.6-.38-.77Z" style="fill:#fff;"></path>
    <polygon points="45.71 92.7 43.67 96.24 43.16 92.2 42.15 92 39.44 96.78 40.34 96.96 42.43 93.31 42.95 97.48 43.82 97.65 45.92 94.02 46.42 98.17 47.41 98.36 46.73 92.91 45.71 92.7" style="fill:#fff;"></polygon>
    <path d="M38.08,90.96c-.31-.38-.71-.67-1.2-.87-.49-.2-.98-.28-1.46-.23-.48,.05-.91,.22-1.29,.5-.38,.28-.67,.66-.86,1.14s-.26,.94-.19,1.41,.26,.89,.57,1.27,.71,.67,1.2,.87,.98,.28,1.46,.23,.92-.22,1.3-.51c.38-.29,.67-.66,.86-1.13s.25-.94,.19-1.41-.26-.9-.56-1.27Zm-.53,2.31c-.13,.32-.33,.58-.58,.78-.25,.2-.54,.32-.86,.36-.32,.04-.64,0-.96-.14s-.58-.32-.78-.58c-.2-.25-.32-.54-.36-.86-.04-.32,0-.64,.14-.96s.33-.58,.58-.78c.25-.2,.54-.32,.86-.36,.32-.04,.64,0,.96,.14s.58,.32,.78,.58c.2,.25,.32,.54,.36,.86,.04,.32,0,.64-.14,.96Z" style="fill:#fff;"></path>
    <path d="M30.99,88.96l-1-.62c-.08-.05-.13-.08-.17-.1l-.1-1.86-.89-.55,.12,2.09c-.38-.07-.72-.04-1.03,.1-.31,.14-.57,.38-.78,.71-.2,.33-.3,.65-.29,.98,0,.33,.11,.65,.32,.95s.5,.57,.89,.81l1.83,1.13,2.75-4.44-.82-.51-.8,1.29Zm-1.52,2.45l-.96-.6c-.36-.22-.58-.47-.68-.74s-.05-.54,.13-.83c.18-.28,.4-.44,.69-.48,.28-.04,.6,.05,.96,.28l.96,.6-1.1,1.77Z" style="fill:#fff;"></path>
    <polygon points="24.5 82.29 23.97 82.92 26.06 84.68 23.23 88.05 23.98 88.67 27.33 84.67 24.5 82.29" style="fill:#fff;"></polygon>
    <path d="M21.78,79.43c-.37-.42-.78-.72-1.23-.9s-.9-.23-1.35-.15-.88,.29-1.26,.64c-.39,.34-.65,.73-.79,1.17-.14,.44-.15,.89-.02,1.36,.13,.47,.37,.91,.74,1.33l1.51,1.71,3.92-3.45-1.51-1.71Zm-2.43,3.9l-.84-.95c-.25-.29-.42-.59-.5-.9-.08-.31-.07-.62,.03-.92,.1-.3,.28-.56,.55-.8,.27-.24,.56-.39,.86-.45,.31-.06,.61-.03,.91,.09,.3,.12,.58,.32,.83,.61l.84,.95-2.68,2.37Z" style="fill:#fff;"></path>
    <path d="M15.15,72.66l-.54-1.05c-.04-.08-.07-.14-.1-.18l.87-1.65-.48-.93-.97,1.85c-.29-.25-.6-.4-.94-.44-.34-.04-.68,.03-1.03,.21-.34,.18-.59,.41-.76,.69-.17,.29-.24,.61-.22,.98,.02,.37,.14,.75,.34,1.15l.98,1.91,4.64-2.39-.44-.86-1.35,.7Zm-2.56,1.32l-.52-1.01c-.19-.38-.26-.7-.2-.98,.06-.28,.24-.49,.53-.64,.3-.15,.58-.17,.84-.06,.26,.11,.49,.35,.68,.73l.52,1.01-1.85,.95Z" style="fill:#fff;"></path>
    <polygon points="12.96 63.41 12.19 63.67 13.13 66.46 11.77 66.92 10.96 64.53 10.2 64.79 11.01 67.17 9.73 67.61 8.82 64.92 8.05 65.18 9.27 68.79 14.21 67.11 12.96 63.41" style="fill:#fff;"></polygon>
    <path d="M12.43,61.24l-1.28-.3-.45-2.57,1.1-.72-.18-1-4.73,3.23,.17,.94,5.55,1.41-.17-.98Zm-4.5-1.05l2.08-1.37,.34,1.93-2.42-.57Z" style="fill:#fff;"></path>
    <path d="M11.49,52.85c-.01-.56-.13-1.05-.35-1.48-.22-.43-.53-.76-.93-.99-.4-.23-.86-.34-1.37-.34-.52,0-.97,.13-1.36,.38-.39,.24-.69,.59-.9,1.02-.21,.44-.31,.93-.3,1.49l.04,2.28,5.22-.08-.04-2.28Zm-4.38,1.38l-.02-1.27c0-.38,.06-.72,.2-1.01,.14-.29,.35-.52,.61-.68,.27-.16,.58-.24,.94-.25s.67,.07,.95,.22,.49,.37,.64,.66,.23,.62,.24,1.01l.02,1.27-3.58,.06Z" style="fill:#fff;"></path>
    <polygon points="11.81 47.08 11.94 46.12 10.11 45.87 7.05 43.38 6.92 44.33 9.22 46.2 6.5 47.37 6.35 48.4 10 46.83 11.81 47.08" style="fill:#fff;"></polygon>
    <path d="M10.35,40.08c.2,.13,.4,.17,.62,.12,.21-.05,.38-.16,.5-.35,.12-.18,.16-.38,.12-.6-.04-.22-.16-.39-.36-.52-.19-.13-.4-.16-.61-.11-.22,.05-.38,.17-.5,.35-.12,.18-.16,.38-.12,.6,.04,.22,.16,.39,.35,.51Z" style="fill:#fff;"></path>
    <path d="M12.19,35.41c.46,.22,.93,.32,1.4,.28s.9-.2,1.3-.48c.39-.28,.71-.66,.94-1.13,.19-.38,.29-.77,.31-1.15,.02-.38-.04-.75-.19-1.09l-.81,.3c.21,.52,.19,1.03-.05,1.53-.16,.32-.37,.58-.63,.76s-.56,.29-.88,.31c-.32,.02-.64-.05-.96-.2-.32-.15-.57-.36-.75-.63-.18-.27-.28-.56-.3-.88-.02-.32,.05-.65,.21-.97,.24-.5,.63-.83,1.16-.99l-.26-.82c-.36,.1-.69,.27-.97,.52-.29,.25-.53,.57-.71,.96-.23,.47-.33,.95-.31,1.44,.02,.48,.16,.92,.42,1.32,.26,.4,.62,.71,1.08,.93Z" style="fill:#fff;"></path>
    <path d="M14.61,30.47c.42,.28,.87,.43,1.35,.46,.48,.03,.93-.08,1.36-.3,.43-.23,.79-.56,1.09-1.01,.29-.44,.46-.91,.51-1.39,.05-.48-.03-.94-.24-1.37s-.52-.79-.95-1.07c-.43-.28-.88-.44-1.35-.46-.47-.02-.93,.08-1.36,.31-.43,.23-.79,.56-1.09,1.01-.3,.44-.47,.91-.51,1.39-.04,.48,.04,.94,.24,1.37,.21,.43,.52,.79,.94,1.07Zm.03-3.36c.19-.29,.43-.51,.72-.65,.29-.14,.59-.21,.91-.18s.63,.13,.92,.32c.29,.19,.51,.43,.65,.72,.15,.29,.21,.59,.18,.91-.02,.32-.13,.62-.33,.91-.19,.29-.43,.51-.72,.65-.29,.14-.59,.21-.91,.18-.32-.02-.63-.13-.92-.32-.29-.19-.51-.43-.65-.72-.15-.29-.21-.59-.18-.91,.02-.32,.13-.62,.33-.91Z" style="fill:#fff;"></path>
    <path d="M20.4,25.86c.57-.03,1.1-.31,1.58-.85,.48-.54,.7-1.09,.67-1.66-.03-.57-.33-1.1-.9-1.61l-2.2-1.97-.64,.71,2.17,1.94c.76,.68,.85,1.35,.27,2.01-.59,.66-1.27,.65-2.03-.04l-2.17-1.94-.65,.72,2.2,1.97c.56,.5,1.13,.74,1.7,.71Z" style="fill:#fff;"></path>
    <path d="M25.07,21.79l-.99-1.16,.9-.76c.07-.06,.12-.1,.15-.14l1.8,.47,.79-.68-2.03-.53c.18-.34,.25-.68,.22-1.02-.04-.34-.18-.66-.44-.96-.25-.29-.53-.48-.85-.58-.32-.1-.65-.09-1,.01-.35,.1-.7,.3-1.04,.6l-1.63,1.39,3.39,3.97,.74-.63Zm-2.86-3.35l.86-.74c.32-.27,.62-.41,.91-.42s.53,.12,.75,.37c.22,.25,.3,.52,.25,.8-.05,.28-.23,.56-.55,.83l-.86,.74-1.35-1.58Z" style="fill:#fff;"></path>
    <path d="M28.63,18.9l-.23-1.29,2.19-1.42,1.1,.73,.85-.55-4.82-3.09-.8,.52,.87,5.66,.84-.54Zm1.28-3.18l-1.64,1.07-.42-2.45,2.07,1.38Z" style="fill:#fff;"></path>
    <path d="M32.38,15.08c.4,.26,.84,.41,1.32,.43,.49,.03,.97-.08,1.45-.3,.34-.16,.65-.37,.92-.63,.27-.26,.49-.54,.64-.85l-.89-1.88-.83,.39,.7,1.47c-.2,.29-.49,.53-.85,.7-.33,.16-.66,.22-.98,.2-.33-.02-.62-.12-.89-.3s-.47-.43-.62-.74c-.15-.32-.22-.65-.19-.97,.03-.32,.14-.61,.33-.87s.45-.47,.79-.63c.51-.24,1.03-.27,1.56-.08l.3-.8c-.34-.15-.7-.21-1.09-.18-.38,.02-.77,.13-1.17,.32-.49,.23-.87,.54-1.16,.94-.29,.39-.46,.83-.5,1.3s.04,.94,.26,1.4,.53,.83,.92,1.09Z" style="fill:#fff;"></path>
    <polygon points="41.74 12.67 41.49 11.9 38.68 12.81 38.24 11.44 40.63 10.66 40.39 9.9 37.99 10.68 37.57 9.39 40.27 8.51 40.02 7.74 36.4 8.92 38.02 13.88 41.74 12.67" style="fill:#fff;"></polygon>
    <path d="M42.37,11.22c.31,.36,.7,.61,1.16,.76,.46,.15,.96,.18,1.48,.08,.52-.1,.97-.3,1.35-.6,.38-.31,.65-.68,.82-1.12s.2-.92,.11-1.42c-.09-.5-.29-.93-.61-1.29-.31-.36-.7-.61-1.16-.76-.46-.15-.96-.18-1.48-.08s-.97,.3-1.35,.6-.65,.68-.82,1.13c-.16,.45-.2,.92-.11,1.42,.09,.5,.29,.93,.61,1.29Zm.42-2.43c.11-.3,.28-.56,.53-.76,.25-.2,.54-.34,.88-.4s.67-.04,.97,.06c.3,.1,.56,.28,.76,.53,.21,.25,.34,.54,.41,.88,.06,.34,.04,.67-.07,.97-.1,.31-.28,.56-.53,.76-.24,.2-.54,.34-.88,.4-.34,.06-.66,.04-.97-.06-.3-.1-.56-.28-.76-.53-.21-.25-.34-.54-.4-.88-.06-.34-.04-.67,.06-.97Z" style="fill:#fff;"></path>
    <path d="M51.95,6.08l.11,2.91c.04,1.02-.38,1.55-1.26,1.59-.88,.03-1.35-.46-1.39-1.48l-.11-2.91-.97,.04,.12,2.94c.03,.76,.25,1.33,.67,1.72,.42,.39,.99,.57,1.71,.54,.72-.03,1.27-.25,1.66-.67,.38-.42,.56-1.01,.53-1.76l-.12-2.94-.95,.04Z" style="fill:#fff;"></path>
    <path d="M57.89,10.93c.18-.22,.28-.47,.3-.76,.03-.34-.04-.61-.2-.83s-.36-.38-.6-.5c-.24-.12-.55-.24-.93-.36-.28-.09-.49-.17-.65-.24s-.29-.15-.39-.26c-.1-.1-.14-.23-.13-.38,.02-.21,.13-.38,.32-.49,.2-.11,.49-.15,.87-.12,.23,.02,.47,.08,.71,.17s.47,.21,.69,.37l.37-.72c-.21-.17-.46-.3-.76-.41-.3-.11-.61-.17-.93-.2-.46-.04-.85,0-1.17,.11-.33,.11-.58,.28-.75,.5-.18,.22-.28,.48-.3,.76-.03,.34,.03,.62,.19,.84,.16,.22,.36,.38,.59,.5s.55,.24,.94,.36c.28,.09,.49,.17,.65,.24s.29,.16,.39,.26c.1,.11,.14,.23,.13,.38-.02,.2-.13,.36-.33,.47-.2,.11-.5,.14-.88,.11-.31-.03-.62-.11-.92-.24-.3-.13-.55-.29-.75-.48l-.4,.72c.2,.21,.49,.38,.85,.53,.36,.15,.75,.24,1.15,.27,.46,.04,.85,0,1.18-.11s.58-.28,.76-.5Z" style="fill:#fff;"></path>
    <polygon points="64.89 12.32 62.25 11.65 63.34 7.38 62.4 7.14 61.11 12.2 64.69 13.12 64.89 12.32" style="fill:#fff;"></polygon>
    <polygon points="69.27 13.97 66.51 12.92 67.02 11.57 69.38 12.47 69.66 11.72 67.31 10.83 67.79 9.56 70.45 10.57 70.73 9.81 67.17 8.46 65.32 13.33 68.98 14.73 69.27 13.97" style="fill:#fff;"></polygon>
    <path d="M70.08,15.25l1.02-.82,2.3,1.23-.11,1.31,.89,.48,.38-5.72-.84-.45-4.53,3.5,.88,.47Zm3.61-2.89l-.21,2.48-1.73-.92,1.94-1.55Z" style="fill:#fff;"></path>
    <path d="M76.25,17.07l.96,.69c.07,.05,.13,.09,.17,.11l-.02,1.86,.85,.61,.02-2.09c.37,.09,.72,.08,1.04-.04s.59-.34,.82-.66c.22-.31,.34-.63,.36-.96,.02-.33-.07-.65-.25-.97-.19-.32-.46-.61-.83-.87l-1.75-1.25-3.03,4.25,.79,.56,.88-1.24Zm1.67-2.34l.92,.66c.34,.25,.55,.5,.63,.78,.07,.27,.01,.54-.18,.82-.19,.27-.43,.42-.72,.44s-.6-.09-.94-.34l-.92-.66,1.21-1.69Z" style="fill:#fff;"></path>
    <polygon points="79.54 21.52 81.96 18.95 81.63 23.5 82.21 24.05 85.79 20.25 85.09 19.59 82.67 22.16 83 17.61 82.42 17.06 78.84 20.86 79.54 21.52" style="fill:#fff;"></polygon>
    <polygon points="85.51 28 86.14 27.49 84.28 25.21 85.39 24.3 86.99 26.25 87.6 25.74 86.01 23.79 87.06 22.93 88.86 25.13 89.49 24.62 87.07 21.67 83.03 24.97 85.51 28" style="fill:#fff;"></polygon>
    <path d="M86.59,29.62l1.29-.81,.63,1c.05,.08,.09,.13,.11,.17l-.73,1.72,.55,.88,.81-1.93c.31,.23,.63,.35,.97,.36,.34,.01,.68-.09,1.01-.3,.32-.2,.56-.46,.7-.76,.14-.3,.18-.63,.13-.99-.05-.36-.2-.74-.44-1.12l-1.14-1.82-4.42,2.78,.52,.82Zm3.73-2.34l.6,.96c.22,.36,.32,.68,.28,.96s-.19,.51-.47,.69c-.28,.18-.56,.22-.83,.13-.27-.09-.52-.31-.74-.67l-.6-.96,1.76-1.11Z" style="fill:#fff;"></path>
    <path d="M91.44,32.07c-.11,.25-.15,.5-.13,.76,.02,.26,.07,.59,.15,.99,.06,.29,.1,.52,.12,.69,.02,.17,0,.33-.03,.46-.04,.14-.13,.24-.27,.3-.18,.09-.37,.07-.57-.05-.19-.12-.37-.36-.54-.71-.13-.28-.22-.59-.25-.91-.03-.33-.02-.62,.04-.89l-.82,.02c-.08,.28-.09,.61-.03,1,.06,.39,.17,.76,.34,1.13,.19,.41,.42,.73,.68,.96,.26,.23,.53,.36,.81,.41s.55,0,.81-.12c.31-.14,.51-.34,.62-.58,.1-.24,.15-.5,.13-.77-.02-.27-.07-.59-.15-.98-.06-.29-.1-.51-.12-.69s-.01-.33,.03-.46c.04-.14,.13-.24,.26-.3,.19-.09,.39-.08,.58,.03,.2,.11,.38,.34,.54,.69,.1,.21,.17,.44,.21,.7,.04,.25,.05,.51,.03,.78l.81-.04c.04-.27,.03-.56-.03-.87-.06-.31-.16-.61-.29-.9-.2-.41-.42-.73-.68-.96s-.53-.36-.81-.4c-.28-.04-.55,0-.81,.12-.31,.15-.52,.34-.63,.59Z" style="fill:#fff;"></path>
    <path d="M93.63,38.95c-.18,.15-.28,.33-.3,.55-.02,.22,.04,.41,.19,.58,.14,.17,.32,.26,.54,.29,.22,.02,.42-.04,.6-.19,.17-.15,.27-.33,.29-.55,.02-.22-.05-.42-.19-.58-.14-.17-.32-.26-.54-.28-.22-.02-.42,.04-.59,.19Z" style="fill:#fff;"></path>
    <path d="M52.2,95.36c-.22,0-.41,.08-.56,.23-.16,.15-.23,.35-.23,.57s.08,.43,.23,.58c.16,.15,.34,.23,.56,.23s.41-.08,.57-.23c.16-.15,.24-.35,.24-.58s-.08-.42-.24-.57c-.16-.15-.35-.23-.57-.23Z" style="fill:#fff;"></path>
  </g>
</svg>
