<?xml version="1.0" encoding="UTF-8"?>
<svg xmlns="http://www.w3.org/2000/svg" width="99px" height="100px" viewBox="0 0 72 73" fill="none">
  <g clip-path="url(#clip0_434_133)">
    <path fill-rule="evenodd" clip-rule="evenodd" d="M61.2799 25.77C61.2799 11.72 49.9199 0.329956 35.8999 0.329956C21.8899 0.329956 10.5199 11.72 10.5199 25.76V25.77H-0.100098V72.63H71.8999V25.77H61.2799Z" fill="#E9AA24"></path>
    <path d="M8.43994 44.98C8.99994 44.98 9.56994 44.99 10.2999 45.01C10.3799 44.95 10.3799 44.7 10.2999 44.63L9.86994 44.58C9.33994 44.52 9.26994 44.43 9.26994 43.43V41.98C9.26994 41.69 9.27994 41.66 9.59994 41.66H10.4999C11.1199 41.66 11.2499 41.75 11.3599 42.26L11.4199 42.52C11.4999 42.62 11.7899 42.61 11.8599 42.51C11.8399 42.19 11.8299 41.79 11.8299 41.39C11.8299 40.98 11.8399 40.58 11.8599 40.24C11.7899 40.14 11.4999 40.13 11.4199 40.23L11.3599 40.49C11.2399 41.02 11.1199 41.09 10.4999 41.09H9.59994C9.27994 41.09 9.26994 41.06 9.26994 40.77V38.83C9.26994 38.41 9.26994 38.39 9.64994 38.39H10.5599C11.1599 38.39 11.5099 38.52 11.6999 38.74C11.8199 38.88 11.9099 39.14 12.0399 39.58C12.1799 39.67 12.4399 39.66 12.4799 39.54C12.4599 38.82 12.4599 38.05 12.4599 37.86C12.2999 37.88 11.6299 37.89 10.8799 37.89H8.42994C7.86994 37.89 7.28994 37.88 6.77994 37.86C6.64994 37.9 6.64994 38.17 6.75994 38.24L6.98994 38.27C7.51994 38.35 7.58994 38.44 7.58994 39.44V43.44C7.58994 44.44 7.51994 44.51 6.98994 44.59L6.59994 44.64C6.50994 44.7 6.50994 44.95 6.59994 45.02C7.31994 44.99 7.90994 44.98 8.43994 44.98ZM18.6199 44.64L18.2999 44.59C17.7699 44.5 17.6999 44.43 17.6999 43.44V42.12C17.6999 41.91 17.7199 41.88 18.1299 41.88C18.4199 41.88 18.6099 41.97 18.7499 42.26C19.0199 42.83 19.2899 43.36 19.6599 43.93C20.1699 44.7 20.8499 45.06 21.9199 45.06C22.2799 45.06 22.6599 45.04 22.8399 44.96C22.8999 44.9 22.8999 44.73 22.7899 44.68C22.6199 44.67 22.3099 44.6 22.0099 44.38C21.4499 43.94 20.9699 43.13 20.1999 41.69C20.1399 41.57 20.1399 41.51 20.2599 41.45C20.7999 41.2 21.4999 40.79 21.4999 39.84C21.4999 39.15 21.1499 38.62 20.4699 38.25C20.0299 38 19.1699 37.86 18.1799 37.86C17.0699 37.86 16.1599 37.9 15.2899 37.96C15.1499 38.01 15.1499 38.28 15.2699 38.34L15.5899 38.38C16.0799 38.44 16.0999 38.56 16.0999 39.64V43.44C16.0999 44.43 16.0299 44.5 15.4999 44.59L15.1799 44.64C15.0899 44.69 15.0899 44.95 15.1799 45.02C15.7899 45 16.2999 44.99 16.8799 44.99C17.4399 44.99 17.9799 45 18.5999 45.02C18.6999 44.95 18.6999 44.69 18.6199 44.64ZM17.7099 38.9C17.7099 38.38 17.7299 38.35 18.2099 38.35C19.1199 38.35 19.7399 38.97 19.7399 39.94C19.7399 40.57 19.5199 40.92 19.3199 41.1C19.0999 41.3 18.8499 41.4 18.4299 41.4C17.7399 41.4 17.7099 41.37 17.7099 40.99V38.9ZM24.9799 44.58L24.6499 44.63C24.5599 44.69 24.5599 44.94 24.6499 45.01C25.2799 44.99 25.8599 44.98 26.4199 44.98C26.9699 44.98 27.5399 44.99 28.1699 45.01C28.2599 44.95 28.2699 44.7 28.1799 44.63L27.8499 44.58C27.3099 44.49 27.2399 44.42 27.2399 43.41V39.46C27.2399 38.45 27.3099 38.37 27.8499 38.29L28.1799 38.24C28.2699 38.18 28.2699 37.93 28.1799 37.86C27.5499 37.88 26.9699 37.89 26.4199 37.89C25.8599 37.89 25.2799 37.88 24.6499 37.86C24.5599 37.92 24.5599 38.17 24.6499 38.24L24.9799 38.29C25.5199 38.38 25.5899 38.45 25.5899 39.46V43.41C25.5899 44.42 25.5199 44.5 24.9799 44.58ZM32.4899 44.98H34.0099C34.9699 44.98 36.0899 44.99 36.7099 45.01C36.8699 44.72 37.1499 43.85 37.1999 43.29C37.1499 43.16 36.8599 43.12 36.7699 43.24C36.1299 44.45 35.7299 44.49 34.7199 44.49C33.8699 44.49 33.6499 44.4 33.4899 44.21C33.3499 44.03 33.2999 43.68 33.2999 43.19V41.91C33.2999 41.59 33.3099 41.58 33.6299 41.58H34.4399C35.0499 41.58 35.1899 41.67 35.2999 42.18L35.3599 42.45C35.4399 42.55 35.7299 42.54 35.7899 42.44C35.7699 42.1 35.7499 41.71 35.7499 41.3C35.7499 40.89 35.7599 40.5 35.7899 40.16C35.7299 40.06 35.4399 40.06 35.3599 40.15L35.2999 40.42C35.1799 40.94 35.0399 41.01 34.4399 41.01H33.6299C33.3099 41.01 33.2999 40.99 33.2999 40.69V38.8C33.2999 38.4 33.2999 38.38 33.6899 38.38H34.6199C35.1899 38.38 35.5399 38.51 35.7599 38.71C35.9099 38.86 36.0799 39.18 36.1999 39.56C36.3199 39.66 36.5899 39.64 36.6299 39.52C36.5699 38.8 36.4899 38.03 36.4799 37.85C36.3299 37.87 35.6599 37.88 34.9199 37.88H32.4499C31.8899 37.88 31.3199 37.87 30.7699 37.85C30.6499 37.91 30.6399 38.16 30.7499 38.23L31.0399 38.28C31.5599 38.38 31.6299 38.44 31.6299 39.42V43.43C31.6299 44.42 31.5599 44.48 31.0399 44.56L30.4899 44.64C30.3999 44.69 30.3999 44.95 30.4899 45.02C31.3599 44.99 31.9299 44.98 32.4899 44.98ZM39.4299 38.28C39.8399 38.33 39.9999 38.46 40.0999 38.65C40.1699 38.8 40.1799 38.97 40.1799 39.56V42.29C40.1799 43.16 40.1499 43.97 40.0199 44.26C39.9299 44.49 39.6899 44.56 39.3799 44.61L39.1799 44.64C39.0899 44.73 39.1099 44.95 39.1799 45.02C39.6199 45 40.0599 44.99 40.4899 44.99C40.9599 44.99 41.4199 45 42.0499 45.02C42.1199 44.96 42.1399 44.73 42.0499 44.64L41.7199 44.6C41.4199 44.56 41.1499 44.48 41.0399 44.26C40.9099 43.97 40.8699 43.16 40.8699 42.29V40.2C40.8699 39.8 40.8699 39.62 40.9299 39.51C41.1399 39.67 41.5299 40.12 42.1999 40.89L44.8999 43.96C45.4499 44.58 45.8299 45.13 45.8499 45.13C46.1299 45.13 46.4599 45.01 46.5399 44.88C46.5199 44.53 46.5199 43.85 46.5199 43.15V40.58C46.5199 39.71 46.5699 38.9 46.6899 38.61C46.7899 38.38 47.0199 38.3 47.3199 38.26L47.5299 38.23C47.6199 38.14 47.5999 37.92 47.5299 37.85C47.0699 37.87 46.6499 37.88 46.2199 37.88C45.7399 37.88 45.2899 37.87 44.6599 37.85C44.5899 37.91 44.5699 38.14 44.6599 38.23L44.9799 38.27C45.2999 38.31 45.5499 38.39 45.6599 38.61C45.7899 38.9 45.8399 39.71 45.8399 40.58V42.06C45.8399 42.25 45.8399 42.44 45.7899 42.54C45.5199 42.29 45.1799 41.92 44.6699 41.36L43.6899 40.3C42.6399 39.15 41.8799 38.33 41.7599 37.85C41.5199 37.87 41.1799 37.88 40.7799 37.88C40.2999 37.88 39.7199 37.87 39.1699 37.85C39.0499 37.88 39.0399 38.14 39.1199 38.23L39.4299 38.28ZM51.2899 44.98C51.7099 44.98 52.2899 45.04 52.8399 45.04C54.0399 45.04 54.9999 44.9 55.7899 44.53C57.1299 43.92 57.8799 42.76 57.8799 41.32C57.8799 39.98 57.0399 38.71 55.5099 38.2C54.6999 37.93 53.7499 37.85 52.7899 37.85C51.5499 37.85 50.6399 37.89 49.6599 37.95C49.5199 37.96 49.5199 38.27 49.6399 38.33L49.8599 38.35C50.3999 38.4 50.4199 38.61 50.4199 39.63V43.43C50.4199 44.42 50.3499 44.5 49.8199 44.58L49.4599 44.63C49.3699 44.68 49.3699 44.94 49.4599 45.01C50.1299 44.99 50.7299 44.98 51.2899 44.98ZM52.0899 39.11C52.0899 38.78 52.0999 38.57 52.1699 38.49C52.2399 38.4 52.4599 38.35 52.7799 38.35C54.8899 38.35 55.9999 39.5 55.9999 41.43C55.9999 42.89 55.3099 44.55 53.2899 44.55C52.8699 44.55 52.5299 44.45 52.3199 44.24C52.1099 44.01 52.0899 43.63 52.0899 43.04V39.11ZM62.1999 45.15C63.9599 45.15 65.1399 44.29 65.1399 42.97C65.1399 41.79 64.2199 41.16 63.4899 40.81L62.7199 40.43C62.1399 40.15 61.6599 39.7 61.6599 39.21C61.6599 38.67 62.0799 38.21 62.8499 38.21C63.6899 38.21 64.1899 38.99 64.3899 39.54C64.4899 39.65 64.7899 39.64 64.8499 39.51C64.8499 38.79 64.7299 38.21 64.6399 37.97C64.4999 37.95 64.3899 37.93 64.2399 37.88C63.7699 37.75 63.2899 37.71 62.9099 37.71C61.2199 37.71 60.1899 38.55 60.1999 39.76C60.1999 40.82 61.1199 41.47 61.9599 41.86C62.6599 42.18 63.5499 42.7 63.5499 43.57C63.5499 44.11 63.1499 44.66 62.2899 44.66C61.2999 44.66 60.5199 43.67 60.2799 42.97C60.1899 42.85 59.9199 42.86 59.8399 43C59.8399 43.73 59.9899 44.5 60.2099 44.74C60.4599 44.87 61.1299 45.15 62.1999 45.15ZM13.7199 51.4V52.63L13.7399 55.42C13.7399 56.08 13.7399 56.2 13.1999 56.27L12.8499 56.31C12.7299 56.39 12.7499 56.63 12.8899 56.69C13.4499 56.67 14.0899 56.66 14.6199 56.66C15.1899 56.66 15.6899 56.67 16.2299 56.69C16.3499 56.65 16.3499 56.4 16.2499 56.31L15.8799 56.27C15.4299 56.22 15.3799 55.96 15.3499 55.46C15.2799 54.11 15.2599 52.95 15.2599 50.73C15.2599 50.16 15.4899 50.03 15.9699 49.96L16.3099 49.91C16.3999 49.8 16.3999 49.6 16.2799 49.53C15.8599 49.55 15.3199 49.56 14.9399 49.56C14.5899 49.56 14.3199 49.57 13.7799 49.53C13.5199 50.45 13.2299 51.02 12.6699 52.13L12.0799 53.31C11.7599 53.94 11.5799 54.28 11.4299 54.53C11.2699 54.26 10.8499 53.58 10.7399 53.37L9.96994 51.85C9.45994 50.84 9.04994 50.18 9.04994 49.52C8.62994 49.55 8.28994 49.55 7.90994 49.55C7.33994 49.55 6.83994 49.54 6.43994 49.52C6.30994 49.55 6.30994 49.81 6.40994 49.9L6.66994 49.94C7.13994 50.02 7.38994 50.18 7.38994 50.79C7.38994 51.37 7.36994 52.24 7.31994 52.96C7.24994 53.98 7.21994 54.92 7.15994 55.44C7.08994 56.11 7.01994 56.17 6.41994 56.27L6.20994 56.3C6.09994 56.35 6.09994 56.63 6.25994 56.68C6.72994 56.66 7.16994 56.65 7.53994 56.65C7.97994 56.65 8.48994 56.66 8.91994 56.68C9.00994 56.63 9.03994 56.38 8.93994 56.3L8.47994 56.24C8.00994 56.18 7.93994 56.03 7.93994 55.49C7.93994 54.85 7.94994 53.77 7.95994 53.07C7.96994 52.51 7.97994 52.04 8.02994 51.34H8.04994C8.69994 52.74 10.1399 55.4 10.5899 56.73C10.6599 56.77 10.7899 56.79 10.8899 56.79C10.9799 56.79 11.0699 56.76 11.1199 56.71C11.8899 54.89 12.8199 53.1 13.6899 51.38H13.7199V51.4ZM21.5999 56.65C22.5599 56.65 23.6799 56.66 24.2999 56.68C24.4599 56.39 24.7399 55.52 24.7899 54.96C24.7399 54.83 24.4499 54.79 24.3599 54.91C23.7199 56.12 23.3199 56.16 22.3099 56.16C21.4599 56.16 21.2399 56.07 21.0799 55.88C20.9399 55.7 20.8899 55.35 20.8899 54.86V53.58C20.8899 53.26 20.8999 53.25 21.2199 53.25H22.0299C22.6399 53.25 22.7799 53.34 22.8899 53.85L22.9499 54.12C23.0299 54.22 23.3199 54.21 23.3799 54.11C23.3599 53.77 23.3499 53.38 23.3499 52.97C23.3499 52.56 23.3599 52.17 23.3799 51.83C23.3199 51.73 23.0299 51.73 22.9499 51.82L22.8899 52.09C22.7699 52.61 22.6299 52.68 22.0299 52.68H21.2199C20.8999 52.68 20.8899 52.66 20.8899 52.36V50.48C20.8899 50.08 20.8899 50.06 21.2799 50.06H22.2099C22.7799 50.06 23.1299 50.19 23.3499 50.39C23.4999 50.54 23.6699 50.86 23.7899 51.24C23.9099 51.34 24.1799 51.32 24.2199 51.2C24.1599 50.48 24.0799 49.71 24.0699 49.53C23.9199 49.55 23.2499 49.56 22.5099 49.56H20.0399C19.4799 49.56 18.9099 49.55 18.3599 49.53C18.2399 49.59 18.2299 49.84 18.3399 49.91L18.6299 49.96C19.1599 50.06 19.2299 50.12 19.2299 51.1V55.11C19.2299 56.1 19.1599 56.16 18.6299 56.24L18.0799 56.32C17.9899 56.37 17.9899 56.63 18.0799 56.7C18.9599 56.68 19.5299 56.67 20.0899 56.67H21.5999V56.65ZM30.0099 56.65C30.9699 56.65 32.0899 56.66 32.7099 56.68C32.8699 56.39 33.1499 55.52 33.1999 54.96C33.1499 54.83 32.8599 54.79 32.7699 54.91C32.1299 56.12 31.7299 56.16 30.7199 56.16C29.8699 56.16 29.6499 56.07 29.4899 55.88C29.3499 55.7 29.2999 55.35 29.2999 54.86V53.58C29.2999 53.26 29.3099 53.25 29.6299 53.25H30.4399C31.0499 53.25 31.1899 53.34 31.2999 53.85L31.3599 54.12C31.4399 54.22 31.7299 54.21 31.7899 54.11C31.7699 53.77 31.7599 53.38 31.7599 52.97C31.7599 52.56 31.7699 52.17 31.7899 51.83C31.7299 51.73 31.4399 51.73 31.3599 51.82L31.2999 52.09C31.1799 52.61 31.0399 52.68 30.4399 52.68H29.6299C29.3099 52.68 29.2999 52.66 29.2999 52.36V50.48C29.2999 50.08 29.2999 50.06 29.6899 50.06H30.6199C31.1899 50.06 31.5399 50.19 31.7599 50.39C31.9099 50.54 32.0799 50.86 32.1999 51.24C32.3199 51.34 32.5899 51.32 32.6299 51.2C32.5699 50.48 32.4899 49.71 32.4799 49.53C32.3299 49.55 31.6599 49.56 30.9199 49.56H28.4499C27.8899 49.56 27.3199 49.55 26.7699 49.53C26.6499 49.59 26.6399 49.84 26.7499 49.91L27.0399 49.96C27.5699 50.06 27.6399 50.12 27.6399 51.1V55.11C27.6399 56.1 27.5699 56.16 27.0399 56.24L26.4899 56.32C26.3999 56.37 26.3999 56.63 26.4899 56.7C27.3699 56.68 27.9399 56.67 28.4999 56.67H30.0099V56.65ZM39.8399 56.69C39.9199 56.63 39.9199 56.38 39.8399 56.31L39.3699 56.26C38.8399 56.2 38.7799 56.11 38.7799 55.11V50.37C38.7799 50.09 38.8099 50.06 39.0999 50.06H39.7999C40.6799 50.06 40.8399 50.57 41.0399 51.25C41.0999 51.34 41.4099 51.31 41.4699 51.22C41.4499 50.61 41.5299 49.74 41.6399 49.37C41.6199 49.34 41.5399 49.29 41.4699 49.29C41.3999 49.29 41.3599 49.3 41.3199 49.32C41.2199 49.55 41.0399 49.56 40.2699 49.56H35.9299C35.0399 49.56 35.0099 49.52 34.9499 49.33C34.8999 49.3 34.8499 49.29 34.7899 49.29C34.7299 49.29 34.6699 49.31 34.6299 49.34C34.5499 49.76 34.4899 50.43 34.2399 51.17C34.3099 51.31 34.5299 51.33 34.6699 51.27C35.0199 50.49 35.2699 50.06 36.1199 50.06H36.8399C37.1199 50.06 37.1199 50.11 37.1199 50.37V55.11C37.1199 56.11 37.0499 56.21 36.5199 56.26L35.9899 56.31C35.8999 56.37 35.8999 56.62 35.9899 56.69C36.8099 56.67 37.4099 56.66 37.9699 56.66C38.4899 56.65 39.0799 56.66 39.8399 56.69ZM46.6499 56.31L46.3199 56.26C45.7799 56.17 45.7099 56.1 45.7099 55.09V51.14C45.7099 50.13 45.7799 50.05 46.3199 49.97L46.6499 49.92C46.7399 49.86 46.7399 49.61 46.6499 49.54C46.0199 49.56 45.4399 49.57 44.8899 49.57C44.3299 49.57 43.7499 49.56 43.1199 49.54C43.0299 49.6 43.0299 49.85 43.1199 49.92L43.4499 49.97C43.9899 50.06 44.0599 50.13 44.0599 51.14V55.09C44.0599 56.1 43.9899 56.18 43.4499 56.26L43.1199 56.31C43.0299 56.37 43.0299 56.62 43.1199 56.69C43.7499 56.67 44.3299 56.66 44.8899 56.66C45.4399 56.66 46.0099 56.67 46.6399 56.69C46.7299 56.62 46.7399 56.37 46.6499 56.31ZM55.6799 56.56C55.6599 56.21 55.6599 55.53 55.6599 54.83V52.26C55.6599 51.39 55.7099 50.58 55.8299 50.29C55.9299 50.06 56.1599 49.98 56.4599 49.94L56.6699 49.91C56.7599 49.82 56.7399 49.6 56.6699 49.53C56.2099 49.55 55.7899 49.56 55.3599 49.56C54.8799 49.56 54.4299 49.55 53.7999 49.53C53.7299 49.59 53.7099 49.82 53.7999 49.91L54.1199 49.95C54.4399 49.99 54.6899 50.07 54.7999 50.29C54.9299 50.58 54.9699 51.39 54.9699 52.26V53.74C54.9699 53.93 54.9699 54.12 54.9199 54.22C54.6499 53.97 54.3099 53.6 53.7999 53.04L52.8199 51.98C51.7699 50.83 51.0099 50.01 50.8899 49.53C50.6399 49.55 50.3099 49.56 49.9099 49.56C49.4299 49.56 48.8499 49.55 48.2999 49.53C48.1799 49.56 48.1699 49.82 48.2499 49.91L48.5799 49.95C48.9899 50 49.1499 50.13 49.2499 50.32C49.3199 50.47 49.3299 50.64 49.3299 51.23V53.96C49.3299 54.83 49.2999 55.64 49.1699 55.93C49.0799 56.16 48.8399 56.23 48.5299 56.28L48.3299 56.31C48.2399 56.4 48.2599 56.62 48.3299 56.69C48.7699 56.67 49.2099 56.66 49.6399 56.66C50.1099 56.66 50.5699 56.67 51.1999 56.69C51.2699 56.63 51.2899 56.4 51.1999 56.31L50.8699 56.27C50.5699 56.23 50.2999 56.15 50.1899 55.93C50.0599 55.64 50.0199 54.83 50.0199 53.96V51.88C50.0199 51.48 50.0199 51.3 50.0799 51.19C50.2899 51.35 50.6799 51.8 51.3499 52.57L54.0499 55.64C54.5999 56.26 54.9799 56.81 54.9999 56.81C55.2699 56.8 55.5899 56.69 55.6799 56.56ZM65.6199 53.68C65.2199 53.7 64.6499 53.71 64.0899 53.71C63.5199 53.71 62.9499 53.7 62.1199 53.68C61.9899 53.74 61.9899 53.99 62.1199 54.06L62.6299 54.12C63.1899 54.2 63.2599 54.26 63.2599 54.84V55.52C63.2599 56.22 63.1199 56.34 62.4499 56.34C62.0199 56.34 61.4099 56.28 60.8499 55.93C60.0899 55.46 59.5199 54.54 59.5199 53.01C59.5199 51.31 60.4199 49.89 62.2699 49.89C63.3599 49.89 64.0899 50.4 64.4599 51.41C64.5399 51.52 64.8599 51.51 64.8999 51.39C64.7799 50.73 64.7699 49.98 64.7399 49.66C64.3699 49.66 63.7199 49.4 62.4299 49.4C61.4399 49.4 60.4899 49.57 59.6999 49.97C58.2999 50.69 57.6499 51.87 57.6499 53.22C57.6499 54.77 58.5799 55.96 59.9499 56.47C60.7799 56.77 61.4599 56.85 62.2499 56.85C62.8999 56.85 63.9099 56.71 64.3199 56.59C64.6399 56.49 64.9399 56.46 65.1399 56.43C65.2099 56.4 65.2199 56.22 65.1799 56.17C64.9599 56.13 64.9299 55.91 64.9299 55.46V54.86C64.9299 54.28 64.9999 54.17 65.3499 54.12L65.6199 54.08C65.7099 53.99 65.7099 53.74 65.6199 53.68ZM9.21994 63.62C9.10994 63.52 8.98994 63.37 8.87994 63.18C8.76994 62.99 8.62994 62.73 8.47994 62.4H8.35994C8.20994 62.73 8.07994 62.99 7.95994 63.18C7.83994 63.37 7.72994 63.52 7.61994 63.62C7.50994 63.72 7.34994 63.83 7.13994 63.94C6.92994 64.05 6.64994 64.17 6.29994 64.3V64.41C6.64994 64.54 6.92994 64.66 7.13994 64.77C7.34994 64.88 7.50994 64.98 7.61994 65.09C7.72994 65.19 7.84994 65.34 7.95994 65.53C8.06994 65.72 8.20994 65.98 8.35994 66.31H8.47994C8.62994 65.98 8.75994 65.72 8.87994 65.53C8.99994 65.34 9.10994 65.19 9.21994 65.09C9.33994 64.99 9.49994 64.88 9.69994 64.77C9.90994 64.66 10.1799 64.54 10.5299 64.41V64.3C10.1799 64.17 9.89994 64.05 9.68994 63.94C9.49994 63.83 9.33994 63.72 9.21994 63.62ZM15.1899 64.25L14.4399 63.88C13.8699 63.61 13.3999 63.17 13.3999 62.68C13.3999 62.15 13.8099 61.7 14.5599 61.7C15.3799 61.7 15.8699 62.47 16.0599 63C16.1599 63.1 16.4499 63.09 16.4999 62.97C16.4999 62.27 16.3899 61.7 16.2899 61.47C16.1499 61.45 16.0499 61.43 15.8999 61.39C15.4399 61.26 14.9799 61.22 14.5999 61.22C12.9499 61.22 11.9399 62.04 11.9599 63.23C11.9599 64.27 12.8599 64.9 13.6799 65.28C14.3599 65.6 15.2299 66.1 15.2299 66.95C15.2299 67.48 14.8399 68.01 13.9999 68.01C13.0299 68.01 12.2699 67.04 12.0399 66.36C11.9499 66.24 11.6899 66.25 11.6099 66.39C11.6099 67.1 11.7599 67.86 11.9699 68.09C12.2099 68.22 12.8599 68.49 13.9099 68.49C15.6299 68.49 16.7799 67.65 16.7799 66.36C16.7899 65.2 15.8899 64.6 15.1899 64.25ZM24.9799 66.38C24.6699 67.09 24.0299 68.01 22.6599 68.01C21.2899 68.01 19.9799 66.89 19.9799 64.8C19.9799 62.71 21.3399 61.71 22.5999 61.71C23.7099 61.71 24.4299 62.24 24.7399 63.21C24.8199 63.3 25.1299 63.26 25.1699 63.14C25.0699 62.53 25.0299 61.69 25.0299 61.5C24.6899 61.48 23.8399 61.23 22.6799 61.23C21.4899 61.23 20.3299 61.55 19.5199 62.16C18.7299 62.76 18.1399 63.66 18.1399 64.94C18.1399 66.24 18.7699 67.11 19.5899 67.69C20.3999 68.25 21.5399 68.49 22.6599 68.49C23.5499 68.49 24.3599 68.26 24.9699 68.1C25.1299 67.86 25.3199 67.23 25.3999 66.45C25.3399 66.33 25.0699 66.3 24.9799 66.38ZM34.5999 67.95C34.0799 67.87 34.0099 67.79 34.0099 66.82V62.9C34.0099 61.92 34.0799 61.83 34.5999 61.75L34.8299 61.72C34.9199 61.66 34.9199 61.42 34.8299 61.35C34.3099 61.37 33.7799 61.38 33.2199 61.38C32.6699 61.38 32.1099 61.37 31.4899 61.35C31.3999 61.41 31.3999 61.65 31.4899 61.72L31.7999 61.76C32.3199 61.83 32.3799 61.92 32.3799 62.89V64.11C32.3799 64.41 32.3799 64.43 31.8999 64.43H29.5299C29.0599 64.43 29.0499 64.42 29.0499 64.11V62.9C29.0499 61.92 29.1199 61.82 29.6099 61.75L29.8499 61.72C29.9399 61.66 29.9399 61.42 29.8499 61.35C29.3499 61.37 28.7799 61.38 28.2699 61.38C27.7199 61.38 27.1299 61.37 26.5699 61.35C26.4799 61.41 26.4799 61.65 26.5699 61.72L26.8399 61.75C27.3599 61.81 27.4199 61.92 27.4199 62.9V66.81C27.4199 67.79 27.3599 67.89 26.8399 67.95L26.5699 67.98C26.4799 68.04 26.4799 68.28 26.5699 68.35C27.1499 68.33 27.7199 68.32 28.2699 68.32C28.7799 68.32 29.3499 68.33 29.9999 68.35C30.0899 68.29 30.0899 68.05 29.9999 67.98L29.6399 67.94C29.1299 67.88 29.0599 67.78 29.0599 66.81V65.3C29.0599 65.01 29.0699 65 29.5399 65H31.9099C32.3899 65 32.3899 65.01 32.3899 65.3V66.81C32.3899 67.79 32.3299 67.89 31.8099 67.95L31.5599 67.98C31.4699 68.04 31.4699 68.28 31.5599 68.35C32.1099 68.33 32.6699 68.32 33.2399 68.32C33.7599 68.32 34.3199 68.33 34.8899 68.35C34.9799 68.29 34.9799 68.05 34.8899 67.98L34.5999 67.95ZM40.1799 61.22C37.7999 61.22 36.1099 62.83 36.1099 64.91C36.1099 67.11 37.7699 68.49 40.0599 68.49C42.5099 68.49 44.1699 67.11 44.1699 64.82C44.1799 62.69 42.5499 61.22 40.1799 61.22ZM40.2799 68.01C38.4199 68.01 37.9299 65.95 37.9299 64.67C37.9299 62.92 38.6799 61.71 40.0799 61.71C41.4899 61.71 42.3499 63.17 42.3499 64.97C42.3599 66.66 41.7799 68.01 40.2799 68.01ZM49.7399 61.22C47.3599 61.22 45.6699 62.83 45.6699 64.91C45.6699 67.11 47.3299 68.49 49.6199 68.49C52.0699 68.49 53.7299 67.11 53.7299 64.82C53.7399 62.69 52.1099 61.22 49.7399 61.22ZM49.8399 68.01C47.9799 68.01 47.4899 65.95 47.4899 64.67C47.4899 62.92 48.2399 61.71 49.6399 61.71C51.0499 61.71 51.9099 63.17 51.9099 64.97C51.9099 66.66 51.3299 68.01 49.8399 68.01ZM60.4199 66.59C59.7499 67.81 59.4299 67.84 58.3899 67.84C57.5599 67.84 57.3499 67.76 57.1999 67.58C57.0499 67.41 57.0099 67.08 57.0099 66.58V62.9C57.0099 61.92 57.0799 61.84 57.5899 61.77L57.8899 61.73C57.9799 61.67 57.9799 61.43 57.8899 61.36C57.3199 61.38 56.7499 61.39 56.1999 61.39C55.6499 61.39 55.0799 61.38 54.4899 61.36C54.3499 61.42 54.3499 61.66 54.4699 61.73L54.7999 61.77C55.3099 61.83 55.3799 61.93 55.3799 62.9V66.81C55.3799 67.79 55.3099 67.87 54.7999 67.93L54.3699 67.98C54.2799 68.04 54.2999 68.28 54.3999 68.35C55.1099 68.33 55.6799 68.32 56.1999 68.32H57.7299C58.6599 68.32 59.7599 68.33 60.3599 68.35C60.5199 68.07 60.7899 67.19 60.8499 66.65C60.7699 66.53 60.5099 66.49 60.4199 66.59ZM64.1299 63.62C64.0199 63.52 63.8999 63.37 63.7899 63.18C63.6799 62.99 63.5399 62.73 63.3899 62.4H63.2699C63.1199 62.73 62.9899 62.99 62.8699 63.18C62.7499 63.37 62.6399 63.52 62.5299 63.62C62.4199 63.72 62.2599 63.83 62.0499 63.94C61.8399 64.05 61.5599 64.17 61.2099 64.3V64.41C61.5599 64.54 61.8399 64.66 62.0499 64.77C62.2599 64.88 62.4199 64.98 62.5299 65.09C62.6399 65.19 62.7599 65.34 62.8699 65.53C62.9899 65.72 63.1199 65.98 63.2699 66.31H63.3899C63.5399 65.98 63.6699 65.72 63.7899 65.53C63.9099 65.34 64.0199 65.19 64.1299 65.09C64.2499 64.99 64.4099 64.88 64.6099 64.77C64.8199 64.66 65.0899 64.54 65.4399 64.41V64.3C65.0899 64.17 64.8099 64.05 64.5999 63.94C64.3999 63.83 64.2399 63.72 64.1299 63.62Z" fill="white"></path>
    <path fill-rule="evenodd" clip-rule="evenodd" d="M28.94 21.33L29.23 20.97L21.58 15.69C21.58 15.69 21.47 15.81 21.46 16.04C21.45 16.27 21.93 16.41 21.99 16.68C22.05 16.95 21.94 16.99 21.94 17.23C21.93 17.48 28.94 21.33 28.94 21.33ZM40.38 18.76L45.16 10.78C45.16 10.78 45.03 10.68 44.8 10.69C44.57 10.7 44.46 11.18 44.19 11.26C43.92 11.34 43.88 11.23 43.64 11.24C43.4 11.25 39.98 18.54 39.98 18.54L40.38 18.76ZM29.03 25.24C29.03 25.24 29.6 25.25 29.88 25.25C29.88 21.93 32.57 19.35 35.87 19.35C39.18 19.35 41.86 21.93 41.86 25.25C42.18 25.25 42.7 25.24 42.7 25.24C42.7 21.47 39.64 18.53 35.86 18.53C32.1 18.53 29.03 21.46 29.03 25.24ZM38.02 6.49996C37.85 6.32996 37.73 6.32996 37.55 6.02996C37.37 5.72996 37.56 5.10996 37.38 4.91996C37.19 4.72996 37.03 4.73996 37.03 4.73996L36.39 17.42L36.84 17.47C36.83 17.48 38.19 6.67996 38.02 6.49996ZM41.32 19.52L49.47 9.81996C49.47 9.81996 49.36 9.69996 49.1 9.70996C48.84 9.71996 48.55 10.31 48.22 10.4C47.89 10.49 47.81 10.42 47.56 10.42C47.32 10.43 40.98 19.19 40.98 19.19L41.32 19.52ZM43.65 23.73L52.73 21.78C52.73 21.78 52.71 21.62 52.55 21.45C52.39 21.28 51.96 21.54 51.72 21.39C51.48 21.24 51.53 21.14 51.36 20.97C51.19 20.8 43.58 23.27 43.58 23.27L43.65 23.73ZM43.82 24.89L56.45 24.25C56.45 24.25 56.46 24.09 56.28 23.9C56.09 23.71 55.47 23.9 55.17 23.72C54.88 23.54 54.88 23.43 54.7 23.25C54.53 23.08 43.75 24.42 43.75 24.42L43.82 24.89ZM42.13 20.4C42.13 20.4 50.5 13.5 50.5 13.25C50.49 13 50.41 12.93 50.48 12.59C50.55 12.25 51.12 11.93 51.11 11.66C51.1 11.4 50.98 11.29 50.98 11.29L41.83 20.04L42.13 20.4ZM38.06 17.71C38.06 17.71 40.54 10.03 40.36 9.85996C40.19 9.68996 40.09 9.73996 39.94 9.49996C39.79 9.25996 40.05 8.82996 39.88 8.66996C39.72 8.50996 39.55 8.48996 39.55 8.48996L37.6 17.6L38.06 17.71ZM30.02 28.95C33.22 28.95 35.9 31.11 35.9 31.11C35.9 31.11 38.58 28.95 41.78 28.95C44.98 28.95 49.16 30.88 54.41 30.88C60.86 30.88 65.01 28.6 65.01 28.6C65.01 28.6 59.89 30 56.22 30C52.13 30 45.52 28.31 42.48 28.31C38.48 28.31 35.9 30.35 35.9 30.35C35.9 30.35 33.32 28.31 29.32 28.31C26.28 28.31 19.67 30 15.58 30C11.91 30 6.79004 28.6 6.79004 28.6C6.79004 28.6 10.94 30.88 17.39 30.88C22.64 30.87 26.83 28.95 30.02 28.95ZM35.5 17.43L34.86 4.74996C34.86 4.74996 34.7 4.73996 34.51 4.92996C34.32 5.11996 34.51 5.73996 34.34 6.03996C34.16 6.33996 34.05 6.32996 33.87 6.50996C33.7 6.67996 35.03 17.49 35.03 17.49L35.5 17.43ZM28.16 23.21C28.16 23.21 20.5 20.74 20.32 20.91C20.15 21.08 20.2 21.18 19.96 21.33C19.72 21.48 19.29 21.22 19.13 21.39C18.97 21.56 18.95 21.72 18.95 21.72L28.09 23.67L28.16 23.21ZM42.48 30.5C38.48 30.5 35.9 32.54 35.9 32.54C35.9 32.54 33.32 30.5 29.32 30.5C26.28 30.5 19.67 32.19 15.58 32.19C11.91 32.19 6.79004 30.79 6.79004 30.79C6.79004 30.79 10.94 33.07 17.39 33.07C22.65 33.07 26.83 31.14 30.02 31.14C33.21 31.14 35.9 33.3 35.9 33.3C35.9 33.3 38.58 31.14 41.78 31.14C44.98 31.14 49.16 33.07 54.41 33.07C60.86 33.07 65.01 30.79 65.01 30.79C65.01 30.79 59.88 32.19 56.22 32.19C52.13 32.19 45.52 30.5 42.48 30.5ZM27.99 24.49C27.99 24.49 17.22 23.09 17.04 23.26C16.87 23.43 16.87 23.55 16.57 23.73C16.28 23.91 15.65 23.72 15.46 23.91C15.27 24.1 15.29 24.26 15.29 24.26L27.92 24.9L27.99 24.49ZM34.27 17.59L32.33 8.47996C32.33 8.47996 32.17 8.49996 32 8.65996C31.84 8.81996 32.09 9.24996 31.94 9.48996C31.79 9.72996 31.69 9.67996 31.52 9.84996C31.35 10.02 33.81 17.66 33.81 17.66L34.27 17.59ZM31.75 18.55C31.75 18.55 28.36 11.3 28.11 11.29C27.87 11.28 27.83 11.39 27.56 11.31C27.29 11.23 27.18 10.75 26.95 10.74C26.72 10.73 26.59 10.83 26.59 10.83L31.35 18.76L31.75 18.55ZM21.32 13.19C21.31 13.44 29.65 20.33 29.65 20.33L29.96 19.99L20.83 11.24C20.83 11.24 20.7 11.34 20.7 11.61C20.69 11.87 21.26 12.2 21.33 12.54C21.41 12.87 21.33 12.95 21.32 13.19ZM30.77 19.21C30.77 19.21 24.44 10.44 24.19 10.44C23.95 10.43 23.86 10.51 23.53 10.42C23.2 10.33 22.91 9.73996 22.65 9.72996C22.39 9.71996 22.28 9.83996 22.28 9.83996L30.43 19.54L30.77 19.21ZM50.31 16.04C50.3 15.81 50.19 15.69 50.19 15.69L42.54 20.97L42.77 21.33C42.77 21.33 49.84 17.48 49.83 17.24C49.82 16.99 49.72 16.96 49.78 16.69C49.84 16.42 50.31 16.28 50.31 16.04Z" fill="white"></path>
  </g>
  <defs>
    <clipPath id="clip0_434_133">
      <rect width="72" height="73" fill="white"></rect>
    </clipPath>
  </defs>
</svg>
